<?xml version="1.0" standalone="no"?>
<!DOCTYPE svg PUBLIC "-//W3C//DTD SVG 1.1//EN" "http://www.w3.org/Graphics/SVG/1.1/DTD/svg11.dtd" >
<svg xmlns="http://www.w3.org/2000/svg" xmlns:xlink="http://www.w3.org/1999/xlink" version="1.1">
<metadata>
Created by FontForge 20150318 at Mon Apr 20 12:08:13 2015
 By uniteet7
Copyright (c) 2013 by Parachute Worldwide. All rights reserved.
</metadata>
<defs>
<font id="PFDasGroteskProMedium" horiz-adv-x="542" >
  <font-face 
    font-family="PFDasGroteskProMedium"
    font-weight="500"
    font-stretch="normal"
    units-per-em="1000"
    panose-1="2 0 6 3 0 0 0 2 0 4"
    ascent="800"
    descent="-200"
    x-height="519"
    cap-height="718"
    bbox="-365 -272 1225 967"
    underline-thickness="60"
    underline-position="-55"
    unicode-range="U+0020-FB05"
  />
<missing-glyph horiz-adv-x="446" 
d="M446 0h-446v700h446v-700zM223 291l-125 -227h250zM97 636l126 -227l125 227h-251zM186 350l-122 223v-445zM382 573l-122 -224l122 -221v445z" />
    <glyph glyph-name="fj" unicode="fj" horiz-adv-x="529" 
d="M298 -188l-45 91q74 0 90 39q15 32 15 96v395h-157v-433h-116v433h-79v86h79v37q0 199 192 199q84 0 138 -25v-93q-62 22 -122 22q-92 0 -92 -99v-41h273v-464q0 -120 -42.5 -177.5t-133.5 -65.5z" />
    <glyph glyph-name="ffj" unicode="ffj" horiz-adv-x="803" 
d="M235 750q37 0 81 -9v-93q-28 9 -57 9q-30 0 -44 -16.5t-14 -54.5v-67h162v38q0 200 187 200q84 0 143 -25v-94q-63 23 -122 23q-92 0 -92 -100v-42h269v-465q0 -119 -42.5 -176.5t-133.5 -65.5l-45 91q74 0 90 39q15 32 15 96v395h-153v-433h-116v433h-162v-433h-116v433
h-79v86h79v72q0 159 150 159z" />
    <glyph glyph-name="ff" unicode="ff" horiz-adv-x="590" 
d="M239 750q37 0 81 -9v-93q-28 9 -57 9q-42 0 -51 -37q-7 -27 -7 -87v-14h154v74q0 94 36.5 135.5t113.5 41.5q37 0 81 -9v-93q-28 9 -57 9q-34 0 -46 -20t-12 -74v-64h108v-86h-108v-433h-116v433h-154v-433h-116v433h-79v86h79v58q0 91 37 132t113 41z" />
    <glyph glyph-name="fi" unicode="fi" horiz-adv-x="521" 
d="M351 433h-155v-433h-116v433h-77v86h77v37q0 200 187 200q83 0 143 -26v-93q-62 22 -122 22q-92 0 -92 -99v-41h271v-519h-116v433z" />
    <glyph glyph-name="fl" unicode="fl" horiz-adv-x="535" 
d="M478 743v-743h-116v652q-37 8 -69 8q-92 0 -92 -100v-41h100v-85h-100v-434h-116v434h-79v85h79v37q0 200 187 200q66 0 122 -18z" />
    <glyph glyph-name="ffi" unicode="ffi" horiz-adv-x="800" 
d="M231 750q39 0 82 -9v-93q-30 9 -57 9q-29 0 -46 -19q-6 -6 -9 -26t-3 -30v-42v-21h162v38q0 200 187 200q83 0 143 -25v-94q-63 23 -122 23q-92 0 -92 -100v-42h270v-519h-116v433h-154v-433h-117v433h-161v-433h-117v433h-78v86h78v47q0 98 36 141t114 43z" />
    <glyph glyph-name="ffl" unicode="ffl" horiz-adv-x="808" 
d="M235 750q37 0 81 -9v-93q-28 9 -57 9q-31 0 -46 -20q-6 -7 -9 -27q-3 -25 -3 -76v-15h157v38q0 200 188 200q66 0 121 -18l84 5v-744h-116v653q-37 8 -68 8q-92 0 -92 -100v-42h100v-86h-100v-433h-117v433h-157v-433h-116v433h-79v86h79v47q0 98 36 141t114 43z" />
    <glyph glyph-name="ft" unicode="ft" horiz-adv-x="629" 
d="M243 750q37 0 81 -9v-93q-28 9 -57 9q-47 0 -55 -50q-3 -17 -3 -88h166v112l114 47v-159h104v-86h-105v-289q0 -35 13.5 -50t43.5 -15q35 0 75 22l-13 -91q-45 -22 -101 -22q-72 0 -102 40.5t-30 138.5v266h-165v-433h-116v433h-79v86h79v58q0 91 37 132t113 41z" />
    <glyph glyph-name=".notdef" horiz-adv-x="446" 
d="M446 0h-446v700h446v-700zM223 291l-125 -227h250zM97 636l126 -227l125 227h-251zM186 350l-122 223v-445zM382 573l-122 -224l122 -221v445z" />
    <glyph glyph-name=".null" horiz-adv-x="0" 
 />
    <glyph glyph-name="nonmarkingreturn" horiz-adv-x="333" 
 />
    <glyph glyph-name="space" unicode=" " horiz-adv-x="251" 
 />
    <glyph glyph-name="exclam" unicode="!" horiz-adv-x="344" 
d="M235 728l-9 -283l-8 -246h-92l-20 514q111 12 129 15zM244 64q0 -29 -20.5 -49.5t-50.5 -20.5t-50 20.5t-20 48.5q0 30 20 51t50 21t50.5 -20.5t20.5 -50.5z" />
    <glyph glyph-name="quotedbl" unicode="&#x22;" horiz-adv-x="406" 
d="M336 718v-271h-96v271h96zM165 718v-271h-95v271h95z" />
    <glyph glyph-name="numbersign" unicode="#" 
d="M514 492v-79h-100l-18 -131h91v-78h-103l-28 -204h-77l28 204h-109l-29 -204h-77l29 204h-95v78h106l19 131h-96v79h107q3 25 29 201h77l-28 -201h108l28 201h78l-29 -201h89zM318 282l19 131h-109l-19 -131h109z" />
    <glyph glyph-name="dollar" unicode="$" 
d="M294 -85h-55v75q-99 7 -151.5 67t-54.5 161l116 24q-2 -26 -2 -31q0 -50 24 -86.5t68 -47.5v247l-55 19q-20 9 -50 24q-28 16 -47 35q-41 49 -41 112q0 82 52 131t141 56v74h55v-73q86 -8 139.5 -61t57.5 -137l-114 -21q0 109 -83 129v-202q107 -38 159.5 -87.5
t53.5 -126.5q0 -88 -58 -143q-59 -56 -155 -63v-75zM395 181q0 43 -25 71t-76 50v-227q47 5 74 34.5t27 71.5zM158 524q0 -57 81 -93v184q-37 -5 -59 -29t-22 -62z" />
    <glyph glyph-name="percent" unicode="%" horiz-adv-x="928" 
d="M224 715q89 0 126.5 -59t37.5 -177q0 -239 -164 -239q-87 0 -125 60t-38 177q0 238 163 238zM294 479q0 167 -70 167q-69 0 -69 -169q0 -73 11 -116q13 -52 58 -52t58 52q12 47 12 118zM705 465q89 0 126.5 -59t37.5 -177q0 -239 -164 -239q-87 0 -125 60t-38 177
q0 238 163 238zM775 229q0 167 -70 167q-69 0 -69 -169q0 -73 11 -116q13 -52 58 -52t58 52q12 47 12 118zM626 719h82l-409 -732h-83z" />
    <glyph glyph-name="ampersand" unicode="&#x26;" horiz-adv-x="679" 
d="M442 573q0 -48 -29 -92q-8 -13 -34 -37q-21 -19 -37 -32l-44 -32q53 -102 155 -193q78 103 78 224q0 13 -1 17l107 -27q-6 -149 -108 -275q58 -44 131 -74l-75 -70q-70 32 -128 75q-90 -69 -198 -69q-98 0 -155.5 48.5t-57.5 141.5q0 71 33 122.5t100 99.5
q-31 77 -31 153q0 74 38.5 119.5t106.5 45.5t108.5 -40.5t40.5 -104.5zM381 118q-103 94 -162 199q-62 -58 -64 -131q0 -53 29.5 -80t78.5 -27q63 0 118 39zM249 557q0 -48 15 -96q74 56 74 107q0 56 -43 56q-21 0 -33.5 -19.5t-12.5 -47.5z" />
    <glyph glyph-name="quotesingle" unicode="'" horiz-adv-x="269" 
d="M182 718v-271h-96v271h96z" />
    <glyph glyph-name="parenleft" unicode="(" horiz-adv-x="288" 
d="M181 718h85q-100 -215 -100 -429q0 -211 100 -429h-86q-121 239 -121 427q0 192 122 431z" />
    <glyph glyph-name="parenright" unicode=")" horiz-adv-x="288" 
d="M228 290q0 -192 -121 -430h-85q101 218 99 431q0 209 -99 427h85q121 -239 121 -428z" />
    <glyph glyph-name="asterisk" unicode="*" horiz-adv-x="463" 
d="M387 643l22 -73l-120 -36l82 -94l-66 -43l-72 101l-68 -107l-60 50l77 93l-119 38l23 70l116 -46l-5 127h75l-5 -127z" />
    <glyph glyph-name="plus" unicode="+" 
d="M501 300v-92h-184v-191h-93v191h-184v92h184v191h92v-191h185z" />
    <glyph glyph-name="comma" unicode="," horiz-adv-x="247" 
d="M199 39q0 -53 -35 -103q-36 -53 -80 -77l-37 38q23 15 43 44t27 54q-32 2 -50 22.5t-18 48.5q0 31 20.5 51.5t51.5 20.5q37 0 57.5 -26t20.5 -73z" />
    <glyph glyph-name="hyphen" unicode="-" horiz-adv-x="331" 
d="M295 307v-93h-260v93h260z" />
    <glyph glyph-name="period" unicode="." horiz-adv-x="239" 
d="M47 66q0 31 20.5 52t51.5 21t52 -21t21 -52t-21 -51.5t-52 -20.5t-51.5 21t-20.5 51z" />
    <glyph glyph-name="slash" unicode="/" horiz-adv-x="315" 
d="M230 724h97l-243 -779h-96z" />
    <glyph glyph-name="zero" unicode="0" 
d="M506 349q0 -124 -27 -208q-50 -156 -209 -156q-134 0 -188 105q-46 96 -46 254q0 127 27 209q50 155 207 155q109 0 167 -68q69 -89 69 -291zM384 348q0 110 -19 181q-24 90 -94 90q-72 0 -95 -91q-18 -82 -18 -183q0 -121 18 -188q22 -84 95 -84q72 0 95 85
q18 67 18 190z" />
    <glyph glyph-name="one" unicode="1" 
d="M494 0h-410v86h153v493q-71 -54 -154 -89l-31 82q93 50 194 128h109v-614h156z" />
    <glyph glyph-name="two" unicode="2" 
d="M194 84v-2q47 5 91 5h218l-19 -87h-439v88q160 109 241.5 209.5t81.5 204.5q0 59 -30 90t-74 31q-61 0 -88 -51q-26 -50 -9 -121l-116 24q-1 108 58 171q60 62 159 62q96 0 157 -54q62 -54 62 -156q0 -108 -88 -223q-87 -114 -205 -191z" />
    <glyph glyph-name="three" unicode="3" 
d="M263 619q-53 0 -83 -36q-30 -35 -15 -87l-118 21q1 87 59.5 139t159.5 52q94 0 156 -47t62 -135q0 -57 -36.5 -100t-91.5 -55v-3q64 -10 103 -57.5t39 -116.5q0 -95 -69 -152q-67 -57 -171 -57q-105 0 -165 53.5t-61 146.5l125 22q-14 -51 15 -92t87 -41q51 0 84 33
t33 89q0 61 -36 93.5t-97 32.5h-39v86h40q54 0 87 30t33 80q0 47 -27.5 74t-73.5 27z" />
    <glyph glyph-name="four" unicode="4" 
d="M516 243v-92h-90v-151h-115v151h-293v92l295 466l113 -12v-454h90zM185 243h126v207q0 46 5 99h-2q-19 -41 -47 -84l-102 -166q-13 -21 -44 -59q28 3 64 3z" />
    <glyph glyph-name="five" unicode="5" 
d="M58 328l22 366h400l-10 -45q-3 -13 -8 -44h-285l-12 -192l2 -2q48 56 136 56q94 0 147.5 -63t53.5 -171q0 -113 -64 -180q-63 -67 -177 -67q-102 0 -159.5 53t-59.5 146l125 21q-13 -56 13 -94.5t85 -38.5q116 0 116 157q0 71 -30 110.5t-89 39.5q-39 0 -67.5 -21.5
t-39.5 -62.5z" />
    <glyph glyph-name="six" unicode="6" 
d="M509 233q0 -114 -61.5 -181t-171.5 -67q-137 0 -191 97q-49 90 -49 238q0 127 28 219q52 165 221 169q89 0 142 -43.5t57 -119.5l-115 -24q5 47 -19 73.5t-67 26.5q-67 0 -96.5 -64.5t-30.5 -189.5h2q45 88 153 88q93 0 145.5 -59.5t52.5 -162.5zM388 219q0 67 -27 107
q-26 41 -82 41t-86 -41q-29 -41 -29 -105q0 -65 30 -106.5t82 -41.5q53 0 82.5 40.5t29.5 105.5z" />
    <glyph glyph-name="seven" unicode="7" 
d="M492 693v-89l-274 -604h-121l250 542q17 38 36 66q-21 -3 -81 -3h-260l15 88h435z" />
    <glyph glyph-name="eight" unicode="8" 
d="M509 190q0 -88 -68 -147q-67 -58 -173 -58t-171 56q-64 55 -64 149q0 63 37.5 112t98.5 66v2q-53 18 -81.5 59t-28.5 94q0 86 61 135q62 50 153 50q93 0 152 -49q61 -49 61 -136q0 -51 -31.5 -93t-81.5 -60v-2q61 -16 98.5 -64t37.5 -114zM373 519q0 48 -27.5 76.5
t-73.5 28.5q-43 0 -71.5 -29t-28.5 -76q0 -50 28 -79t73 -29q44 0 72 29.5t28 78.5zM387 198q0 57 -31.5 91.5t-84.5 34.5t-85 -34.5t-32 -91.5t31.5 -91t85.5 -34q53 0 84.5 35t31.5 90z" />
    <glyph glyph-name="nine" unicode="9" 
d="M32 460q0 114 61.5 181t171.5 67q137 0 191 -98q49 -88 49 -237q0 -130 -29 -220q-51 -168 -220 -168q-91 0 -146 47t-59 132l115 24q-5 -55 18.5 -85.5t73.5 -30.5q129 0 127 254h-2q-45 -88 -153 -88q-93 0 -145.5 59.5t-52.5 162.5zM153 474q0 -66 26 -107
q27 -41 83 -41t85 41q30 41 30 105q0 65 -30 106.5t-82 41.5q-53 0 -82.5 -40.5t-29.5 -105.5z" />
    <glyph glyph-name="colon" unicode=":" horiz-adv-x="242" 
d="M48 66q0 31 21 52t52 21t51.5 -21t20.5 -52t-20.5 -51.5t-51.5 -20.5t-52 21t-21 51zM48 429q0 31 21 52.5t52 21.5t51.5 -21t20.5 -52t-20.5 -51.5t-51.5 -20.5t-52 21t-21 50z" />
    <glyph glyph-name="semicolon" unicode=";" horiz-adv-x="249" 
d="M128 358q-30 0 -51 21t-21 50q-2 32 21 53.5t51.5 20.5t51.5 -21q21 -23 21.5 -51.5t-21 -51.5t-52.5 -21zM202 39q0 -53 -35 -103q-36 -53 -80 -77l-37 38q23 15 42.5 43.5t26.5 54.5q-31 2 -49 22.5t-18 48.5q0 31 20.5 51.5t51.5 20.5q37 0 57.5 -26t20.5 -73z" />
    <glyph glyph-name="semicolon" unicode="&#x37e;" horiz-adv-x="249" 
d="M128 358q-30 0 -51 21t-21 50q-2 32 21 53.5t51.5 20.5t51.5 -21q21 -23 21.5 -51.5t-21 -51.5t-52.5 -21zM202 39q0 -53 -35 -103q-36 -53 -80 -77l-37 38q23 15 42.5 43.5t26.5 54.5q-31 2 -49 22.5t-18 48.5q0 31 20.5 51.5t51.5 20.5q37 0 57.5 -26t20.5 -73z" />
    <glyph glyph-name="less" unicode="&#x3c;" 
d="M470 83v-95l-409 219v87l409 218v-97l-308 -164q1 -1 41 -23q11 -5 267 -145z" />
    <glyph glyph-name="equal" unicode="=" 
d="M501 399v-93h-461v93h461zM501 193v-93h-461v93h461z" />
    <glyph glyph-name="greater" unicode="&#x3e;" 
d="M470 294v-87l-409 -219v95l309 168l-309 164v97z" />
    <glyph glyph-name="question" unicode="?" horiz-adv-x="489" 
d="M452 544q0 -47 -21 -85t-74 -93l-50 -52q-31 -35 -31 -83v-39h-104v51q0 40 15 71t54 74l46 54q44 56 44 98q0 49 -27 75t-72 26q-53 -2 -80 -43t-18 -95l-110 25q4 95 62 149.5t152 54.5q97 0 155.5 -49.5t58.5 -138.5zM152 62q0 30 20 51t50 21t50.5 -20.5t20.5 -50.5
t-20.5 -50t-50.5 -20t-50 20t-20 49z" />
    <glyph glyph-name="at" unicode="@" horiz-adv-x="928" 
d="M614 417v-177q0 -51 57 -51q51 0 81.5 44.5t30.5 122.5q0 129 -86 210q-85 82 -224 82q-142 0 -236 -94q-94 -93 -94 -232q0 -140 87 -232q88 -91 229 -91q93 0 160 32l-7 -75q-73 -32 -153 -32q-175 0 -284 111q-110 113 -110 286t116 286q117 114 292 114
q177 0 283 -103q108 -104 108 -263q0 -113 -58 -177q-59 -65 -140 -65q-103 0 -130 81h-3q-42 -71 -132 -71q-57 0 -89 33t-32 90q0 67 53 104q22 15 56 25q52 14 130 19v36q0 65 -65 65q-31 0 -50 -19t-20 -52l-86 25q18 116 160 116q156 0 156 -148zM519 291v46
q-51 -6 -90 -19q-54 -19 -54 -65q0 -30 16.5 -46.5t43.5 -16.5q41 0 62.5 27.5t21.5 73.5z" />
    <glyph glyph-name="A" unicode="A" horiz-adv-x="627" 
d="M382 718l235 -718h-123q-11 30 -54 170h-257l-53 -170h-122l234 718h140zM210 267h202l-66 219l-33 119h-3l-33 -118z" />
    <glyph glyph-name="B" unicode="B" horiz-adv-x="607" 
d="M561 197q0 -91 -65 -144t-164 -53h-267v718h254q72 0 137 -33q37 -18 58 -57t21 -92q0 -57 -32.5 -99.5t-83.5 -57.5v-2q67 -13 104.5 -59.5t37.5 -120.5zM411 523q0 98 -123 98h-102v-201h98q127 0 127 103zM290 325h-104v-230h109q139 0 139 115t-144 115z" />
    <glyph glyph-name="C" unicode="C" horiz-adv-x="615" 
d="M320 -15q-142 0 -208.5 93t-66.5 282q0 372 283 372q107 0 172 -59t66 -157l-127 -20q9 64 -21.5 103t-92.5 39q-153 0 -153 -280q0 -138 36.5 -207t118.5 -69q65 0 95 45.5t24 121.5l128 -26q-13 -238 -254 -238z" />
    <glyph glyph-name="D" unicode="D" horiz-adv-x="650" 
d="M63 718h212q164 0 244.5 -88.5t80.5 -271.5q0 -184 -79 -271t-245 -87h-213v718zM259 622h-74v-527h88q107 0 154 64t47 202q0 136 -51 198.5t-164 62.5z" />
    <glyph glyph-name="E" unicode="E" horiz-adv-x="541" 
d="M508 97v-97h-445v718h434l-26 -97h-285v-200h268v-97h-268v-227h322z" />
    <glyph glyph-name="F" unicode="F" horiz-adv-x="507" 
d="M495 718l-26 -97h-284v-210h269v-97h-269v-314h-122v718h432z" />
    <glyph glyph-name="G" unicode="G" horiz-adv-x="644" 
d="M334 732q110 -1 174.5 -59t65.5 -157l-126 -20q9 65 -20 103.5t-96 38.5q-158 0 -158 -281q0 -276 159 -276q85 1 115 66q24 51 22 140h-136v95h254q6 -56 6 -95q0 -142 -65.5 -221.5t-194.5 -79.5q-286 0 -286 373q0 180 72 277t214 96z" />
    <glyph glyph-name="H" unicode="H" horiz-adv-x="636" 
d="M572 718v-718h-122v327h-264v-327h-122v718h122v-293h264v293h122z" />
    <glyph glyph-name="I" unicode="I" horiz-adv-x="263" 
d="M192 718v-718h-122v718h122z" />
    <glyph glyph-name="J" unicode="J" horiz-adv-x="529" 
d="M232 79q110 0 110 142v497h122v-491q0 -115 -60 -178t-171 -63q-100 0 -158.5 54.5t-58.5 154.5l122 20q-10 -61 12.5 -98.5t81.5 -37.5z" />
    <glyph glyph-name="K" unicode="K" horiz-adv-x="599" 
d="M311 388l286 -388h-146l-263 358q0 -100 -1 -180v-178h-122v718h122v-158q1 -70 1 -157l251 315h140z" />
    <glyph glyph-name="L" unicode="L" horiz-adv-x="510" 
d="M496 97l-26 -97h-405v718h121v-621h310z" />
    <glyph glyph-name="M" unicode="M" horiz-adv-x="801" 
d="M737 718v-718h-119v387q0 64 2 110l-2 1q-23 -61 -43 -104l-125 -284h-101l-129 289q-16 37 -39 96h-3q0 -20 1 -50l3 -76v-369h-119v718h129l82 -191l80 -185q28 -63 46 -119h4q8 24 54 141l152 354h127z" />
    <glyph glyph-name="N" unicode="N" horiz-adv-x="658" 
d="M596 718v-718h-122l-241 416q-41 71 -55 107h-2q5 -97 5 -119v-404h-118v718h125l227 -398q48 -88 63 -123h2q-3 53 -3 128v393h119z" />
    <glyph glyph-name="O" unicode="O" horiz-adv-x="679" 
d="M631 359q0 -180 -72.5 -276.5t-218.5 -96.5q-292 0 -292 373q0 181 72 277t219 96t219.5 -96t72.5 -277zM505 358q0 280 -165 280q-166 0 -166 -279t165 -279q166 0 166 278z" />
    <glyph glyph-name="P" unicode="P" horiz-adv-x="567" 
d="M540 492q0 -104 -73 -165q-72 -60 -195 -60h-87q1 -27 1 -267h-122v718h233q108 0 175 -58q68 -59 68 -168zM413 493q0 128 -137 128h-91v-257h93q63 0 99 31.5t36 97.5z" />
    <glyph glyph-name="Q" unicode="Q" horiz-adv-x="678" 
d="M631 359q0 -254 -140 -337l146 -40l-39 -97l-274 103h-6q-270 14 -270 371q0 181 72 277t219 96t219.5 -96t72.5 -277zM504 358q0 139 -39 209.5t-126 70.5q-165 0 -165 -279t164 -279q166 0 166 278z" />
    <glyph glyph-name="R" unicode="R" horiz-adv-x="605" 
d="M382 306l186 -306h-133q-5 10 -86 145q-69 117 -86 149h-78q1 -31 1 -294h-123v718h242q112 0 178.5 -57t66.5 -158q0 -73 -46.5 -127.5t-121.5 -69.5zM298 621h-113v-230h115q57 0 91 29.5t34 87.5q0 62 -39 87q-38 26 -88 26z" />
    <glyph glyph-name="S" unicode="S" horiz-adv-x="579" 
d="M291 732q103 0 167 -57q65 -55 70 -153l-125 -22q4 65 -26.5 101.5t-94.5 36.5q-46 0 -73.5 -25t-27.5 -68q0 -15 4.5 -28.5t16 -24.5t21.5 -19t30.5 -17t33 -14.5t38 -15t37.5 -14.5q53 -21 88 -41q42 -23 68 -66.5t26 -100.5q0 -98 -69 -158t-184 -60q-120 0 -183.5 64
t-65.5 178l128 27q-15 -73 19 -125q35 -51 108 -51q56 0 88 30.5t32 77.5q0 91 -128 134q-48 16 -106 38q-57 23 -92.5 67.5t-35.5 107.5q0 94 64.5 146t171.5 52z" />
    <glyph glyph-name="T" unicode="T" horiz-adv-x="537" 
d="M533 718l-27 -97h-178v-621h-122v621h-193v97h520z" />
    <glyph glyph-name="U" unicode="U" horiz-adv-x="644" 
d="M459 718h123v-479q0 -122 -68 -188t-192 -66q-125 0 -193 65.5t-68 188.5v479h122v-474q0 -78 35 -121t103 -43q69 0 103.5 42.5t34.5 121.5v474z" />
    <glyph glyph-name="V" unicode="V" horiz-adv-x="594" 
d="M590 718l-222 -718h-139l-224 718h128l114 -396q17 -53 53 -199h2q12 61 50 200l113 395h125z" />
    <glyph glyph-name="W" unicode="W" horiz-adv-x="900" 
d="M451 544h-3q-2 -13 -62 -270l-66 -274h-142l-172 718h128l77 -368q1 -8 4 -22t7 -36.5t8 -42.5q12 -60 22 -119h3q8 47 32 167q5 24 31 135q11 46 38 153q16 58 34 133h121l103 -432l10 -43q18 -66 24 -113h3q10 72 32 178l84 410h127l-173 -718h-141l-68 273
q-14 63 -25 105q-30 120 -36 166z" />
    <glyph glyph-name="X" unicode="X" horiz-adv-x="596" 
d="M297 283h-3q-11 -27 -38 -74l-118 -209h-133l222 365l-207 353h139l95 -175q27 -45 45 -90h4q27 58 44 86l101 179h131l-211 -345l222 -373h-139l-116 208q-19 29 -38 75z" />
    <glyph glyph-name="Y" unicode="Y" horiz-adv-x="577" 
d="M443 718h129l-223 -437v-281h-122v280l-223 438h140l106 -231q24 -56 42 -104q1 15 43 103z" />
    <glyph glyph-name="Z" unicode="Z" horiz-adv-x="536" 
d="M508 97v-97h-481v95l307 466q25 39 48 64q-25 -4 -84 -4h-253l21 97h436v-101l-287 -442q-16 -26 -62 -82q36 4 87 4h268z" />
    <glyph glyph-name="bracketleft" unicode="[" horiz-adv-x="297" 
d="M274 -60v-80h-200v858h200v-78h-96v-700h96z" />
    <glyph glyph-name="backslash" unicode="\" horiz-adv-x="296" 
d="M64 724l266 -731h-98l-266 731h98z" />
    <glyph glyph-name="bracketright" unicode="]" horiz-adv-x="297" 
d="M223 718v-858h-199v79h95v701h-95v78h199z" />
    <glyph glyph-name="asciicircum" unicode="^" 
d="M314 693l206 -419h-89l-161 325l-160 -325h-89l205 419h88z" />
    <glyph glyph-name="underscore" unicode="_" horiz-adv-x="500" 
d="M500 -71v-61h-500v61h500z" />
    <glyph glyph-name="grave" unicode="`" horiz-adv-x="504" 
d="M312 586h-73l-134 161h119z" />
    <glyph glyph-name="a" unicode="a" horiz-adv-x="502" 
d="M496 81l-14 -79q-31 -14 -65 -14q-85 0 -89 78h-2q-39 -80 -148 -80q-71 0 -110.5 40.5t-39.5 112.5q0 107 99 145q80 31 194 37v44q0 38 -20.5 61t-61.5 23q-42 0 -64 -23.5t-18 -67.5q-34 10 -105 31q11 72 61 108t132 36q100 0 145.5 -50.5t45.5 -163.5v-210
q0 -35 30 -35q15 0 30 7zM321 193v58l-36 -5q-52 -9 -77 -20q-64 -30 -64 -80q0 -38 20 -58.5t54 -20.5q49 0 76 35.5t27 90.5z" />
    <glyph glyph-name="b" unicode="b" horiz-adv-x="536" 
d="M500 261q0 -129 -49.5 -202.5t-142.5 -73.5q-48 0 -86 21.5t-56 58.5l-2 -2q0 -46 -4 -63h-114q5 55 5 116v615l116 18v-289h3q52 73 137 73q193 0 193 -272zM275 445q-52 0 -80.5 -47.5t-28.5 -136.5q0 -188 110 -188q56 0 80 45.5t24 141.5q0 97 -23.5 141t-81.5 44z
" />
    <glyph glyph-name="c" unicode="c" horiz-adv-x="485" 
d="M344 187l115 -15q-5 -87 -58.5 -137t-143.5 -50q-110 0 -166 70.5t-56 203.5q0 128 57 201t162 73q88 0 141 -49.5t53 -133.5l-113 -16q6 52 -16 82t-63 30q-48 0 -75.5 -50t-26.5 -134q0 -190 111 -190q40 0 61.5 30t17.5 85z" />
    <glyph glyph-name="d" unicode="d" horiz-adv-x="537" 
d="M489 0h-113q-4 25 -4 71l-1 -1h-2q-19 -39 -57 -61.5t-86 -22.5q-95 0 -142.5 71t-47.5 203q0 130 49 201.5t147 71.5q42 0 78 -20t56 -55h1q1 1 2 1v274q34 5 57 8q24 3 58 8v-637q0 -74 5 -112zM261 445q-105 0 -105 -184q0 -96 24 -142t79 -46q110 0 110 189
q0 183 -108 183z" />
    <glyph glyph-name="e" unicode="e" horiz-adv-x="503" 
d="M468 237h-315q0 -166 104 -166q44 0 67.5 28t19.5 75l113 -21q-8 -78 -60.5 -123t-138.5 -45q-113 0 -168 72.5t-55 203.5q0 53 11.5 99.5t36 86.5t68.5 63.5t104 23.5q215 0 213 -297zM155 314h196q-3 135 -98 135q-44 0 -70 -41q-27 -42 -28 -94z" />
    <glyph glyph-name="f" unicode="f" horiz-adv-x="327" 
d="M243 750q37 0 81 -9v-93q-28 9 -57 9q-58 0 -58 -65v-73h108v-86h-108v-433h-116v433h-79v86h79v58q0 91 37 132t113 41z" />
    <glyph glyph-name="g" unicode="g" horiz-adv-x="545" 
d="M323 23l-165 9q-28 -34 -28 -70q0 -34 32.5 -53t88.5 -19q71 0 105 29q34 28 34 59q0 42 -67 45zM271 158q-69 0 -103 22l-16 -20q-17 -23 -17 -33q0 -15 28 -16l207 -13q63 -4 101.5 -34t38.5 -83q0 -67 -73 -121t-191 -54q-112 0 -167 38t-55 99q0 30 17.5 57.5
t45.5 45.5v3q-26 6 -41.5 21t-15.5 35q0 19 10 32q9 13 45 49l28 27q-54 43 -54 128t58 137q59 53 150 53t146 -42q46 47 123 55v-100q-18 5 -44 5t-38 -5q30 -46 30 -102q0 -80 -60 -132q-58 -52 -153 -52zM271 240q47 0 73.5 29t26.5 75t-26.5 75t-73.5 29
q-48 0 -74.5 -29t-26.5 -75q0 -47 26 -75.5t75 -28.5z" />
    <glyph glyph-name="h" unicode="h" horiz-adv-x="531" 
d="M474 363v-363h-116v340q0 103 -87 103q-47 0 -73.5 -34.5t-26.5 -88.5v-320h-116v733q34 5 57 8q28 3 59 8v-293h1l2 -1q44 78 141 78q78 0 118.5 -46.5t40.5 -123.5z" />
    <glyph glyph-name="i" unicode="i" horiz-adv-x="237" 
d="M119 601q-32 0 -53 21t-21 51q0 32 21 53q21 22 53 22t52 -21q21 -24 21.5 -53t-21 -52.5t-52.5 -20.5zM176 527v-527h-116v511z" />
    <glyph glyph-name="j" unicode="j" horiz-adv-x="239" 
d="M120 748q32 0 53 -21t21 -53t-21 -52.5t-53 -20.5q-31 0 -52 21t-21 51q0 32 21 53.5t52 21.5zM2 -188l-45 89q54 0 81 23q12 12 16 30q8 27 8 81l-1 476l117 15v-482q0 -113 -43 -168.5t-133 -63.5z" />
    <glyph glyph-name="k" unicode="k" horiz-adv-x="497" 
d="M286 283l207 -283h-135l-186 265v-265h-116v731l116 18v-454l1 -1l180 225h134z" />
    <glyph glyph-name="l" unicode="l" horiz-adv-x="236" 
d="M176 749v-749h-116v731z" />
    <glyph glyph-name="m" unicode="m" horiz-adv-x="828" 
d="M771 360v-360h-117v340q0 46 -22 73.5t-62 27.5q-46 0 -72 -35t-26 -89v-317h-116v340q0 46 -22 73.5t-62 27.5q-46 0 -72 -35t-26 -89v-317h-116v393q0 69 -6 118l114 15q4 -33 4 -74h2q50 80 147 80q51 0 88 -24.5t52 -68.5q1 0 1 1q56 93 154 93q78 0 117.5 -47
t39.5 -126z" />
    <glyph glyph-name="n" unicode="n" horiz-adv-x="533" 
d="M476 363v-363h-116v336q0 104 -86 104q-47 0 -73.5 -35.5t-26.5 -90.5v-314h-116v386q0 78 -6 125l114 15q4 -31 5 -74h2q47 81 144 81q78 0 118.5 -46t40.5 -124z" />
    <glyph glyph-name="o" unicode="o" horiz-adv-x="531" 
d="M265 533q113 0 172 -71.5t59 -201.5t-59.5 -202.5t-171.5 -72.5q-113 0 -171.5 72t-58.5 202t59 201.5t171 72.5zM265 71q111 0 111 188t-111 188t-111 -188t111 -188z" />
    <glyph glyph-name="p" unicode="p" horiz-adv-x="537" 
d="M500 258q0 -129 -48 -200.5t-144 -71.5t-138 76h-3v-241q-25 -5 -115 -16v598q0 65 -6 109l114 14q4 -25 4 -74h3q19 37 56 59t82 22q97 0 146 -71.5t49 -203.5zM275 445q-108 0 -108 -183q0 -189 110 -189q55 0 79.5 46.5t24.5 141.5q0 184 -106 184z" />
    <glyph glyph-name="q" unicode="q" horiz-adv-x="536" 
d="M36 258q0 131 49.5 203t145.5 72q45 0 82.5 -22.5t56.5 -59.5l2 1q0 36 3 67h113q-3 -45 -3 -118v-581l-116 -15v259h-3q-45 -79 -140 -79q-94 0 -142 72t-48 201zM156 261q0 -95 24.5 -141.5t78.5 -46.5q111 0 111 189q0 183 -108 183q-55 0 -80.5 -45t-25.5 -139z" />
    <glyph glyph-name="r" unicode="r" horiz-adv-x="354" 
d="M357 523q-10 -42 -29 -112q-25 7 -52 7q-48 0 -75.5 -37t-27.5 -100v-281h-117v403q0 69 -6 110q31 3 114 13q5 -47 5 -93h2q17 47 51.5 73t78.5 26q33 0 56 -9z" />
    <glyph glyph-name="s" unicode="s" horiz-adv-x="451" 
d="M222 533q80 0 130 -40t55 -112l-104 -27q2 18 2 20q0 35 -23 55.5t-60 20.5q-29 0 -48 -18.5t-19 -43.5q0 -43 92 -74q35 -11 59.5 -22t53 -30t43 -48t14.5 -66q0 -72 -53.5 -117t-142.5 -45q-93 0 -138 45.5t-54 135.5l112 24q-5 -20 -5 -34q0 -38 23 -63t64 -25
q38 0 58.5 20t20.5 51q0 56 -92 85q-34 11 -47.5 16t-42.5 19.5t-42 28.5t-25 38t-12 53q0 74 49 113.5t132 39.5z" />
    <glyph glyph-name="t" unicode="t" horiz-adv-x="342" 
d="M340 103l-14 -93q-40 -22 -100 -22q-133 0 -133 155v290h-81v86h83v139l114 48v-187h104v-86h-105v-288q0 -35 13 -50t43 -15q32 0 76 23z" />
    <glyph glyph-name="u" unicode="u" horiz-adv-x="528" 
d="M474 0h-114q-3 22 -3 67l-2 -1q-44 -80 -144 -80q-77 0 -117 45.5t-40 123.5v355l116 15v-345q0 -50 22 -78t64 -28q46 0 72 34.5t26 88.5v322h117v-410q0 -89 3 -109z" />
    <glyph glyph-name="v" unicode="v" horiz-adv-x="480" 
d="M356 519h116l-164 -519h-132l-168 512l118 16l80 -285q20 -67 37 -148l4 1q12 65 35 146z" />
    <glyph glyph-name="w" unicode="w" horiz-adv-x="769" 
d="M647 519h113l-147 -519h-127l-69 285q-21 80 -30 142h-3q-14 -79 -31 -139l-72 -288h-129l-143 511l118 18l71 -313q9 -37 22 -117h3q7 48 27 123l73 297h130l72 -300q22 -94 25 -118h3q11 73 24 120z" />
    <glyph glyph-name="x" unicode="x" horiz-adv-x="484" 
d="M312 268l163 -268h-130l-108 200l-107 -200h-122l165 272l-150 240l122 17l100 -191l99 181h120z" />
    <glyph glyph-name="y" unicode="y" horiz-adv-x="471" 
d="M350 519h116l-154 -476l-22 -67q-9 -27 -21 -55q-14 -34 -26 -49q-47 -70 -117 -65q-20 0 -57 8l-22 88q17 -4 36 -4q36 0 55.5 13.5t32.5 45.5l13 33l-179 520l118 16l83 -288q20 -68 32 -123h3q7 43 29 117z" />
    <glyph glyph-name="z" unicode="z" horiz-adv-x="437" 
d="M409 87v-87h-384v86l223 307q18 25 36 42q-12 -3 -57 -3h-194l16 87h356v-86l-227 -313l-32 -37q36 4 51 4h212z" />
    <glyph glyph-name="braceleft" unicode="{" horiz-adv-x="311" 
d="M293 -60v-80h-79q-46 0 -76 32.5t-30 88.5v170q0 97 -75 102v77q75 4 75 101v165q0 56 29.5 89t78.5 33h77v-78h-35q-26 0 -36.5 -15.5t-10.5 -48.5v-156q0 -56 -22.5 -89t-57.5 -39v-2q35 -6 57.5 -38.5t22.5 -89.5v-158q0 -64 47 -64h35z" />
    <glyph glyph-name="bar" unicode="|" horiz-adv-x="237" 
d="M165 724v-867h-93v867h93z" />
    <glyph glyph-name="braceright" unicode="}" horiz-adv-x="311" 
d="M279 329v-77q-76 -4 -76 -101v-169q0 -56 -30 -89t-76 -33h-79v80h35q48 0 48 64v158q0 57 22.5 89.5t57.5 38.5q-81 22 -81 154v132q0 33 -10.5 48.5t-36.5 15.5h-35v78h78q48 0 77.5 -33t29.5 -89v-166q0 -97 76 -101z" />
    <glyph glyph-name="asciitilde" unicode="~" 
d="M175 335q41 0 108 -36t89 -36q54 0 92 70l37 -70q-50 -86 -127 -86q-39 0 -103 35q-63 36 -95 36q-55 0 -92 -73l-39 66q49 94 130 94z" />
    <glyph glyph-name="uni00A0" unicode="&#xa0;" horiz-adv-x="251" 
 />
    <glyph glyph-name="exclamdown" unicode="&#xa1;" horiz-adv-x="344" 
d="M103 459q0 29 20 49.5t50 20.5t50.5 -20.5t20.5 -49.5q0 -30 -20.5 -50.5t-50.5 -20.5t-50 20.5t-20 50.5zM126 324h92l8 -247l9 -282l-129 16z" />
    <glyph glyph-name="cent" unicode="&#xa2;" 
d="M369 187l114 -15q-4 -84 -53.5 -133t-133.5 -53v-124h-45v125q-95 10 -143.5 79.5t-48.5 192.5q0 119 50 190.5t142 81.5v115h45v-114q82 -5 129.5 -53.5t47.5 -128.5l-114 -16q6 47 -11.5 76t-51.5 35v-373q39 2 58 31.5t15 83.5zM178 262q2 -153 73 -183v361
q-36 -14 -55 -61t-18 -117z" />
    <glyph glyph-name="sterling" unicode="&#xa3;" 
d="M298 707q97 0 151 -49t57 -139l-114 -17q1 5 1 25q0 43 -25.5 68t-69.5 25q-50 0 -75 -28t-25 -74t24 -117h164v-79h-145q8 -43 8 -79q0 -101 -59 -152h316v-91h-473v86q47 20 74 61t27 90q0 41 -10 85h-87v79h69q-26 69 -26 125q0 82 61 131q62 50 157 50z" />
    <glyph glyph-name="currency" unicode="&#xa4;" horiz-adv-x="556" 
d="M395 354q0 50 -36 85q-35 35 -84 35t-85 -36q-35 -35 -35 -84q0 -48 35 -85q37 -35 85 -35q49 0 84 35q36 36 36 85zM100 466l-57 57l62 64l58 -57q49 33 113 33q62 0 113 -33l15 15l42 42l62 -66l-56 -55q33 -51 33 -112q0 -58 -34 -113q4 -2 29 -27l29 -28l-62 -66
l-58 59q-49 -34 -113 -34t-113 34l-58 -58l-62 65l57 55q-33 54 -33 113q0 61 33 112z" />
    <glyph glyph-name="yen" unicode="&#xa5;" 
d="M416 696h123l-181 -352h127v-68h-157v-61h157v-69h-157v-146h-116v146h-158v69h158v61h-158v68h129l-181 352h132l102 -224l21 -54l16 -41q24 61 44 106z" />
    <glyph glyph-name="brokenbar" unicode="&#xa6;" horiz-adv-x="237" 
d="M165 255v-397h-93v397h93zM165 724v-400h-93v400h93z" />
    <glyph glyph-name="section" unicode="&#xa7;" horiz-adv-x="468" 
d="M170 452q-34 -21 -34 -64q0 -23 18.5 -43t44.5 -33l61 -25q35 -13 54 -23q26 32 26 62q0 41 -34 63q-16 11 -34 20q-17 8 -49 21q-12 5 -29.5 12.5t-23.5 9.5zM43 97l102 14q-10 -43 19 -68q29 -24 70 -24q44 0 66.5 23t22.5 58q0 32 -24.5 56.5t-81.5 48.5l-56 24
q-22 10 -45 25q-35 22 -50 50t-18 75q0 30 16.5 64t40.5 56q-46 39 -46 112q0 72 49 118t126 46q84 0 135 -44.5t51 -119.5l-97 -14q1 4 1 17q0 37 -23.5 57t-60.5 20q-43 0 -62 -28t-19 -54q0 -58 94 -94q31 -11 49 -19t45 -24.5t42 -33.5t26.5 -45t11.5 -61
q0 -72 -48 -122q40 -44 40 -104q0 -78 -54 -126q-52 -49 -135 -49q-85 0 -135.5 44.5t-51.5 121.5z" />
    <glyph glyph-name="dieresis" unicode="&#xa8;" horiz-adv-x="505" 
d="M157 734q28 0 47 -19t19 -46q0 -29 -19 -48t-47 -19q-29 0 -48 19t-19 46q0 28 19 47.5t48 19.5zM277 667q0 29 19.5 48.5t47.5 19.5t47 -19t19 -47t-19 -47.5t-47 -19.5t-47.5 19t-19.5 46z" />
    <glyph glyph-name="copyright" unicode="&#xa9;" horiz-adv-x="800" 
d="M773 359q0 -155 -107 -265q-106 -108 -266 -108q-162 0 -268 108q-106 107 -106 265q0 155 108 264q109 109 266 109t265 -109t108 -264zM690 359q0 125 -84 210q-84 86 -206 86q-124 0 -208 -85q-83 -86 -83 -211q0 -128 82 -213q83 -86 209 -86q125 0 208 86
q82 85 82 213zM404 574q68 0 109.5 -39t41.5 -105q-83 -12 -91 -13q4 36 -11 56.5t-47 20.5q-41 0 -63 -40t-22 -104q0 -156 88 -156q35 0 51 29t10 70l91 -15q-3 -74 -44.5 -113.5t-114.5 -39.5q-173 0 -173 224q0 107 44.5 166t130.5 59z" />
    <glyph glyph-name="ordfeminine" unicode="&#xaa;" horiz-adv-x="347" 
d="M346 314l-9 -61q-27 -11 -51 -11q-54 0 -63 55q-14 -24 -41 -40t-56 -16q-52 0 -81 28t-29 76q0 55 45 84q19 13 48 21q39 11 106 16v25q0 47 -48 47q-50 0 -50 -58q-70 20 -83 23q19 102 137 102q74 0 105 -33.5t31 -107.5v-116q0 -16 7 -27t16 -11q5 0 16 4zM215 375
v33q-39 -5 -68 -14q-39 -12 -39 -44q0 -20 12.5 -31.5t32.5 -11.5q62 0 62 68z" />
    <glyph glyph-name="guillemotleft" unicode="&#xab;" horiz-adv-x="505" 
d="M425 143l33 -52h-104l-114 183l114 181h104l-115 -181q8 -15 32 -52q40 -62 50 -79zM157 274l113 -183h-103q-2 3 -8.5 13t-20 32.5t-26.5 42.5l-57 95l113 181h105z" />
    <glyph glyph-name="logicalnot" unicode="&#xac;" 
d="M501 73h-90v205h-371v92h461v-297z" />
    <glyph glyph-name="sfthyphen" unicode="&#xad;" horiz-adv-x="331" 
d="M295 323v-93h-260v93h260z" />
    <glyph glyph-name="registered" unicode="&#xae;" horiz-adv-x="649" 
d="M511 300q-79 -77 -188 -77t-188 77q-78 78 -78 188t78 187q78 78 188 78t188 -78q79 -76 79 -187q0 -110 -79 -188zM526 489q0 87 -59 146t-144 59q-86 0 -145 -59q-58 -58 -58 -147t58 -148q59 -59 145 -59q85 0 144 59q59 61 59 149zM369 465l70 -125h-67l-31 58
l-32 58h-20v-116h-61v296h103q46 0 73.5 -23t27.5 -66q0 -29 -16 -51.5t-47 -30.5zM322 585h-33v-78h32q49 0 49 38q0 40 -48 40z" />
    <glyph glyph-name="overscore" unicode="&#xaf;" horiz-adv-x="505" 
d="M398 700v-84h-279v84h279z" />
    <glyph glyph-name="degree" unicode="&#xb0;" horiz-adv-x="400" 
d="M348 561q0 -61 -44 -105t-104 -44q-63 0 -106 43t-43 106q0 62 43 105q44 44 106 44q63 0 105 -44q43 -43 43 -105zM286 560q0 36 -25 61.5t-62 25.5q-36 0 -61 -25t-25 -62q1 -37 25 -61.5t61 -24.5t62 24.5t25 61.5z" />
    <glyph glyph-name="plusminus" unicode="&#xb1;" 
d="M504 93v-93h-462v93h462zM503 432v-92h-185v-191h-92v191h-185v92h185v191h92v-191h185z" />
    <glyph glyph-name="twosuperior" unicode="&#xb2;" horiz-adv-x="368" 
d="M333 663q0 -66 -55 -136q-54 -71 -128 -122q22 2 41 2h154l-15 -67h-305v66q109 73 162.5 134.5t53.5 126.5q0 32 -20 51t-44 19q-31 0 -46.5 -20.5t-15.5 -54.5q0 -18 6 -35l-92 19q0 74 41 116.5t110 42.5t111 -37.5t42 -104.5z" />
    <glyph glyph-name="threesuperior" unicode="&#xb3;" horiz-adv-x="368" 
d="M178 804q68 0 110 -32t42 -90q0 -33 -19.5 -60t-51.5 -40q38 -10 59.5 -40t21.5 -72q0 -63 -46.5 -101.5t-119.5 -38.5q-72 0 -114 36.5t-44 100.5q33 5 98 18q-9 -30 8 -59q18 -27 53 -27q30 0 50.5 21t20.5 54t-21.5 52.5t-57.5 19.5h-28v65h28q32 0 51.5 18t19.5 45
t-17 43.5t-44 16.5q-32 0 -49.5 -23t-8.5 -55l-93 16q1 60 42 96t110 36z" />
    <glyph glyph-name="acute" unicode="&#xb4;" horiz-adv-x="505" 
d="M286 749h120l-136 -163h-73z" />
    <glyph glyph-name="mu" unicode="&#xb5;" horiz-adv-x="526" 
d="M474 0h-114q-3 51 -3 68l-2 -1q-47 -80 -129 -80q-36 0 -55 13v-179q-34 -5 -58 -8t-58 -8v705l115 15v-345q0 -105 85 -105q46 0 72 34t26 87v323h118v-409q0 -86 3 -110z" />
    <glyph glyph-name="mu" unicode="&#x3bc;" horiz-adv-x="526" 
d="M474 0h-114q-3 51 -3 68l-2 -1q-47 -80 -129 -80q-36 0 -55 13v-179q-34 -5 -58 -8t-58 -8v705l115 15v-345q0 -105 85 -105q46 0 72 34t26 87v323h118v-409q0 -86 3 -110z" />
    <glyph glyph-name="paragraph" unicode="&#xb6;" horiz-adv-x="545" 
d="M285 653v-731h-94v447q-76 2 -127 53q-51 52 -51 129q0 73 55 128t142 55h318v-81h-70v-731h-94v731h-79z" />
    <glyph glyph-name="middot" unicode="&#xb7;" horiz-adv-x="259" 
d="M57 282q0 32 20.5 53t51.5 21t52 -21t21 -52t-21 -51.5t-52 -20.5t-51.5 20.5t-20.5 50.5z" />
    <glyph glyph-name="cedilla" unicode="&#xb8;" horiz-adv-x="489" 
d="M287 27l-49 -81q43 -5 70 -26t27 -51q0 -39 -31.5 -60.5t-79.5 -21.5q-47 0 -89 16q-9 44 -9 46q33 -16 78 -16q53 0 53 37t-64 41l-12 14l60 101q11 1 46 1z" />
    <glyph glyph-name="onesuperior" unicode="&#xb9;" horiz-adv-x="368" 
d="M337 340h-285v67h101v297q-52 -34 -100 -53l-24 63q63 33 135 85h81v-392h106z" />
    <glyph glyph-name="ordmasculine" unicode="&#xba;" horiz-adv-x="365" 
d="M182 605q80 0 121.5 -48t41.5 -135q0 -85 -42 -133t-121 -48q-80 0 -121.5 48t-41.5 133q0 86 42 134.5t121 48.5zM182 309q69 0 69 113t-69 113t-69 -113t69 -113z" />
    <glyph glyph-name="guillemotright" unicode="&#xbb;" horiz-adv-x="505" 
d="M343 455l113 -181l-113 -182h-103l113 182l-116 181h106zM157 455l114 -181l-115 -182h-103l115 182l-115 181h104z" />
    <glyph glyph-name="onequarter" unicode="&#xbc;" horiz-adv-x="928" 
d="M864 167v-70h-61v-97h-88v97h-195v65l199 303q19 -1 84 -8v-290h61zM604 167h111v170q-86 -137 -111 -170zM349 250h-285v67h101v297q-52 -34 -100 -53l-24 63q63 33 135 85h81v-392h106zM656 719h82l-409 -732h-83z" />
    <glyph glyph-name="onehalf" unicode="&#xbd;" horiz-adv-x="928" 
d="M876 323q0 -66 -55 -136q-54 -71 -128 -122q22 2 41 2h154l-15 -67h-305v66q109 73 162.5 134.5t53.5 126.5q0 32 -20 51t-44 19q-31 0 -46.5 -20.5t-15.5 -54.5q0 -18 6 -35l-92 19q0 74 41 116.5t110 42.5t111 -37.5t42 -104.5zM343 250h-285v67h101v297
q-52 -34 -100 -53l-24 63q63 33 135 85h81v-392h106zM633 719h82l-409 -732h-83z" />
    <glyph glyph-name="threequarters" unicode="&#xbe;" horiz-adv-x="928" 
d="M220 714q68 0 110 -32t42 -90q0 -33 -19.5 -60t-51.5 -40q38 -10 59.5 -40t21.5 -72q0 -63 -46.5 -101.5t-119.5 -38.5q-72 0 -114 36.5t-44 100.5q33 5 98 18q-9 -30 8 -59q18 -27 53 -27q30 0 50.5 21t20.5 54t-21.5 52.5t-57.5 19.5h-28v65h28q32 0 51.5 18t19.5 45
t-17 43.5t-44 16.5q-32 0 -49.5 -23t-8.5 -55l-93 16q1 60 42 96t110 36zM870 167v-70h-61v-97h-88v97h-195v65l199 303q19 -1 84 -8v-290h61zM610 167h111v170q-86 -137 -111 -170zM656 719h82l-409 -732h-83z" />
    <glyph glyph-name="questiondown" unicode="&#xbf;" horiz-adv-x="494" 
d="M42 -21q0 47 21.5 86t73.5 92t66 76q15 24 15 60v38h104v-51q0 -39 -15 -69.5t-54 -74.5q-48 -54 -69 -87.5t-21 -64.5q0 -50 27 -75.5t72 -25.5t72 30t28 76q0 20 -3 31q4 -1 53 -12t57 -12q-4 -95 -61.5 -149.5t-151.5 -54.5q-97 0 -155.5 49.5t-58.5 137.5zM272 389
q-30 0 -50.5 20.5t-20.5 50.5t20.5 50.5t50.5 20.5q29 0 49.5 -20.5t20.5 -49.5q0 -30 -20.5 -51t-49.5 -21z" />
    <glyph glyph-name="Agrave" unicode="&#xc0;" horiz-adv-x="627" 
d="M382 718l235 -718h-123q-11 30 -54 170h-257l-53 -170h-122l234 718h140zM210 267h202l-66 219l-33 119h-3l-33 -118zM349 775h-73l-127 160h120z" />
    <glyph glyph-name="Aacute" unicode="&#xc1;" horiz-adv-x="627" 
d="M382 718l235 -718h-123q-11 30 -54 170h-257l-53 -170h-122l234 718h140zM210 267h202l-66 219l-33 119h-3l-33 -118zM348 935h120l-127 -160h-73z" />
    <glyph glyph-name="Acircumflex" unicode="&#xc2;" horiz-adv-x="627" 
d="M382 718l235 -718h-123q-11 30 -54 170h-257l-53 -170h-122l234 718h140zM210 267h202l-66 219l-33 119h-3l-33 -118zM363 915l118 -137h-84l-87 78l-86 -78h-81l116 137h104z" />
    <glyph glyph-name="Atilde" unicode="&#xc3;" horiz-adv-x="627" 
d="M382 718l235 -718h-123q-11 30 -54 170h-257l-53 -170h-122l234 718h140zM210 267h202l-66 219l-33 119h-3l-33 -118zM427 911l46 -44q-10 -30 -32 -50t-52 -20q-26 0 -71 16t-66 16q-37 0 -52 -38l-51 39q10 30 35 52.5t55 22.5q28 0 72 -16q45 -14 65 -16q37 0 51 38z
" />
    <glyph glyph-name="Adieresis" unicode="&#xc4;" horiz-adv-x="627" 
d="M382 718l235 -718h-123q-11 30 -54 170h-257l-53 -170h-122l234 718h140zM210 267h202l-66 219l-33 119h-3l-33 -118zM284 853q0 -29 -19 -48t-47 -19t-47.5 19t-19.5 46q0 29 19.5 48.5t47.5 19.5t47 -19t19 -47zM471 854q0 -29 -18.5 -48t-47.5 -19q-28 0 -47.5 19
t-19.5 46q0 28 19.5 47.5t47.5 19.5t47 -19t19 -46z" />
    <glyph glyph-name="Aring" unicode="&#xc5;" horiz-adv-x="627" 
d="M382 718l235 -718h-123q-11 30 -54 170h-257l-53 -170h-122l234 718h140zM418 855q0 -42 -32 -74q-32 -30 -75 -30t-75 30q-31 31 -31 74q0 44 30.5 75t75.5 31t76 -30.5t31 -75.5zM210 267h202l-66 219l-33 119h-3l-33 -118zM311 908q-34 0 -47.5 -33t10.5 -56
q25 -23 57 -10.5t32 46.5q0 22 -15 37.5t-37 15.5z" />
    <glyph glyph-name="AE" unicode="&#xc6;" horiz-adv-x="965" 
d="M930 97v-97h-442v171h-265l-99 -171h-129l426 718h498l-25 -97h-283v-201h265v-97h-265v-226h319zM278 267h211v354h-5z" />
    <glyph glyph-name="Ccedilla" unicode="&#xc7;" horiz-adv-x="615" 
d="M446 249l128 -26q-12 -225 -230 -237l-26 -44q43 -5 70 -26t27 -51q0 -39 -31.5 -60.5t-79.5 -21.5q-47 0 -89 16q-9 44 -9 46q33 -16 78 -16q53 0 53 37t-64 41l-12 14l38 65q-131 7 -192.5 99.5t-61.5 274.5q0 372 283 372q107 0 172 -59t66 -157l-127 -20
q9 64 -21.5 103t-92.5 39q-153 0 -153 -280q0 -138 36.5 -207t118.5 -69q65 0 95 45.5t24 121.5z" />
    <glyph glyph-name="Egrave" unicode="&#xc8;" horiz-adv-x="541" 
d="M508 97v-97h-445v718h434l-26 -97h-285v-200h268v-97h-268v-227h322zM339 775h-73l-127 160h120z" />
    <glyph glyph-name="Eacute" unicode="&#xc9;" horiz-adv-x="541" 
d="M508 97v-97h-445v718h434l-26 -97h-285v-200h268v-97h-268v-227h322zM297 935h120l-127 -160h-73z" />
    <glyph glyph-name="Ecircumflex" unicode="&#xca;" horiz-adv-x="541" 
d="M508 97v-97h-445v718h434l-26 -97h-285v-200h268v-97h-268v-227h322zM329 915l118 -137h-84l-87 78l-86 -78h-81l116 137h104z" />
    <glyph glyph-name="Edieresis" unicode="&#xcb;" horiz-adv-x="541" 
d="M508 97v-97h-445v718h434l-26 -97h-285v-200h268v-97h-268v-227h322zM252 853q0 -29 -19 -48t-47 -19t-47.5 19t-19.5 46q0 29 19.5 48.5t47.5 19.5t47 -19t19 -47zM439 854q0 -29 -18.5 -48t-47.5 -19q-28 0 -47.5 19t-19.5 46q0 28 19.5 47.5t47.5 19.5t47 -19t19 -46z
" />
    <glyph glyph-name="Igrave" unicode="&#xcc;" horiz-adv-x="263" 
d="M170 775h-73l-127 160h120zM192 718v-718h-122v718h122z" />
    <glyph glyph-name="Iacute" unicode="&#xcd;" horiz-adv-x="263" 
d="M173 935h120l-127 -160h-73zM192 718v-718h-122v718h122z" />
    <glyph glyph-name="Icircumflex" unicode="&#xce;" horiz-adv-x="263" 
d="M185 915l118 -137h-84l-87 78l-86 -78h-81l116 137h104zM192 718v-718h-122v718h122z" />
    <glyph glyph-name="Idieresis" unicode="&#xcf;" horiz-adv-x="263" 
d="M107 853q0 -29 -19 -48t-47 -19t-47.5 19t-19.5 46q0 29 19.5 48.5t47.5 19.5t47 -19t19 -47zM294 854q0 -29 -18.5 -48t-47.5 -19q-28 0 -47.5 19t-19.5 46q0 28 19.5 47.5t47.5 19.5t47 -19t19 -46zM192 718v-718h-122v718h122z" />
    <glyph glyph-name="Eth" unicode="&#xd0;" horiz-adv-x="650" 
d="M63 718h212q164 0 244.5 -88.5t80.5 -271.5q0 -184 -79 -271t-245 -87h-213v323h-63v80h63v315zM259 622h-74v-219h115v-80h-115v-228h88q107 0 154 64t47 202q0 136 -51 198.5t-164 62.5z" />
    <glyph glyph-name="Ntilde" unicode="&#xd1;" horiz-adv-x="658" 
d="M596 718v-718h-122l-241 416q-41 71 -55 107h-2q5 -97 5 -119v-404h-118v718h125l227 -398q48 -88 63 -123h2q-3 53 -3 128v393h119zM460 908l46 -44q-10 -30 -32 -50t-52 -20q-26 0 -71 16t-66 16q-37 0 -52 -38l-51 39q10 30 35 52.5t55 22.5q28 0 72 -16
q45 -14 65 -16q37 0 51 38z" />
    <glyph glyph-name="Ograve" unicode="&#xd2;" horiz-adv-x="679" 
d="M631 359q0 -180 -72.5 -276.5t-218.5 -96.5q-292 0 -292 373q0 181 72 277t219 96t219.5 -96t72.5 -277zM505 358q0 280 -165 280q-166 0 -166 -279t165 -279q166 0 166 278zM398 775h-73l-127 160h120z" />
    <glyph glyph-name="Oacute" unicode="&#xd3;" horiz-adv-x="679" 
d="M631 359q0 -180 -72.5 -276.5t-218.5 -96.5q-292 0 -292 373q0 181 72 277t219 96t219.5 -96t72.5 -277zM505 358q0 280 -165 280q-166 0 -166 -279t165 -279q166 0 166 278zM372 935h120l-127 -160h-73z" />
    <glyph glyph-name="Ocircumflex" unicode="&#xd4;" horiz-adv-x="679" 
d="M631 359q0 -180 -72.5 -276.5t-218.5 -96.5q-292 0 -292 373q0 181 72 277t219 96t219.5 -96t72.5 -277zM505 358q0 280 -165 280q-166 0 -166 -279t165 -279q166 0 166 278zM387 915l118 -137h-84l-87 78l-86 -78h-81l116 137h104z" />
    <glyph glyph-name="Otilde" unicode="&#xd5;" horiz-adv-x="679" 
d="M631 359q0 -180 -72.5 -276.5t-218.5 -96.5q-292 0 -292 373q0 181 72 277t219 96t219.5 -96t72.5 -277zM505 358q0 280 -165 280q-166 0 -166 -279t165 -279q166 0 166 278zM459 911l46 -44q-10 -30 -32 -50t-52 -20q-26 0 -71 16t-66 16q-37 0 -52 -38l-51 39
q10 30 35 52.5t55 22.5q28 0 72 -16q45 -14 65 -16q37 0 51 38z" />
    <glyph glyph-name="Odieresis" unicode="&#xd6;" horiz-adv-x="679" 
d="M631 359q0 -180 -72.5 -276.5t-218.5 -96.5q-292 0 -292 373q0 181 72 277t219 96t219.5 -96t72.5 -277zM505 358q0 280 -165 280q-166 0 -166 -279t165 -279q166 0 166 278zM312 853q0 -29 -19 -48t-47 -19t-47.5 19t-19.5 46q0 29 19.5 48.5t47.5 19.5t47 -19t19 -47z
M499 854q0 -29 -18.5 -48t-47.5 -19q-28 0 -47.5 19t-19.5 46q0 28 19.5 47.5t47.5 19.5t47 -19t19 -46z" />
    <glyph glyph-name="multiply" unicode="&#xd7;" 
d="M502 85l-66 -66l-166 167l-166 -167l-65 66l166 166l-166 166l65 66l166 -167l166 167l65 -66l-166 -166z" />
    <glyph glyph-name="Oslash" unicode="&#xd8;" horiz-adv-x="679" 
d="M340 -14q-122 0 -190 64l-36 -50h-65l65 89q-66 95 -66 270q0 181 72 277t219 96q117 0 188 -63l36 49h65l-65 -89q68 -95 68 -270q0 -180 -72.5 -276.5t-218.5 -96.5zM174 359q0 -95 20 -158l265 374q-39 63 -119 63q-166 0 -166 -279zM505 358q0 97 -22 159l-266 -373
q40 -64 122 -64q166 0 166 278z" />
    <glyph glyph-name="Ugrave" unicode="&#xd9;" horiz-adv-x="644" 
d="M459 718h123v-479q0 -122 -68 -188t-192 -66q-125 0 -193 65.5t-68 188.5v479h122v-474q0 -78 35 -121t103 -43q69 0 103.5 42.5t34.5 121.5v474zM380 775h-73l-127 160h120z" />
    <glyph glyph-name="Uacute" unicode="&#xda;" horiz-adv-x="644" 
d="M459 718h123v-479q0 -122 -68 -188t-192 -66q-125 0 -193 65.5t-68 188.5v479h122v-474q0 -78 35 -121t103 -43q69 0 103.5 42.5t34.5 121.5v474zM347 935h120l-127 -160h-73z" />
    <glyph glyph-name="Ucircumflex" unicode="&#xdb;" horiz-adv-x="644" 
d="M459 718h123v-479q0 -122 -68 -188t-192 -66q-125 0 -193 65.5t-68 188.5v479h122v-474q0 -78 35 -121t103 -43q69 0 103.5 42.5t34.5 121.5v474zM373 915l118 -137h-84l-87 78l-86 -78h-81l116 137h104z" />
    <glyph glyph-name="Udieresis" unicode="&#xdc;" horiz-adv-x="644" 
d="M459 718h123v-479q0 -122 -68 -188t-192 -66q-125 0 -193 65.5t-68 188.5v479h122v-474q0 -78 35 -121t103 -43q69 0 103.5 42.5t34.5 121.5v474zM300 853q0 -29 -19 -48t-47 -19t-47.5 19t-19.5 46q0 29 19.5 48.5t47.5 19.5t47 -19t19 -47zM487 854q0 -29 -18.5 -48
t-47.5 -19q-28 0 -47.5 19t-19.5 46q0 28 19.5 47.5t47.5 19.5t47 -19t19 -46z" />
    <glyph glyph-name="Yacute" unicode="&#xdd;" horiz-adv-x="577" 
d="M443 718h129l-223 -437v-281h-122v280l-223 438h140l106 -231q24 -56 42 -104q1 15 43 103zM333 935h120l-127 -160h-73z" />
    <glyph glyph-name="Thorn" unicode="&#xde;" horiz-adv-x="567" 
d="M540 368q0 -104 -73 -165q-72 -60 -195 -60h-87v-143h-121v718h121v-125h112q108 0 175 -58q68 -57 68 -167zM413 369q0 128 -137 128h-91v-257h93q63 0 99 31.5t36 97.5z" />
    <glyph glyph-name="germandbls" unicode="&#xdf;" horiz-adv-x="540" 
d="M260 -9l-18 87q21 -4 35 -4q103 0 103 147q0 69 -31.5 110.5t-94.5 41.5v75q41 0 65 29t24 73q0 42 -24 69t-62 27q-44 0 -67 -34.5t-23 -89.5v-522h-115v467q0 140 49 206t156 66q95 0 147 -51q53 -50 53 -126q0 -103 -87 -142q130 -55 130 -207q0 -103 -54.5 -164
t-149.5 -61q-18 0 -36 3z" />
    <glyph glyph-name="agrave" unicode="&#xe0;" horiz-adv-x="502" 
d="M496 81l-14 -79q-31 -14 -65 -14q-85 0 -89 78h-2q-39 -80 -148 -80q-71 0 -110.5 40.5t-39.5 112.5q0 107 99 145q80 31 194 37v44q0 38 -20.5 61t-61.5 23q-42 0 -64 -23.5t-18 -67.5q-34 10 -105 31q11 72 61 108t132 36q100 0 145.5 -50.5t45.5 -163.5v-210
q0 -35 30 -35q15 0 30 7zM321 193v58l-36 -5q-52 -9 -77 -20q-64 -30 -64 -80q0 -38 20 -58.5t54 -20.5q49 0 76 35.5t27 90.5zM315 586h-73l-134 161h119z" />
    <glyph glyph-name="aacute" unicode="&#xe1;" horiz-adv-x="502" 
d="M496 81l-14 -79q-31 -14 -65 -14q-85 0 -89 78h-2q-39 -80 -148 -80q-71 0 -110.5 40.5t-39.5 112.5q0 107 99 145q80 31 194 37v44q0 38 -20.5 61t-61.5 23q-42 0 -64 -23.5t-18 -67.5q-34 10 -105 31q11 72 61 108t132 36q100 0 145.5 -50.5t45.5 -163.5v-210
q0 -35 30 -35q15 0 30 7zM321 193v58l-36 -5q-52 -9 -77 -20q-64 -30 -64 -80q0 -38 20 -58.5t54 -20.5q49 0 76 35.5t27 90.5zM281 749h120l-136 -163h-73z" />
    <glyph glyph-name="acircumflex" unicode="&#xe2;" horiz-adv-x="502" 
d="M496 81l-14 -79q-31 -14 -65 -14q-85 0 -89 78h-2q-39 -80 -148 -80q-71 0 -110.5 40.5t-39.5 112.5q0 107 99 145q80 31 194 37v44q0 38 -20.5 61t-61.5 23q-42 0 -64 -23.5t-18 -67.5q-34 10 -105 31q11 72 61 108t132 36q100 0 145.5 -50.5t45.5 -163.5v-210
q0 -35 30 -35q15 0 30 7zM321 193v58l-36 -5q-52 -9 -77 -20q-64 -30 -64 -80q0 -38 20 -58.5t54 -20.5q49 0 76 35.5t27 90.5zM299 735l118 -150h-84l-87 91l-86 -91h-81l116 150h104z" />
    <glyph glyph-name="atilde" unicode="&#xe3;" horiz-adv-x="502" 
d="M496 81l-14 -79q-31 -14 -65 -14q-85 0 -89 78h-2q-39 -80 -148 -80q-71 0 -110.5 40.5t-39.5 112.5q0 107 99 145q80 31 194 37v44q0 38 -20.5 61t-61.5 23q-42 0 -64 -23.5t-18 -67.5q-34 10 -105 31q11 72 61 108t132 36q100 0 145.5 -50.5t45.5 -163.5v-210
q0 -35 30 -35q15 0 30 7zM321 193v58l-36 -5q-52 -9 -77 -20q-64 -30 -64 -80q0 -38 20 -58.5t54 -20.5q49 0 76 35.5t27 90.5zM371 725l46 -44q-10 -30 -32 -50t-52 -20q-26 0 -71 16t-66 16q-37 0 -52 -38l-51 39q10 30 35 52.5t55 22.5q28 0 72 -16q45 -14 65 -16
q37 0 51 38z" />
    <glyph glyph-name="adieresis" unicode="&#xe4;" horiz-adv-x="502" 
d="M496 81l-14 -79q-31 -14 -65 -14q-85 0 -89 78h-2q-39 -80 -148 -80q-71 0 -110.5 40.5t-39.5 112.5q0 107 99 145q80 31 194 37v44q0 38 -20.5 61t-61.5 23q-42 0 -64 -23.5t-18 -67.5q-34 10 -105 31q11 72 61 108t132 36q100 0 145.5 -50.5t45.5 -163.5v-210
q0 -35 30 -35q15 0 30 7zM321 193v58l-36 -5q-52 -9 -77 -20q-64 -30 -64 -80q0 -38 20 -58.5t54 -20.5q49 0 76 35.5t27 90.5zM152 734q28 0 47 -19t19 -46q0 -29 -19 -48t-47 -19q-29 0 -48 19t-19 46q0 28 19 47.5t48 19.5zM272 667q0 29 19.5 48.5t47.5 19.5t47 -19
t19 -47t-19 -47.5t-47 -19.5t-47.5 19t-19.5 46z" />
    <glyph glyph-name="aring" unicode="&#xe5;" horiz-adv-x="502" 
d="M496 81l-14 -79q-31 -14 -65 -14q-85 0 -89 78h-2q-39 -80 -148 -80q-71 0 -110.5 40.5t-39.5 112.5q0 107 99 145q80 31 194 37v44q0 38 -20.5 61t-61.5 23q-42 0 -64 -23.5t-18 -67.5q-34 10 -105 31q11 72 61 108t132 36q100 0 145.5 -50.5t45.5 -163.5v-210
q0 -35 30 -35q15 0 30 7zM321 193v58l-36 -5q-52 -9 -77 -20q-64 -30 -64 -80q0 -38 20 -58.5t54 -20.5q49 0 76 35.5t27 90.5zM361 677q0 -42 -32 -74q-31 -30 -75 -30t-75 30q-31 31 -31 74q0 44 30.5 75t75.5 31q46 0 76.5 -30.5t30.5 -75.5zM254 730q-34 0 -47.5 -33
t10.5 -56q23 -25 57 -11t32 47q0 22 -15 37.5t-37 15.5z" />
    <glyph glyph-name="ae" unicode="&#xe6;" horiz-adv-x="794" 
d="M758 237h-315q0 -166 104 -166q39 0 63 25.5t24 67.5v10l113 -21q-8 -78 -60.5 -122.5t-138.5 -44.5q-123 0 -177 99q-55 -99 -185 -99q-76 0 -117 40.5t-41 112.5q0 171 293 173v54q0 35 -21 58.5t-62 23.5q-42 0 -62.5 -25.5t-18.5 -64.5l-107 31q11 71 62 107.5
t133 36.5q109 0 151 -65q56 66 149 66q213 0 213 -297zM321 193v44q-177 0 -177 -91q0 -38 20 -58.5t54 -20.5q49 0 76 35.5t27 90.5zM445 312h196q-3 136 -98 136q-43 0 -70 -41q-27 -42 -28 -95z" />
    <glyph glyph-name="ccedilla" unicode="&#xe7;" horiz-adv-x="485" 
d="M344 187l115 -15q-5 -86 -57.5 -136t-140.5 -51l-23 -39q43 -5 70 -26t27 -51q0 -39 -31.5 -60.5t-79.5 -21.5q-47 0 -89 16q-9 44 -9 46q33 -16 78 -16q53 0 53 37t-64 41l-12 14l37 63q-90 12 -136.5 81.5t-46.5 189.5q0 128 57 201t162 73q88 0 141 -49.5t53 -133.5
l-113 -16q6 52 -16 82t-63 30q-48 0 -75.5 -50t-26.5 -134q0 -190 111 -190q40 0 61.5 30t17.5 85z" />
    <glyph glyph-name="egrave" unicode="&#xe8;" horiz-adv-x="503" 
d="M468 237h-315q0 -166 104 -166q44 0 67.5 28t19.5 75l113 -21q-8 -78 -60.5 -123t-138.5 -45q-113 0 -168 72.5t-55 203.5q0 53 11.5 99.5t36 86.5t68.5 63.5t104 23.5q215 0 213 -297zM155 314h196q-3 135 -98 135q-44 0 -70 -41q-27 -42 -28 -94zM305 586h-73l-134 161
h119z" />
    <glyph glyph-name="eacute" unicode="&#xe9;" horiz-adv-x="503" 
d="M468 237h-315q0 -166 104 -166q44 0 67.5 28t19.5 75l113 -21q-8 -78 -60.5 -123t-138.5 -45q-113 0 -168 72.5t-55 203.5q0 53 11.5 99.5t36 86.5t68.5 63.5t104 23.5q215 0 213 -297zM155 314h196q-3 135 -98 135q-44 0 -70 -41q-27 -42 -28 -94zM286 749h120
l-136 -163h-73z" />
    <glyph glyph-name="ecircumflex" unicode="&#xea;" horiz-adv-x="503" 
d="M468 237h-315q0 -166 104 -166q44 0 67.5 28t19.5 75l113 -21q-8 -78 -60.5 -123t-138.5 -45q-113 0 -168 72.5t-55 203.5q0 53 11.5 99.5t36 86.5t68.5 63.5t104 23.5q215 0 213 -297zM155 314h196q-3 135 -98 135q-44 0 -70 -41q-27 -42 -28 -94zM311 735l118 -150h-84
l-87 91l-86 -91h-81l116 150h104z" />
    <glyph glyph-name="edieresis" unicode="&#xeb;" horiz-adv-x="503" 
d="M468 237h-315q0 -166 104 -166q44 0 67.5 28t19.5 75l113 -21q-8 -78 -60.5 -123t-138.5 -45q-113 0 -168 72.5t-55 203.5q0 53 11.5 99.5t36 86.5t68.5 63.5t104 23.5q215 0 213 -297zM155 314h196q-3 135 -98 135q-44 0 -70 -41q-27 -42 -28 -94zM167 734q28 0 47 -19
t19 -46q0 -29 -19 -48t-47 -19q-29 0 -48 19t-19 46q0 28 19 47.5t48 19.5zM287 667q0 29 19.5 48.5t47.5 19.5t47 -19t19 -47t-19 -47.5t-47 -19.5t-47.5 19t-19.5 46z" />
    <glyph glyph-name="igrave" unicode="&#xec;" horiz-adv-x="237" 
d="M176 526v-526h-116v514zM175 586h-73l-134 161h119z" />
    <glyph glyph-name="iacute" unicode="&#xed;" horiz-adv-x="237" 
d="M162 749h120l-136 -163h-73zM176 526v-526h-116v514z" />
    <glyph glyph-name="icircumflex" unicode="&#xee;" horiz-adv-x="237" 
d="M173 735l118 -150h-84l-87 91l-86 -91h-81l116 150h104zM176 526v-526h-116v514z" />
    <glyph glyph-name="idieresis" unicode="&#xef;" horiz-adv-x="237" 
d="M25 734q28 0 47 -19t19 -46q0 -29 -19 -48t-47 -19q-29 0 -48 19t-19 46q0 28 19 47.5t48 19.5zM145 667q0 29 19.5 48.5t47.5 19.5t47 -19t19 -47t-19 -47.5t-47 -19.5t-47.5 19t-19.5 46zM176 526v-526h-116v514z" />
    <glyph glyph-name="eth" unicode="&#xf0;" horiz-adv-x="531" 
d="M211 559l-31 39l63 47q-48 42 -101 67l88 52q43 -25 88 -62l67 51l33 -40l-61 -46q138 -139 138 -391q0 -59 -12 -109t-37.5 -91.5t-70.5 -65.5t-106 -24q-113 0 -173.5 71t-60.5 202q0 128 60 198t164 70q63 0 93 -35l3 2q-21 59 -75 116zM377 259q0 179 -112 179
q-111 0 -111 -179q0 -188 111 -188q112 0 112 188z" />
    <glyph glyph-name="ntilde" unicode="&#xf1;" horiz-adv-x="533" 
d="M476 363v-363h-116v336q0 104 -86 104q-47 0 -73.5 -35.5t-26.5 -90.5v-314h-116v386q0 78 -6 125l114 15q4 -31 5 -74h2q47 81 144 81q78 0 118.5 -46t40.5 -124zM374 725l46 -44q-10 -30 -32 -50t-52 -20q-26 0 -71 16t-66 16q-37 0 -52 -38l-51 39q10 30 35 52.5
t55 22.5q28 0 72 -16q45 -14 65 -16q37 0 51 38z" />
    <glyph glyph-name="ograve" unicode="&#xf2;" horiz-adv-x="531" 
d="M265 533q113 0 172 -71.5t59 -201.5t-59.5 -202.5t-171.5 -72.5q-113 0 -171.5 72t-58.5 202t59 201.5t171 72.5zM265 71q111 0 111 188t-111 188t-111 -188t111 -188zM322 586h-73l-134 161h119z" />
    <glyph glyph-name="oacute" unicode="&#xf3;" horiz-adv-x="531" 
d="M265 533q113 0 172 -71.5t59 -201.5t-59.5 -202.5t-171.5 -72.5q-113 0 -171.5 72t-58.5 202t59 201.5t171 72.5zM265 71q111 0 111 188t-111 188t-111 -188t111 -188zM314 749h120l-136 -163h-73z" />
    <glyph glyph-name="ocircumflex" unicode="&#xf4;" horiz-adv-x="531" 
d="M265 533q113 0 172 -71.5t59 -201.5t-59.5 -202.5t-171.5 -72.5q-113 0 -171.5 72t-58.5 202t59 201.5t171 72.5zM265 71q111 0 111 188t-111 188t-111 -188t111 -188zM315 735l118 -150h-84l-87 91l-86 -91h-81l116 150h104z" />
    <glyph glyph-name="otilde" unicode="&#xf5;" horiz-adv-x="531" 
d="M265 533q113 0 172 -71.5t59 -201.5t-59.5 -202.5t-171.5 -72.5q-113 0 -171.5 72t-58.5 202t59 201.5t171 72.5zM265 71q111 0 111 188t-111 188t-111 -188t111 -188zM382 725l46 -44q-10 -30 -32 -50t-52 -20q-26 0 -71 16t-66 16q-37 0 -52 -38l-51 39q10 30 35 52.5
t55 22.5q28 0 72 -16q45 -14 65 -16q37 0 51 38z" />
    <glyph glyph-name="odieresis" unicode="&#xf6;" horiz-adv-x="531" 
d="M265 533q113 0 172 -71.5t59 -201.5t-59.5 -202.5t-171.5 -72.5q-113 0 -171.5 72t-58.5 202t59 201.5t171 72.5zM265 71q111 0 111 188t-111 188t-111 -188t111 -188zM174 734q28 0 47 -19t19 -46q0 -29 -19 -48t-47 -19q-29 0 -48 19t-19 46q0 28 19 47.5t48 19.5z
M294 667q0 29 19.5 48.5t47.5 19.5t47 -19t19 -47t-19 -47.5t-47 -19.5t-47.5 19t-19.5 46z" />
    <glyph glyph-name="divide" unicode="&#xf7;" horiz-adv-x="553" 
d="M206 449q0 30 21 50.5t51 20.5q29 0 49.5 -20.5t20.5 -50.5q0 -29 -20.5 -50t-49.5 -21t-50.5 21t-21.5 50zM227 -3q-21 21 -21 50t21 50q22 21 51 21t49 -21q21 -21 21 -50t-21 -50q-20 -21 -49 -21t-51 21zM507 296v-93l-462 1v92h462z" />
    <glyph glyph-name="oslash" unicode="&#xf8;" horiz-adv-x="531" 
d="M265 533q91 0 149 -49l26 35h61l-54 -71q49 -71 49 -188q0 -130 -59.5 -202.5t-171.5 -72.5q-85 0 -141 42l-20 -27h-62l48 61q-55 68 -55 198t59 201.5t171 72.5zM154 259q0 -63 12 -99l182 240q-29 47 -83 47q-111 0 -111 -188zM376 259q0 52 -10 86l-178 -236
q29 -38 77 -38q111 0 111 188z" />
    <glyph glyph-name="ugrave" unicode="&#xf9;" horiz-adv-x="528" 
d="M474 0h-114q-3 22 -3 67l-2 -1q-44 -80 -144 -80q-77 0 -117 45.5t-40 123.5v355l116 15v-345q0 -50 22 -78t64 -28q46 0 72 34.5t26 88.5v322h117v-410q0 -89 3 -109zM321 586h-73l-134 161h119z" />
    <glyph glyph-name="uacute" unicode="&#xfa;" horiz-adv-x="528" 
d="M474 0h-114q-3 22 -3 67l-2 -1q-44 -80 -144 -80q-77 0 -117 45.5t-40 123.5v355l116 15v-345q0 -50 22 -78t64 -28q46 0 72 34.5t26 88.5v322h117v-410q0 -89 3 -109zM296 749h120l-136 -163h-73z" />
    <glyph glyph-name="ucircumflex" unicode="&#xfb;" horiz-adv-x="528" 
d="M474 0h-114q-3 22 -3 67l-2 -1q-44 -80 -144 -80q-77 0 -117 45.5t-40 123.5v355l116 15v-345q0 -50 22 -78t64 -28q46 0 72 34.5t26 88.5v322h117v-410q0 -89 3 -109zM314 735l118 -150h-84l-87 91l-86 -91h-81l116 150h104z" />
    <glyph glyph-name="udieresis" unicode="&#xfc;" horiz-adv-x="528" 
d="M474 0h-114q-3 22 -3 67l-2 -1q-44 -80 -144 -80q-77 0 -117 45.5t-40 123.5v355l116 15v-345q0 -50 22 -78t64 -28q46 0 72 34.5t26 88.5v322h117v-410q0 -89 3 -109zM291 667q0 29 19.5 48.5t47.5 19.5t47 -19t19 -47t-19 -47.5t-47 -19.5t-47.5 19t-19.5 46zM171 734
q28 0 47 -19t19 -46q0 -29 -19 -48t-47 -19q-29 0 -48 19t-19 46q0 28 19 47.5t48 19.5z" />
    <glyph glyph-name="yacute" unicode="&#xfd;" horiz-adv-x="471" 
d="M350 519h116l-154 -476l-22 -67q-9 -27 -21 -55q-14 -34 -26 -49q-47 -70 -117 -65q-20 0 -57 8l-22 88q17 -4 36 -4q36 0 55.5 13.5t32.5 45.5l13 33l-179 520l118 16l83 -288q20 -68 32 -123h3q7 43 29 117zM283 749h120l-136 -163h-73z" />
    <glyph glyph-name="thorn" unicode="&#xfe;" horiz-adv-x="537" 
d="M500 258q0 -129 -48 -200.5t-144 -71.5t-138 76h-3v-243q-2 0 -11.5 -1.5t-22.5 -3t-28 -2.5q-49 -5 -53 -6q-1 68 -1 605v319l117 15v-287l2 -1q48 76 135 76q97 0 146 -71.5t49 -203.5zM275 445q-108 0 -108 -183q0 -189 110 -189q55 0 79.5 46.5t24.5 141.5
q0 184 -106 184z" />
    <glyph glyph-name="ydieresis" unicode="&#xff;" horiz-adv-x="471" 
d="M350 519h116l-154 -476l-22 -67q-9 -27 -21 -55q-14 -34 -26 -49q-47 -70 -117 -65q-20 0 -57 8l-22 88q17 -4 36 -4q36 0 55.5 13.5t32.5 45.5l13 33l-179 520l118 16l83 -288q20 -68 32 -123h3q7 43 29 117zM151 734q28 0 47 -19t19 -46q0 -29 -19 -48t-47 -19
q-29 0 -48 19t-19 46q0 28 19 47.5t48 19.5zM271 667q0 29 19.5 48.5t47.5 19.5t47 -19t19 -47t-19 -47.5t-47 -19.5t-47.5 19t-19.5 46z" />
    <glyph glyph-name="Amacron" unicode="&#x100;" horiz-adv-x="627" 
d="M382 718l235 -718h-123q-11 30 -54 170h-257l-53 -170h-122l234 718h140zM210 267h202l-66 219l-33 119h-3l-33 -118zM454 875v-84h-284v84h284z" />
    <glyph glyph-name="amacron" unicode="&#x101;" horiz-adv-x="502" 
d="M496 81l-14 -79q-31 -14 -65 -14q-85 0 -89 78h-2q-39 -80 -148 -80q-71 0 -110.5 40.5t-39.5 112.5q0 107 99 145q80 31 194 37v44q0 38 -20.5 61t-61.5 23q-42 0 -64 -23.5t-18 -67.5q-34 10 -105 31q11 72 61 108t132 36q100 0 145.5 -50.5t45.5 -163.5v-210
q0 -35 30 -35q15 0 30 7zM321 193v58l-36 -5q-52 -9 -77 -20q-64 -30 -64 -80q0 -38 20 -58.5t54 -20.5q49 0 76 35.5t27 90.5zM393 700v-84h-279v84h279z" />
    <glyph glyph-name="Abreve" unicode="&#x102;" horiz-adv-x="627" 
d="M382 718l235 -718h-123q-11 30 -54 170h-257l-53 -170h-122l234 718h140zM210 267h202l-66 219l-33 119h-3l-33 -118zM313 843q31 0 49.5 23t18.5 55h77q0 -54 -38 -101q-37 -46 -108 -46q-69 0 -106 46q-36 47 -36 101h74q0 -31 19.5 -54.5t49.5 -23.5z" />
    <glyph glyph-name="abreve" unicode="&#x103;" horiz-adv-x="502" 
d="M496 81l-14 -79q-31 -14 -65 -14q-85 0 -89 78h-2q-39 -80 -148 -80q-71 0 -110.5 40.5t-39.5 112.5q0 107 99 145q80 31 194 37v44q0 38 -20.5 61t-61.5 23q-42 0 -64 -23.5t-18 -67.5q-34 10 -105 31q11 72 61 108t132 36q100 0 145.5 -50.5t45.5 -163.5v-210
q0 -35 30 -35q15 0 30 7zM321 193v58l-36 -5q-52 -9 -77 -20q-64 -30 -64 -80q0 -38 20 -58.5t54 -20.5q49 0 76 35.5t27 90.5zM253 653q31 0 51.5 24.5t20.5 56.5h73q0 -55 -38 -102q-37 -46 -107 -46q-69 0 -106 46t-37 100h75q0 -31 19.5 -55t48.5 -24z" />
    <glyph glyph-name="Aogonek" unicode="&#x104;" horiz-adv-x="627" 
d="M382 718l235 -718h-84q-43 -58 -43 -103q0 -49 55 -49q36 0 70 14l-7 -44q-38 -24 -95 -24q-46 0 -73 20t-27 55q0 73 78 138q-27 78 -51 163h-257l-53 -170h-122l234 718h140zM210 267h202l-66 219l-33 119h-3l-33 -118z" />
    <glyph glyph-name="aogonek" unicode="&#x105;" horiz-adv-x="502" 
d="M496 81l-14 -79q-31 -14 -65 -14h-8q-41 -55 -41 -100q0 -49 55 -49q36 0 70 14l-7 -44q-38 -24 -95 -24q-46 0 -73 20t-27 55q0 70 77 138q-37 19 -40 68h-2q-39 -80 -148 -80q-71 0 -110.5 40.5t-39.5 112.5q0 107 99 145q80 31 194 37v44q0 38 -20.5 61t-61.5 23
q-42 0 -64 -23.5t-18 -67.5q-34 10 -105 31q11 72 61 108t132 36q100 0 145.5 -50.5t45.5 -163.5v-210q0 -35 30 -35q15 0 30 7zM321 193v58l-36 -5q-52 -9 -77 -20q-64 -30 -64 -80q0 -38 20 -58.5t54 -20.5q49 0 76 35.5t27 90.5z" />
    <glyph glyph-name="Cacute" unicode="&#x106;" horiz-adv-x="615" 
d="M320 -15q-142 0 -208.5 93t-66.5 282q0 372 283 372q107 0 172 -59t66 -157l-127 -20q9 64 -21.5 103t-92.5 39q-153 0 -153 -280q0 -138 36.5 -207t118.5 -69q65 0 95 45.5t24 121.5l128 -26q-13 -238 -254 -238zM345 935h120l-127 -160h-73z" />
    <glyph glyph-name="cacute" unicode="&#x107;" horiz-adv-x="485" 
d="M344 187l115 -15q-5 -87 -58.5 -137t-143.5 -50q-110 0 -166 70.5t-56 203.5q0 128 57 201t162 73q88 0 141 -49.5t53 -133.5l-113 -16q6 52 -16 82t-63 30q-48 0 -75.5 -50t-26.5 -134q0 -190 111 -190q40 0 61.5 30t17.5 85zM284 749h120l-136 -163h-73z" />
    <glyph glyph-name="Ccircumflex" unicode="&#x108;" horiz-adv-x="615" 
d="M320 -15q-142 0 -208.5 93t-66.5 282q0 372 283 372q107 0 172 -59t66 -157l-127 -20q9 64 -21.5 103t-92.5 39q-153 0 -153 -280q0 -138 36.5 -207t118.5 -69q65 0 95 45.5t24 121.5l128 -26q-13 -238 -254 -238zM377 915l118 -137h-84l-87 78l-86 -78h-81l116 137h104z
" />
    <glyph glyph-name="ccircumflex" unicode="&#x109;" horiz-adv-x="485" 
d="M344 187l115 -15q-5 -87 -58.5 -137t-143.5 -50q-110 0 -166 70.5t-56 203.5q0 128 57 201t162 73q88 0 141 -49.5t53 -133.5l-113 -16q6 52 -16 82t-63 30q-48 0 -75.5 -50t-26.5 -134q0 -190 111 -190q40 0 61.5 30t17.5 85zM302 735l118 -150h-84l-87 91l-86 -91h-81
l116 150h104z" />
    <glyph glyph-name="Cdotaccent" unicode="&#x10a;" horiz-adv-x="615" 
d="M320 -15q-142 0 -208.5 93t-66.5 282q0 372 283 372q107 0 172 -59t66 -157l-127 -20q9 64 -21.5 103t-92.5 39q-153 0 -153 -280q0 -138 36.5 -207t118.5 -69q65 0 95 45.5t24 121.5l128 -26q-13 -238 -254 -238zM328 921q30 0 50.5 -20t20.5 -51t-20.5 -51.5
t-50.5 -20.5q-31 0 -51.5 20.5t-20.5 49.5q0 32 20.5 52.5t51.5 20.5z" />
    <glyph glyph-name="cdotaccent" unicode="&#x10b;" horiz-adv-x="485" 
d="M344 187l115 -15q-5 -87 -58.5 -137t-143.5 -50q-110 0 -166 70.5t-56 203.5q0 128 57 201t162 73q88 0 141 -49.5t53 -133.5l-113 -16q6 52 -16 82t-63 30q-48 0 -75.5 -50t-26.5 -134q0 -190 111 -190q40 0 61.5 30t17.5 85zM251 743q30 0 50.5 -20t20.5 -51
t-20.5 -51.5t-50.5 -20.5q-31 0 -51.5 20.5t-20.5 49.5q0 32 20.5 52.5t51.5 20.5z" />
    <glyph glyph-name="Ccaron" unicode="&#x10c;" horiz-adv-x="615" 
d="M320 -15q-142 0 -208.5 93t-66.5 282q0 372 283 372q107 0 172 -59t66 -157l-127 -20q9 64 -21.5 103t-92.5 39q-153 0 -153 -280q0 -138 36.5 -207t118.5 -69q65 0 95 45.5t24 121.5l128 -26q-13 -238 -254 -238zM323 839l87 79h84l-118 -139h-104l-117 139h82z" />
    <glyph glyph-name="ccaron" unicode="&#x10d;" horiz-adv-x="485" 
d="M344 187l115 -15q-5 -87 -58.5 -137t-143.5 -50q-110 0 -166 70.5t-56 203.5q0 128 57 201t162 73q88 0 141 -49.5t53 -133.5l-113 -16q6 52 -16 82t-63 30q-48 0 -75.5 -50t-26.5 -134q0 -190 111 -190q40 0 61.5 30t17.5 85zM83 734h82q4 -6 86 -93l87 93h83l-118 -151
h-105l-58 75q-51 66 -57 76z" />
    <glyph glyph-name="Dcaron" unicode="&#x10e;" horiz-adv-x="650" 
d="M63 718h212q164 0 244.5 -88.5t80.5 -271.5q0 -184 -79 -271t-245 -87h-213v718zM259 622h-74v-527h88q107 0 154 64t47 202q0 136 -51 198.5t-164 62.5zM272 839l87 79h84l-118 -139h-104l-117 139h82z" />
    <glyph glyph-name="dcaron" unicode="&#x10f;" horiz-adv-x="628" 
d="M489 0h-113q-4 25 -4 71l-1 -1h-2q-19 -39 -57 -61.5t-86 -22.5q-95 0 -142.5 71t-47.5 203q0 130 49 201.5t147 71.5q42 0 78 -20t56 -55h1q1 1 2 1v274q34 5 57 8q24 3 58 8v-637q0 -74 5 -112zM261 445q-105 0 -105 -184q0 -96 24 -142t79 -46q110 0 110 189
q0 183 -108 183zM652 660q0 -42 -25.5 -82.5t-63.5 -62.5l-31 30q41 34 52 77q-26 2 -40 18.5t-14 40.5q0 26 16.5 42.5t41.5 16.5q31 0 47.5 -21t16.5 -59z" />
    <glyph glyph-name="Dcroat" unicode="&#x110;" horiz-adv-x="650" 
d="M63 718h212q164 0 244.5 -88.5t80.5 -271.5q0 -184 -79 -271t-245 -87h-213v323h-63v80h63v315zM259 622h-74v-219h115v-80h-115v-228h88q107 0 154 64t47 202q0 136 -51 198.5t-164 62.5z" />
    <glyph glyph-name="dslash" unicode="&#x111;" horiz-adv-x="537" 
d="M369 593h-123v65h123v75q34 5 57 8q24 3 58 8v-91h57v-65h-57v-481q0 -74 5 -112h-113q-4 25 -4 71l-1 -1h-2q-19 -39 -57 -61.5t-86 -22.5q-95 0 -142.5 71t-47.5 203q0 130 49 201.5t147 71.5q42 0 78 -20t56 -55h1q1 1 2 1v134zM261 445q-105 0 -105 -184
q0 -96 24 -142t79 -46q110 0 110 189q0 183 -108 183z" />
    <glyph glyph-name="Emacron" unicode="&#x112;" horiz-adv-x="541" 
d="M508 97v-97h-445v718h434l-26 -97h-285v-200h268v-97h-268v-227h322zM424 892v-84h-284v84h284z" />
    <glyph glyph-name="emacron" unicode="&#x113;" horiz-adv-x="503" 
d="M468 237h-315q0 -166 104 -166q44 0 67.5 28t19.5 75l113 -21q-8 -78 -60.5 -123t-138.5 -45q-113 0 -168 72.5t-55 203.5q0 53 11.5 99.5t36 86.5t68.5 63.5t104 23.5q215 0 213 -297zM155 314h196q-3 135 -98 135q-44 0 -70 -41q-27 -42 -28 -94zM398 700v-84h-279v84
h279z" />
    <glyph glyph-name="Ebreve" unicode="&#x114;" horiz-adv-x="541" 
d="M508 97v-97h-445v718h434l-26 -97h-285v-200h268v-97h-268v-227h322zM282 843q31 0 49.5 23t18.5 55h77q0 -54 -38 -101q-37 -46 -108 -46q-69 0 -106 46q-36 47 -36 101h74q0 -31 19.5 -54.5t49.5 -23.5z" />
    <glyph glyph-name="ebreve" unicode="&#x115;" horiz-adv-x="503" 
d="M468 237h-315q0 -166 104 -166q44 0 67.5 28t19.5 75l113 -21q-8 -78 -60.5 -123t-138.5 -45q-113 0 -168 72.5t-55 203.5q0 53 11.5 99.5t36 86.5t68.5 63.5t104 23.5q215 0 213 -297zM155 314h196q-3 135 -98 135q-44 0 -70 -41q-27 -42 -28 -94zM255 653
q31 0 51.5 24.5t20.5 56.5h73q0 -55 -38 -102q-37 -46 -107 -46q-69 0 -106 46t-37 100h75q0 -31 19.5 -55t48.5 -24z" />
    <glyph glyph-name="Edotaccent" unicode="&#x116;" horiz-adv-x="541" 
d="M508 97v-97h-445v718h434l-26 -97h-285v-200h268v-97h-268v-227h322zM283 919q30 0 50.5 -20t20.5 -51t-20.5 -51.5t-50.5 -20.5q-31 0 -51.5 20.5t-20.5 49.5q0 32 20.5 52.5t51.5 20.5z" />
    <glyph glyph-name="edotaccent" unicode="&#x117;" horiz-adv-x="503" 
d="M468 237h-315q0 -166 104 -166q44 0 67.5 28t19.5 75l113 -21q-8 -78 -60.5 -123t-138.5 -45q-113 0 -168 72.5t-55 203.5q0 53 11.5 99.5t36 86.5t68.5 63.5t104 23.5q215 0 213 -297zM155 314h196q-3 135 -98 135q-44 0 -70 -41q-27 -42 -28 -94zM260 743
q30 0 50.5 -20t20.5 -51t-20.5 -51.5t-50.5 -20.5q-31 0 -51.5 20.5t-20.5 49.5q0 32 20.5 52.5t51.5 20.5z" />
    <glyph glyph-name="Eogonek" unicode="&#x118;" horiz-adv-x="541" 
d="M508 97v-97h-82q-42 -57 -42 -101q0 -49 55 -49q36 0 70 14l-7 -44q-37 -24 -95 -24q-46 0 -73 20t-27 55q0 68 67 129h-311v718h434l-26 -97h-285v-200h268v-97h-268v-227h322z" />
    <glyph glyph-name="eogonek" unicode="&#x119;" horiz-adv-x="503" 
d="M468 237h-315q0 -166 104 -166q44 0 67.5 28t19.5 75l113 -21q-9 -86 -71 -131q-23 -27 -37.5 -59t-14.5 -55q0 -49 55 -49q36 0 70 14l-7 -44q-37 -24 -95 -24q-46 0 -73 20t-27 55q0 54 47 109q-25 -4 -46 -4q-113 0 -168 72.5t-55 203.5q0 53 11.5 99.5t36 86.5
t68.5 63.5t104 23.5q215 0 213 -297zM155 314h196q-3 135 -98 135q-44 0 -70 -41q-27 -42 -28 -94z" />
    <glyph glyph-name="Ecaron" unicode="&#x11a;" horiz-adv-x="541" 
d="M508 97v-97h-445v718h434l-26 -97h-285v-200h268v-97h-268v-227h322zM282 839l87 79h84l-118 -139h-104l-117 139h82z" />
    <glyph glyph-name="ecaron" unicode="&#x11b;" horiz-adv-x="503" 
d="M468 237h-315q0 -166 104 -166q44 0 67.5 28t19.5 75l113 -21q-8 -78 -60.5 -123t-138.5 -45q-113 0 -168 72.5t-55 203.5q0 53 11.5 99.5t36 86.5t68.5 63.5t104 23.5q215 0 213 -297zM155 314h196q-3 135 -98 135q-44 0 -70 -41q-27 -42 -28 -94zM145 658l-57 76h82
q4 -6 86 -93l87 93h83l-118 -151h-105z" />
    <glyph glyph-name="Gcircumflex" unicode="&#x11c;" horiz-adv-x="644" 
d="M334 732q110 -1 174.5 -59t65.5 -157l-126 -20q9 65 -20 103.5t-96 38.5q-158 0 -158 -281q0 -276 159 -276q85 1 115 66q24 51 22 140h-136v95h254q6 -56 6 -95q0 -142 -65.5 -221.5t-194.5 -79.5q-286 0 -286 373q0 180 72 277t214 96zM382 915l118 -137h-84l-87 78
l-86 -78h-81l116 137h104z" />
    <glyph glyph-name="gcircumflex" unicode="&#x11d;" horiz-adv-x="545" 
d="M323 23l-165 9q-28 -34 -28 -70q0 -34 32.5 -53t88.5 -19q71 0 105 29q34 28 34 59q0 42 -67 45zM271 158q-69 0 -103 22l-16 -20q-17 -23 -17 -33q0 -15 28 -16l207 -13q63 -4 101.5 -34t38.5 -83q0 -67 -73 -121t-191 -54q-112 0 -167 38t-55 99q0 30 17.5 57.5
t45.5 45.5v3q-26 6 -41.5 21t-15.5 35q0 19 10 32q9 13 45 49l28 27q-54 43 -54 128t58 137q59 53 150 53t146 -42q46 47 123 55v-100q-18 5 -44 5t-38 -5q30 -46 30 -102q0 -80 -60 -132q-58 -52 -153 -52zM271 240q47 0 73.5 29t26.5 75t-26.5 75t-73.5 29
q-48 0 -74.5 -29t-26.5 -75q0 -47 26 -75.5t75 -28.5zM322 735l118 -150h-84l-87 91l-86 -91h-81l116 150h104z" />
    <glyph glyph-name="Gbreve" unicode="&#x11e;" horiz-adv-x="644" 
d="M334 732q110 -1 174.5 -59t65.5 -157l-126 -20q9 65 -20 103.5t-96 38.5q-158 0 -158 -281q0 -276 159 -276q85 1 115 66q24 51 22 140h-136v95h254q6 -56 6 -95q0 -142 -65.5 -221.5t-194.5 -79.5q-286 0 -286 373q0 180 72 277t214 96zM328 843q31 0 49.5 23t18.5 55
h77q0 -54 -38 -101q-37 -46 -108 -46q-69 0 -106 46q-36 47 -36 101h74q0 -31 19.5 -54.5t49.5 -23.5z" />
    <glyph glyph-name="gbreve" unicode="&#x11f;" horiz-adv-x="545" 
d="M323 23l-165 9q-28 -34 -28 -70q0 -34 32.5 -53t88.5 -19q71 0 105 29q34 28 34 59q0 42 -67 45zM271 158q-69 0 -103 22l-16 -20q-17 -23 -17 -33q0 -15 28 -16l207 -13q63 -4 101.5 -34t38.5 -83q0 -67 -73 -121t-191 -54q-112 0 -167 38t-55 99q0 30 17.5 57.5
t45.5 45.5v3q-26 6 -41.5 21t-15.5 35q0 19 10 32q9 13 45 49l28 27q-54 43 -54 128t58 137q59 53 150 53t146 -42q46 47 123 55v-100q-18 5 -44 5t-38 -5q30 -46 30 -102q0 -80 -60 -132q-58 -52 -153 -52zM271 240q47 0 73.5 29t26.5 75t-26.5 75t-73.5 29
q-48 0 -74.5 -29t-26.5 -75q0 -47 26 -75.5t75 -28.5zM275 653q31 0 51.5 24.5t20.5 56.5h73q0 -55 -38 -102q-37 -46 -107 -46q-69 0 -106 46t-37 100h75q0 -31 19.5 -55t48.5 -24z" />
    <glyph glyph-name="Gdotaccent" unicode="&#x120;" horiz-adv-x="644" 
d="M334 732q110 -1 174.5 -59t65.5 -157l-126 -20q9 65 -20 103.5t-96 38.5q-158 0 -158 -281q0 -276 159 -276q85 1 115 66q24 51 22 140h-136v95h254q6 -56 6 -95q0 -142 -65.5 -221.5t-194.5 -79.5q-286 0 -286 373q0 180 72 277t214 96zM329 923q30 0 50.5 -20t20.5 -51
t-20.5 -51.5t-50.5 -20.5q-31 0 -51.5 20.5t-20.5 49.5q0 32 20.5 52.5t51.5 20.5z" />
    <glyph glyph-name="gdotaccent" unicode="&#x121;" horiz-adv-x="545" 
d="M323 23l-165 9q-28 -34 -28 -70q0 -34 32.5 -53t88.5 -19q71 0 105 29q34 28 34 59q0 42 -67 45zM271 158q-69 0 -103 22l-16 -20q-17 -23 -17 -33q0 -15 28 -16l207 -13q63 -4 101.5 -34t38.5 -83q0 -67 -73 -121t-191 -54q-112 0 -167 38t-55 99q0 30 17.5 57.5
t45.5 45.5v3q-26 6 -41.5 21t-15.5 35q0 19 10 32q9 13 45 49l28 27q-54 43 -54 128t58 137q59 53 150 53t146 -42q46 47 123 55v-100q-18 5 -44 5t-38 -5q30 -46 30 -102q0 -80 -60 -132q-58 -52 -153 -52zM271 240q47 0 73.5 29t26.5 75t-26.5 75t-73.5 29
q-48 0 -74.5 -29t-26.5 -75q0 -47 26 -75.5t75 -28.5zM274 743q30 0 50.5 -20t20.5 -51t-20.5 -51.5t-50.5 -20.5q-31 0 -51.5 20.5t-20.5 49.5q0 32 20.5 52.5t51.5 20.5z" />
    <glyph glyph-name="Gcommaaccent" unicode="&#x122;" horiz-adv-x="644" 
d="M334 732q110 -1 174.5 -59t65.5 -157l-126 -20q9 65 -20 103.5t-96 38.5q-158 0 -158 -281q0 -276 159 -276q85 1 115 66q24 51 22 140h-136v95h254q6 -56 6 -95q0 -142 -65.5 -221.5t-194.5 -79.5q-286 0 -286 373q0 180 72 277t214 96zM387 -127q0 -42 -25.5 -82.5
t-63.5 -62.5l-31 30q41 34 52 77q-26 2 -40 18.5t-14 40.5q0 26 16.5 42.5t41.5 16.5q31 0 47.5 -21t16.5 -59z" />
    <glyph glyph-name="gcommaaccent" unicode="&#x123;" horiz-adv-x="545" 
d="M323 23l-165 9q-28 -34 -28 -70q0 -34 32.5 -53t88.5 -19q71 0 105 29q34 28 34 59q0 42 -67 45zM271 158q-69 0 -103 22l-16 -20q-17 -23 -17 -33q0 -15 28 -16l207 -13q63 -4 101.5 -34t38.5 -83q0 -67 -73 -121t-191 -54q-112 0 -167 38t-55 99q0 30 17.5 57.5
t45.5 45.5v3q-26 6 -41.5 21t-15.5 35q0 19 10 32q9 13 45 49l28 27q-54 43 -54 128t58 137q59 53 150 53t146 -42q46 47 123 55v-100q-18 5 -44 5t-38 -5q30 -46 30 -102q0 -80 -60 -132q-58 -52 -153 -52zM271 240q47 0 73.5 29t26.5 75t-26.5 75t-73.5 29
q-48 0 -74.5 -29t-26.5 -75q0 -47 26 -75.5t75 -28.5zM212 662q0 42 25.5 82.5t63.5 62.5l31 -30q-41 -34 -52 -77q26 -2 40 -18.5t14 -40.5q0 -26 -16.5 -42.5t-41.5 -16.5q-31 0 -47.5 21t-16.5 59z" />
    <glyph glyph-name="Hcircumflex" unicode="&#x124;" horiz-adv-x="636" 
d="M572 718v-718h-122v327h-264v-327h-122v718h122v-293h264v293h122zM369 915l118 -137h-84l-87 78l-86 -78h-81l116 137h104z" />
    <glyph glyph-name="hcircumflex" unicode="&#x125;" horiz-adv-x="531" 
d="M474 363v-363h-116v340q0 103 -87 103q-47 0 -73.5 -34.5t-26.5 -88.5v-320h-116v733q34 5 57 8q28 3 59 8v-293h1l2 -1q44 78 141 78q78 0 118.5 -46.5t40.5 -123.5zM167 923l118 -137h-84l-87 78l-86 -78h-81l116 137h104z" />
    <glyph glyph-name="Hbar" unicode="&#x126;" horiz-adv-x="636" 
d="M572 554v-554h-122v327h-264v-327h-122v553h-56v71h56v94h122v-94h264v94h122v-94q9 0 31 0.5t24 0.5v-71h-55zM186 553v-128h264v128h-264z" />
    <glyph glyph-name="hbar" unicode="&#x127;" horiz-adv-x="531" 
d="M55 593h-45v65h45v75q34 5 57 8q28 3 59 8v-91h144v-65h-144v-137h1l2 -1q44 78 141 78q78 0 118.5 -46.5t40.5 -123.5v-363h-116v340q0 103 -87 103q-47 0 -73.5 -34.5t-26.5 -88.5v-320h-116v593z" />
    <glyph glyph-name="Itilde" unicode="&#x128;" horiz-adv-x="263" 
d="M249 901l46 -44q-10 -30 -32 -50t-52 -20q-26 0 -71 16t-66 16q-37 0 -52 -38l-51 39q10 30 35 52.5t55 22.5q28 0 72 -16q45 -14 65 -16q37 0 51 38zM192 718v-718h-122v718h122z" />
    <glyph glyph-name="itilde" unicode="&#x129;" horiz-adv-x="237" 
d="M240 725l46 -44q-10 -30 -32 -50t-52 -20q-26 0 -71 16t-66 16q-37 0 -52 -38l-51 39q10 30 35 52.5t55 22.5q28 0 72 -16q45 -14 65 -16q37 0 51 38zM176 526v-526h-116v514z" />
    <glyph glyph-name="Imacron" unicode="&#x12a;" horiz-adv-x="263" 
d="M192 718v-718h-122v718h122zM273 892v-84h-284v84h284z" />
    <glyph glyph-name="imacron" unicode="&#x12b;" horiz-adv-x="237" 
d="M259 700v-84h-279v84h279zM176 526v-526h-116v514z" />
    <glyph glyph-name="Ibreve" unicode="&#x12c;" horiz-adv-x="263" 
d="M192 718v-718h-122v718h122zM133 843q31 0 49.5 23t18.5 55h77q0 -54 -38 -101q-37 -46 -108 -46q-69 0 -106 46q-36 47 -36 101h74q0 -31 19.5 -54.5t49.5 -23.5z" />
    <glyph glyph-name="ibreve" unicode="&#x12d;" horiz-adv-x="237" 
d="M122 659q31 0 51.5 24.5t20.5 56.5h73q0 -55 -38 -102q-37 -46 -107 -46q-69 0 -106 46t-37 100h75q0 -31 19.5 -55t48.5 -24zM176 526v-526h-116v514z" />
    <glyph glyph-name="Iogonek" unicode="&#x12e;" horiz-adv-x="263" 
d="M192 718v-718h-56q-42 -57 -42 -101q0 -49 55 -49q36 0 70 14l-7 -44q-38 -24 -95 -24q-46 0 -73 20t-27 55q0 68 67 129h-14v718h122z" />
    <glyph glyph-name="iogonek" unicode="&#x12f;" horiz-adv-x="237" 
d="M176 527v-527h-42q-42 -57 -42 -101q0 -49 55 -49q36 0 70 14l-7 -44q-38 -24 -95 -24q-46 0 -73 20t-27 55q0 68 67 129h-22v511zM119 601q-32 0 -53 21t-21 51q0 32 21 53q21 22 53 22t52 -21q21 -24 21.5 -53t-21 -52.5t-52.5 -20.5z" />
    <glyph glyph-name="Idot" unicode="&#x130;" horiz-adv-x="263" 
d="M133 919q30 0 50.5 -20t20.5 -51t-20.5 -51.5t-50.5 -20.5q-31 0 -51.5 20.5t-20.5 49.5q0 32 20.5 52.5t51.5 20.5zM192 718v-718h-122v718h122z" />
    <glyph glyph-name="dotlessi" unicode="&#x131;" horiz-adv-x="237" 
d="M176 526v-526h-116v514z" />
    <glyph glyph-name="IJ" unicode="&#x132;" horiz-adv-x="759" 
d="M461 79q110 0 110 142v497h122v-491q0 -115 -60 -178t-171 -63q-100 0 -158.5 54.5t-58.5 154.5l122 20q-10 -61 12.5 -98.5t81.5 -37.5zM189 718v-718h-122v718h122z" />
    <glyph glyph-name="ij" unicode="&#x133;" horiz-adv-x="509" 
d="M46 673q0 32 21 53.5t53 21.5t52.5 -21t20.5 -53t-20.5 -52.5t-52.5 -20.5t-53 21t-21 51zM177 527v-527h-116v511zM390 748q32 0 53 -21t21 -53t-21 -52.5t-53 -20.5q-31 0 -52 21t-21 51q0 32 21 53.5t52 21.5zM272 -188l-45 89q54 0 81 23q12 12 16 30q8 27 8 81
l-1 476l117 15v-482q0 -113 -43 -168.5t-133 -63.5z" />
    <glyph glyph-name="Jcircumflex" unicode="&#x134;" horiz-adv-x="529" 
d="M232 80q110 0 110 142v497h122v-491q0 -115 -60 -178t-171 -63q-100 0 -158.5 54.5t-58.5 154.5l122 20q-10 -61 12.5 -98.5t81.5 -37.5zM452 915l118 -137h-84l-87 78l-86 -78h-81l116 137h104z" />
    <glyph glyph-name="jcircumflex" unicode="&#x135;" horiz-adv-x="239" 
d="M2 -188l-45 91q74 0 90 39q15 32 15 96q0 111 -1 243v232l117 13v-482q0 -113 -43 -168.5t-133 -63.5zM172 735l118 -150h-84l-87 91l-86 -91h-81l116 150h104z" />
    <glyph glyph-name="Kcommaaccent" unicode="&#x136;" horiz-adv-x="599" 
d="M311 388l286 -388h-146l-263 358q0 -100 -1 -180v-178h-122v718h122v-158q1 -70 1 -157l251 315h140zM367 -114q0 -42 -25.5 -82.5t-63.5 -62.5l-31 30q41 34 52 77q-26 2 -40 18.5t-14 40.5q0 26 16.5 42.5t41.5 16.5q31 0 47.5 -21t16.5 -59z" />
    <glyph glyph-name="kcommaaccent" unicode="&#x137;" horiz-adv-x="497" 
d="M286 283l207 -283h-135l-186 265v-265h-116v731l116 18v-454l1 -1l180 225h134zM312 -127q0 -42 -25.5 -82.5t-63.5 -62.5l-31 30q41 34 52 77q-26 2 -40 18.5t-14 40.5q0 26 16.5 42.5t41.5 16.5q31 0 47.5 -21t16.5 -59z" />
    <glyph glyph-name="kgreenlandic" unicode="&#x138;" horiz-adv-x="515" 
d="M298 285l209 -285h-136l-192 265v-265h-116v513l116 14l-1 -232l2 -1l186 225h134z" />
    <glyph glyph-name="Lacute" unicode="&#x139;" horiz-adv-x="510" 
d="M496 97l-26 -97h-405v718h121v-621h310zM162 935h120l-127 -160h-73z" />
    <glyph glyph-name="lacute" unicode="&#x13a;" horiz-adv-x="236" 
d="M156 955h120l-127 -160h-73zM176 749v-749h-116v731z" />
    <glyph glyph-name="Lcommaaccent" unicode="&#x13b;" horiz-adv-x="510" 
d="M344 -127q0 -42 -25.5 -82.5t-63.5 -62.5l-31 30q41 34 52 77q-26 2 -40 18.5t-14 40.5q0 26 16.5 42.5t41.5 16.5q31 0 47.5 -21t16.5 -59zM496 97l-26 -97h-405v718h121v-621h310z" />
    <glyph glyph-name="lcommaaccent" unicode="&#x13c;" horiz-adv-x="236" 
d="M177 -127q0 -42 -25.5 -82.5t-63.5 -62.5l-31 30q41 34 52 77q-26 2 -40 18.5t-14 40.5q0 26 16.5 42.5t41.5 16.5q31 0 47.5 -21t16.5 -59zM176 749v-749h-116v731z" />
    <glyph glyph-name="Lcaron" unicode="&#x13d;" horiz-adv-x="510" 
d="M425 640q0 -42 -25.5 -82.5t-63.5 -62.5l-31 30q41 34 52 77q-26 2 -40 18.5t-14 40.5q0 26 16.5 42.5t41.5 16.5q31 0 47.5 -21t16.5 -59zM496 97l-26 -97h-405v718h121v-621h310z" />
    <glyph glyph-name="lcaron" unicode="&#x13e;" horiz-adv-x="317" 
d="M342 661q0 -42 -25.5 -82.5t-63.5 -62.5l-31 30q41 34 52 77q-26 2 -40 18.5t-14 40.5q0 26 16.5 42.5t41.5 16.5q31 0 47.5 -21t16.5 -59zM176 749v-749h-116v731z" />
    <glyph glyph-name="Ldot" unicode="&#x13f;" horiz-adv-x="510" 
d="M365 447q30 0 50.5 -20t20.5 -51t-20.5 -51.5t-50.5 -20.5q-31 0 -51.5 20.5t-20.5 49.5q0 32 20.5 52.5t51.5 20.5zM496 97l-26 -97h-405v718h121v-621h310z" />
    <glyph glyph-name="ldot" unicode="&#x140;" horiz-adv-x="342" 
d="M287 447q30 0 50.5 -20t20.5 -51t-20.5 -51.5t-50.5 -20.5q-31 0 -51.5 20.5t-20.5 49.5q0 32 20.5 52.5t51.5 20.5zM176 749v-749h-116v731z" />
    <glyph glyph-name="Lslash" unicode="&#x141;" horiz-adv-x="510" 
d="M496 97l-26 -97h-405v244l-71 -39v81l71 39v393h121v-325l127 71v-82l-127 -71v-214h310z" />
    <glyph glyph-name="lslash" unicode="&#x142;" horiz-adv-x="236" 
d="M176 337v-337h-116v271l-72 -41v81l31 18l41 23v379l116 18v-330q69 39 76 44v-82z" />
    <glyph glyph-name="Nacute" unicode="&#x143;" horiz-adv-x="658" 
d="M596 718v-718h-122l-241 416q-41 71 -55 107h-2q5 -97 5 -119v-404h-118v718h125l227 -398q48 -88 63 -123h2q-3 53 -3 128v393h119zM363 935h120l-127 -160h-73z" />
    <glyph glyph-name="nacute" unicode="&#x144;" horiz-adv-x="533" 
d="M476 363v-363h-116v336q0 104 -86 104q-47 0 -73.5 -35.5t-26.5 -90.5v-314h-116v386q0 78 -6 125l114 15q4 -31 5 -74h2q47 81 144 81q78 0 118.5 -46t40.5 -124zM285 749h120l-136 -163h-73z" />
    <glyph glyph-name="Ncommaaccent" unicode="&#x145;" horiz-adv-x="658" 
d="M596 718v-718h-122l-241 416q-41 71 -55 107h-2q5 -97 5 -119v-404h-118v718h125l227 -398q48 -88 63 -123h2q-3 53 -3 128v393h119zM385 -111q0 -42 -25.5 -82.5t-63.5 -62.5l-31 30q41 34 52 77q-26 2 -40 18.5t-14 40.5q0 26 16.5 42.5t41.5 16.5q31 0 47.5 -21
t16.5 -59z" />
    <glyph glyph-name="ncommaaccent" unicode="&#x146;" horiz-adv-x="533" 
d="M476 363v-363h-116v336q0 104 -86 104q-47 0 -73.5 -35.5t-26.5 -90.5v-314h-116v386q0 78 -6 125l114 15q4 -31 5 -74h2q47 81 144 81q78 0 118.5 -46t40.5 -124zM326 -127q0 -42 -25.5 -82.5t-63.5 -62.5l-31 30q41 34 52 77q-26 2 -40 18.5t-14 40.5q0 26 16.5 42.5
t41.5 16.5q31 0 47.5 -21t16.5 -59z" />
    <glyph glyph-name="Ncaron" unicode="&#x147;" horiz-adv-x="658" 
d="M596 718v-718h-122l-241 416q-41 71 -55 107h-2q5 -97 5 -119v-404h-118v718h125l227 -398q48 -88 63 -123h2q-3 53 -3 128v393h119zM334 839l87 79h84l-118 -139h-104l-117 139h82z" />
    <glyph glyph-name="ncaron" unicode="&#x148;" horiz-adv-x="533" 
d="M476 363v-363h-116v336q0 104 -86 104q-47 0 -73.5 -35.5t-26.5 -90.5v-314h-116v386q0 78 -6 125l114 15q4 -31 5 -74h2q47 81 144 81q78 0 118.5 -46t40.5 -124zM94 734h82q4 -6 86 -93l87 93h83l-118 -151h-105q-11 17 -58 75q-51 66 -57 76z" />
    <glyph glyph-name="napostrophe" unicode="&#x149;" horiz-adv-x="533" 
d="M476 363v-363h-116v336q0 104 -86 104q-47 0 -73.5 -35.5t-26.5 -90.5v-314h-116v386q0 78 -6 125l114 15q4 -31 5 -74h2q47 81 144 81q78 0 118.5 -46t40.5 -124zM74 667q0 -42 -25.5 -82.5t-63.5 -62.5l-31 30q41 34 52 77q-26 2 -40 18.5t-14 40.5q0 26 16.5 42.5
t41.5 16.5q31 0 47.5 -21t16.5 -59z" />
    <glyph glyph-name="Eng" unicode="&#x14a;" horiz-adv-x="658" 
d="M63 0v718h124l184 -321l61 -110l43 -82h3l-2 234v279h120v-772q0 -168 -139 -168q-35 0 -77 14l-11 84q41 -11 63 -11q25 0 37 14.5t12 49.5v62l-240 412q-29 47 -60 114h-2q1 -51 1 -229v-288h-117z" />
    <glyph glyph-name="eng" unicode="&#x14b;" horiz-adv-x="533" 
d="M476 363v-418q0 -168 -136 -168q-39 0 -78 15l-14 85q45 -13 63 -13q25 0 37 14.5t12 49.5v414q0 49 -22 76.5t-64 27.5q-47 0 -73.5 -34.5t-26.5 -88.5v-323h-116v386q0 97 -4 129l114 7q0 -1 2 -35q1 -20 1 -35h2q47 81 144 81q78 0 118.5 -46t40.5 -124z" />
    <glyph glyph-name="Omacron" unicode="&#x14c;" horiz-adv-x="679" 
d="M631 359q0 -180 -72.5 -276.5t-218.5 -96.5q-292 0 -292 373q0 181 72 277t219 96t219.5 -96t72.5 -277zM505 358q0 280 -165 280q-166 0 -166 -279t165 -279q166 0 166 278zM481 892v-84h-284v84h284z" />
    <glyph glyph-name="omacron" unicode="&#x14d;" horiz-adv-x="531" 
d="M265 533q113 0 172 -71.5t59 -201.5t-59.5 -202.5t-171.5 -72.5q-113 0 -171.5 72t-58.5 202t59 201.5t171 72.5zM265 71q111 0 111 188t-111 188t-111 -188t111 -188zM410 700v-84h-279v84h279z" />
    <glyph glyph-name="Obreve" unicode="&#x14e;" horiz-adv-x="679" 
d="M631 359q0 -180 -72.5 -276.5t-218.5 -96.5q-292 0 -292 373q0 181 72 277t219 96t219.5 -96t72.5 -277zM505 358q0 280 -165 280q-166 0 -166 -279t165 -279q166 0 166 278zM341 843q31 0 49.5 23t18.5 55h77q0 -54 -38 -101q-37 -46 -108 -46q-69 0 -106 46
q-36 47 -36 101h74q0 -31 19.5 -54.5t49.5 -23.5z" />
    <glyph glyph-name="obreve" unicode="&#x14f;" horiz-adv-x="531" 
d="M265 533q113 0 172 -71.5t59 -201.5t-59.5 -202.5t-171.5 -72.5q-113 0 -171.5 72t-58.5 202t59 201.5t171 72.5zM265 71q111 0 111 188t-111 188t-111 -188t111 -188zM270 653q31 0 51.5 24.5t20.5 56.5h73q0 -55 -38 -102q-37 -46 -107 -46q-69 0 -106 46t-37 100h75
q0 -31 19.5 -55t48.5 -24z" />
    <glyph glyph-name="Ohungarumlaut" unicode="&#x150;" horiz-adv-x="679" 
d="M631 359q0 -180 -72.5 -276.5t-218.5 -96.5q-292 0 -292 373q0 181 72 277t219 96t219.5 -96t72.5 -277zM505 358q0 280 -165 280q-166 0 -166 -279t165 -279q166 0 166 278zM304 935h120l-127 -162h-74zM446 935h120l-127 -162h-74z" />
    <glyph glyph-name="ohungarumlaut" unicode="&#x151;" horiz-adv-x="531" 
d="M265 533q113 0 172 -71.5t59 -201.5t-59.5 -202.5t-171.5 -72.5q-113 0 -171.5 72t-58.5 202t59 201.5t171 72.5zM265 71q111 0 111 188t-111 188t-111 -188t111 -188zM245 751h120l-137 -166h-74zM391 751h120l-137 -166h-73z" />
    <glyph glyph-name="OE" unicode="&#x152;" horiz-adv-x="897" 
d="M859 97v-97h-416q-48 -14 -100 -14q-292 0 -292 373q0 181 72.5 277t218.5 96q55 0 102 -14h403l-26 -97h-281v-200h263v-97h-263v-227h319zM342 80q44 0 75 18v522q-32 18 -74 18q-165 0 -165 -279t164 -279z" />
    <glyph glyph-name="oe" unicode="&#x153;" horiz-adv-x="853" 
d="M811 237h-315q0 -166 104 -166q44 0 67.5 28t19.5 75l113 -21q-8 -78 -60.5 -123t-138.5 -45q-116 0 -167 86q-57 -86 -169 -86q-113 0 -171.5 72t-58.5 202t59 201.5t171 72.5q56 0 101 -24t70 -66q49 91 162 91q214 0 213 -297zM265 71q111 0 111 188t-111 188
t-111 -188t111 -188zM498 314h196q-3 135 -98 135q-44 0 -70 -41q-27 -42 -28 -94z" />
    <glyph glyph-name="Racute" unicode="&#x154;" horiz-adv-x="605" 
d="M382 306l186 -306h-133q-5 10 -86 145q-69 117 -86 149h-78q1 -31 1 -294h-123v718h242q112 0 178.5 -57t66.5 -158q0 -73 -46.5 -127.5t-121.5 -69.5zM298 621h-113v-230h115q57 0 91 29.5t34 87.5q0 62 -39 87q-38 26 -88 26zM307 935h120l-127 -160h-73z" />
    <glyph glyph-name="racute" unicode="&#x155;" horiz-adv-x="354" 
d="M357 523q-10 -42 -29 -112q-25 7 -52 7q-48 0 -75.5 -37t-27.5 -100v-281h-117v403q0 69 -6 110q31 3 114 13q5 -47 5 -93h2q17 47 51.5 73t78.5 26q33 0 56 -9zM194 749h120l-136 -163h-73z" />
    <glyph glyph-name="Rcommaaccent" unicode="&#x156;" horiz-adv-x="605" 
d="M382 306l186 -306h-133q-5 10 -86 145q-69 117 -86 149h-78q1 -31 1 -294h-123v718h242q112 0 178.5 -57t66.5 -158q0 -73 -46.5 -127.5t-121.5 -69.5zM298 621h-113v-230h115q57 0 91 29.5t34 87.5q0 62 -39 87q-38 26 -88 26zM353 -111q0 -42 -25.5 -82.5t-63.5 -62.5
l-31 30q41 34 52 77q-26 2 -40 18.5t-14 40.5q0 26 16.5 42.5t41.5 16.5q31 0 47.5 -21t16.5 -59z" />
    <glyph glyph-name="rcommaaccent" unicode="&#x157;" horiz-adv-x="354" 
d="M357 523q-10 -42 -29 -112q-25 7 -52 7q-48 0 -75.5 -37t-27.5 -100v-281h-117v403q0 69 -6 110q31 3 114 13q5 -47 5 -93h2q17 47 51.5 73t78.5 26q33 0 56 -9zM178 -119q0 -42 -25.5 -82.5t-63.5 -62.5l-31 30q41 34 52 77q-26 2 -40 18.5t-14 40.5q0 26 16.5 42.5
t41.5 16.5q31 0 47.5 -21t16.5 -59z" />
    <glyph glyph-name="Rcaron" unicode="&#x158;" horiz-adv-x="605" 
d="M382 306l186 -306h-133q-5 10 -86 145q-69 117 -86 149h-78q1 -31 1 -294h-123v718h242q112 0 178.5 -57t66.5 -158q0 -73 -46.5 -127.5t-121.5 -69.5zM298 621h-113v-230h115q57 0 91 29.5t34 87.5q0 62 -39 87q-38 26 -88 26zM270 839l87 79h84l-118 -139h-104
l-117 139h82z" />
    <glyph glyph-name="rcaron" unicode="&#x159;" horiz-adv-x="354" 
d="M357 523q-10 -42 -29 -112q-25 7 -52 7q-48 0 -75.5 -37t-27.5 -100v-281h-117v403q0 69 -6 110q31 3 114 13q5 -47 5 -93h2q17 47 51.5 73t78.5 26q33 0 56 -9zM60 658l-58 76h82q4 -6 86 -93l87 93h83l-118 -151h-105q-9 13 -57 75z" />
    <glyph glyph-name="Sacute" unicode="&#x15a;" horiz-adv-x="579" 
d="M291 732q103 0 167 -57q65 -55 70 -153l-125 -22q4 65 -26.5 101.5t-94.5 36.5q-46 0 -73.5 -25t-27.5 -68q0 -15 4.5 -28.5t16 -24.5t21.5 -19t30.5 -17t33 -14.5t38 -15t37.5 -14.5q53 -21 88 -41q42 -23 68 -66.5t26 -100.5q0 -98 -69 -158t-184 -60q-120 0 -183.5 64
t-65.5 178l128 27q-15 -73 19 -125q35 -51 108 -51q56 0 88 30.5t32 77.5q0 91 -128 134q-48 16 -106 38q-57 23 -92.5 67.5t-35.5 107.5q0 94 64.5 146t171.5 52zM308 935h120l-127 -160h-73z" />
    <glyph glyph-name="sacute" unicode="&#x15b;" horiz-adv-x="451" 
d="M222 533q80 0 130 -40t55 -112l-104 -27q2 18 2 20q0 35 -23 55.5t-60 20.5q-29 0 -48 -18.5t-19 -43.5q0 -43 92 -74q35 -11 59.5 -22t53 -30t43 -48t14.5 -66q0 -72 -53.5 -117t-142.5 -45q-93 0 -138 45.5t-54 135.5l112 24q-5 -20 -5 -34q0 -38 23 -63t64 -25
q38 0 58.5 20t20.5 51q0 56 -92 85q-34 11 -47.5 16t-42.5 19.5t-42 28.5t-25 38t-12 53q0 74 49 113.5t132 39.5zM243 749h120l-136 -163h-73z" />
    <glyph glyph-name="Scircumflex" unicode="&#x15c;" horiz-adv-x="579" 
d="M291 732q103 0 167 -57q65 -55 70 -153l-125 -22q4 65 -26.5 101.5t-94.5 36.5q-46 0 -73.5 -25t-27.5 -68q0 -15 4.5 -28.5t16 -24.5t21.5 -19t30.5 -17t33 -14.5t38 -15t37.5 -14.5q53 -21 88 -41q42 -23 68 -66.5t26 -100.5q0 -98 -69 -158t-184 -60q-120 0 -183.5 64
t-65.5 178l128 27q-15 -73 19 -125q35 -51 108 -51q56 0 88 30.5t32 77.5q0 91 -128 134q-48 16 -106 38q-57 23 -92.5 67.5t-35.5 107.5q0 94 64.5 146t171.5 52zM344 915l118 -137h-84l-87 78l-86 -78h-81l116 137h104z" />
    <glyph glyph-name="scircumflex" unicode="&#x15d;" horiz-adv-x="451" 
d="M222 533q80 0 130 -40t55 -112l-104 -27q2 18 2 20q0 35 -23 55.5t-60 20.5q-29 0 -48 -18.5t-19 -43.5q0 -43 92 -74q35 -11 59.5 -22t53 -30t43 -48t14.5 -66q0 -72 -53.5 -117t-142.5 -45q-93 0 -138 45.5t-54 135.5l112 24q-5 -20 -5 -34q0 -38 23 -63t64 -25
q38 0 58.5 20t20.5 51q0 56 -92 85q-34 11 -47.5 16t-42.5 19.5t-42 28.5t-25 38t-12 53q0 74 49 113.5t132 39.5zM269 735l118 -150h-84l-87 91l-86 -91h-81l116 150h104z" />
    <glyph glyph-name="Scedilla" unicode="&#x15e;" horiz-adv-x="579" 
d="M291 732q103 0 167 -57q65 -55 70 -153l-125 -22q4 65 -26.5 101.5t-94.5 36.5q-46 0 -73.5 -25t-27.5 -68q0 -15 4.5 -28.5t16 -24.5t21.5 -19t30.5 -17t33 -14.5t38 -15t37.5 -14.5q53 -21 88 -41q42 -23 68 -66.5t26 -100.5q0 -95 -64 -153q-64 -60 -170 -64l-24 -41
q43 -5 70 -26t27 -51q0 -39 -31.5 -60.5t-79.5 -21.5q-47 0 -89 16q-9 44 -9 46q33 -16 78 -16q53 0 53 37t-64 41l-12 14l36 62q-107 7 -164 70t-59 171l128 27q-15 -73 19 -125q35 -51 108 -51q56 0 88 30.5t32 77.5q0 91 -128 134q-48 16 -106 38q-57 23 -92.5 67.5
t-35.5 107.5q0 94 64.5 146t171.5 52z" />
    <glyph glyph-name="scedilla" unicode="&#x15f;" horiz-adv-x="451" 
d="M222 533q80 0 130 -40t55 -112l-104 -27q2 18 2 20q0 35 -23 55.5t-60 20.5q-29 0 -48 -18.5t-19 -43.5q0 -43 92 -74q35 -11 59.5 -22t53 -30t43 -48t14.5 -66q0 -66 -44.5 -109.5t-121.5 -50.5l-25 -42q43 -5 70 -26t27 -51q0 -39 -31.5 -60.5t-79.5 -21.5
q-47 0 -89 16q-9 44 -9 46q33 -16 78 -16q53 0 53 37t-64 41l-12 14l36 62q-86 4 -127.5 48.5t-48.5 131.5l112 24q-5 -20 -5 -34q0 -38 23 -63t64 -25q38 0 58.5 20t20.5 51q0 56 -92 85q-34 11 -47.5 16t-42.5 19.5t-42 28.5t-25 38t-12 53q0 74 49 113.5t132 39.5z" />
    <glyph glyph-name="Scaron" unicode="&#x160;" horiz-adv-x="579" 
d="M291 732q103 0 167 -57q65 -55 70 -153l-125 -22q4 65 -26.5 101.5t-94.5 36.5q-46 0 -73.5 -25t-27.5 -68q0 -15 4.5 -28.5t16 -24.5t21.5 -19t30.5 -17t33 -14.5t38 -15t37.5 -14.5q53 -21 88 -41q42 -23 68 -66.5t26 -100.5q0 -98 -69 -158t-184 -60q-120 0 -183.5 64
t-65.5 178l128 27q-15 -73 19 -125q35 -51 108 -51q56 0 88 30.5t32 77.5q0 91 -128 134q-48 16 -106 38q-57 23 -92.5 67.5t-35.5 107.5q0 94 64.5 146t171.5 52zM291 839l87 79h84l-118 -139h-104l-117 139h82z" />
    <glyph glyph-name="scaron" unicode="&#x161;" horiz-adv-x="451" 
d="M222 533q80 0 130 -40t55 -112l-104 -27q2 18 2 20q0 35 -23 55.5t-60 20.5q-29 0 -48 -18.5t-19 -43.5q0 -43 92 -74q35 -11 59.5 -22t53 -30t43 -48t14.5 -66q0 -72 -53.5 -117t-142.5 -45q-93 0 -138 45.5t-54 135.5l112 24q-5 -20 -5 -34q0 -38 23 -63t64 -25
q38 0 58.5 20t20.5 51q0 56 -92 85q-34 11 -47.5 16t-42.5 19.5t-42 28.5t-25 38t-12 53q0 74 49 113.5t132 39.5zM116 658l-58 76h82q4 -6 86 -93l87 93h83l-118 -151h-105q-9 13 -57 75z" />
    <glyph glyph-name="Tcommaaccent" unicode="&#x162;" horiz-adv-x="537" 
d="M533 718l-27 -97h-178v-621h-42l-32 -54q43 -5 70 -26t27 -51q0 -39 -31.5 -60.5t-79.5 -21.5q-47 0 -89 16q-9 44 -9 46q33 -16 78 -16q53 0 53 37t-64 41l-12 14l44 75h-35v621h-193v97h520z" />
    <glyph glyph-name="tcommaaccent" unicode="&#x163;" horiz-adv-x="342" 
d="M340 103l-14 -93q-40 -22 -100 -22q-28 0 -50 6l-25 -41q43 -5 70 -26t27 -51q0 -39 -31.5 -60.5t-79.5 -21.5q-47 0 -89 16q-9 44 -9 46q33 -16 78 -16q53 0 53 37t-64 41l-12 14l47 79q-48 36 -48 132v290h-81v86h83v139l114 48v-187h104v-86h-105v-288q0 -35 13 -50
t43 -15q32 0 76 23z" />
    <glyph glyph-name="Tcaron" unicode="&#x164;" horiz-adv-x="537" 
d="M533 718l-27 -97h-178v-621h-122v621h-193v97h520zM268 839l87 79h84l-118 -139h-104l-117 139h82z" />
    <glyph glyph-name="tcaron" unicode="&#x165;" horiz-adv-x="342" 
d="M340 103l-14 -93q-40 -22 -100 -22q-133 0 -133 155v290h-81v86h83v139l114 48v-187h104v-86h-105v-288q0 -35 13 -50t43 -15q32 0 76 23zM399 710q0 -42 -25.5 -82.5t-63.5 -62.5l-31 30q41 34 52 77q-26 2 -40 18.5t-14 40.5q0 26 16.5 42.5t41.5 16.5q31 0 47.5 -21
t16.5 -59z" />
    <glyph glyph-name="Tbar" unicode="&#x166;" horiz-adv-x="537" 
d="M533 718l-27 -97h-178v-192h151v-70l-151 -1v-358h-122v358h-154v71h154v192h-193v97h520z" />
    <glyph glyph-name="tbar" unicode="&#x167;" horiz-adv-x="342" 
d="M340 103l-14 -93q-40 -22 -100 -22q-133 0 -133 155v108h-78v71h78v111h-81v86h83v139l114 48v-187h104v-86h-105v-111h103v-71h-103v-106q0 -35 13 -50t43 -15q32 0 76 23z" />
    <glyph glyph-name="Utilde" unicode="&#x168;" horiz-adv-x="644" 
d="M446 901l46 -44q-10 -30 -32 -50t-52 -20q-26 0 -71 16t-66 16q-37 0 -52 -38l-51 39q10 30 35 52.5t55 22.5q28 0 72 -16q45 -14 65 -16q37 0 51 38zM459 718h123v-479q0 -122 -68 -188t-192 -66q-125 0 -193 65.5t-68 188.5v479h122v-474q0 -78 35 -121t103 -43
q69 0 103.5 42.5t34.5 121.5v474z" />
    <glyph glyph-name="utilde" unicode="&#x169;" horiz-adv-x="528" 
d="M474 0h-114q-3 22 -3 67l-2 -1q-44 -80 -144 -80q-77 0 -117 45.5t-40 123.5v355l116 15v-345q0 -50 22 -78t64 -28q46 0 72 34.5t26 88.5v322h117v-410q0 -89 3 -109zM386 725l46 -44q-10 -30 -32 -50t-52 -20q-26 0 -71 16t-66 16q-37 0 -52 -38l-51 39q10 30 35 52.5
t55 22.5q28 0 72 -16q45 -14 65 -16q37 0 51 38z" />
    <glyph glyph-name="Umacron" unicode="&#x16a;" horiz-adv-x="644" 
d="M459 718h123v-479q0 -122 -68 -188t-192 -66q-125 0 -193 65.5t-68 188.5v479h122v-474q0 -78 35 -121t103 -43q69 0 103.5 42.5t34.5 121.5v474zM465 892v-84h-284v84h284z" />
    <glyph glyph-name="umacron" unicode="&#x16b;" horiz-adv-x="528" 
d="M474 0h-114q-3 22 -3 67l-2 -1q-44 -80 -144 -80q-77 0 -117 45.5t-40 123.5v355l116 15v-345q0 -50 22 -78t64 -28q46 0 72 34.5t26 88.5v322h117v-410q0 -89 3 -109zM401 709v-84h-279v84h279z" />
    <glyph glyph-name="Ubreve" unicode="&#x16c;" horiz-adv-x="644" 
d="M459 718h123v-479q0 -122 -68 -188t-192 -66q-125 0 -193 65.5t-68 188.5v479h122v-474q0 -78 35 -121t103 -43q69 0 103.5 42.5t34.5 121.5v474zM322 843q31 0 49.5 23t18.5 55h77q0 -54 -38 -101q-37 -46 -108 -46q-69 0 -106 46q-36 47 -36 101h74q0 -31 19.5 -54.5
t49.5 -23.5z" />
    <glyph glyph-name="ubreve" unicode="&#x16d;" horiz-adv-x="528" 
d="M474 0h-114q-3 22 -3 67l-2 -1q-44 -80 -144 -80q-77 0 -117 45.5t-40 123.5v355l116 15v-345q0 -50 22 -78t64 -28q46 0 72 34.5t26 88.5v322h117v-410q0 -89 3 -109zM260 653q31 0 51.5 24.5t20.5 56.5h73q0 -55 -38 -102q-37 -46 -107 -46q-69 0 -106 46t-37 100h75
q0 -31 19.5 -55t48.5 -24z" />
    <glyph glyph-name="Uring" unicode="&#x16e;" horiz-adv-x="644" 
d="M459 718h123v-479q0 -122 -68 -188t-192 -66q-125 0 -193 65.5t-68 188.5v479h122v-474q0 -78 35 -121t103 -43q69 0 103.5 42.5t34.5 121.5v474zM432 861q0 -42 -32 -74q-32 -30 -75 -30t-75 30q-31 31 -31 74q0 44 30.5 75t75.5 31t76 -30.5t31 -75.5zM325 914
q-34 0 -47.5 -33t10.5 -56q25 -23 57 -10.5t32 46.5q0 22 -15 37.5t-37 15.5z" />
    <glyph glyph-name="uring" unicode="&#x16f;" horiz-adv-x="528" 
d="M474 0h-114q-3 22 -3 67l-2 -1q-44 -80 -144 -80q-77 0 -117 45.5t-40 123.5v355l116 15v-345q0 -50 22 -78t64 -28q46 0 72 34.5t26 88.5v322h117v-410q0 -89 3 -109zM370 677q0 -42 -32 -74q-32 -30 -75 -30t-75 30q-31 31 -31 74q0 44 30.5 75t75.5 31t76 -30.5
t31 -75.5zM263 730q-34 0 -47.5 -33t10.5 -56q25 -23 57 -10.5t32 46.5q0 22 -15 37.5t-37 15.5z" />
    <glyph glyph-name="Uhungarumlaut" unicode="&#x170;" horiz-adv-x="644" 
d="M459 718h123v-479q0 -122 -68 -188t-192 -66q-125 0 -193 65.5t-68 188.5v479h122v-474q0 -78 35 -121t103 -43q69 0 103.5 42.5t34.5 121.5v474zM284 935h120l-127 -162h-74zM426 935h120l-127 -162h-74z" />
    <glyph glyph-name="uhungarumlaut" unicode="&#x171;" horiz-adv-x="528" 
d="M474 0h-114q-3 22 -3 67l-2 -1q-44 -80 -144 -80q-77 0 -117 45.5t-40 123.5v355l116 15v-345q0 -50 22 -78t64 -28q46 0 72 34.5t26 88.5v322h117v-410q0 -89 3 -109zM226 751h120l-137 -166h-74zM372 751h120l-137 -166h-73z" />
    <glyph glyph-name="Uogonek" unicode="&#x172;" horiz-adv-x="644" 
d="M459 718h123v-479q0 -115 -60.5 -180t-172.5 -73q-39 -55 -39 -98q0 -49 55 -49q36 0 70 14l-7 -44q-38 -24 -95 -24q-46 0 -73 20t-27 55q0 65 64 126q-114 6 -175 71t-61 182v479h122v-474q0 -78 35 -121t103 -43q69 0 103.5 42.5t34.5 121.5v474z" />
    <glyph glyph-name="uogonek" unicode="&#x173;" horiz-adv-x="528" 
d="M474 0h-68q-39 -56 -39 -98q0 -49 55 -49q36 0 70 14l-7 -44q-37 -24 -95 -24q-46 0 -73 20t-27 55q0 68 69 130q-2 26 -2 63l-2 -1q-44 -80 -144 -80q-77 0 -117 45.5t-40 123.5v355l116 15v-345q0 -50 22 -78t64 -28q46 0 72 34.5t26 88.5v322h117v-410q0 -89 3 -109z
" />
    <glyph glyph-name="Wcircumflex" unicode="&#x174;" horiz-adv-x="900" 
d="M451 544h-3q-2 -13 -62 -270l-66 -274h-142l-172 718h128l77 -368q1 -8 4 -22t7 -36.5t8 -42.5q12 -60 22 -119h3q8 47 32 167q5 24 31 135q11 46 38 153q16 58 34 133h121l103 -432l10 -43q18 -66 24 -113h3q10 72 32 178l84 410h127l-173 -718h-141l-68 273
q-14 63 -25 105q-30 120 -36 166zM503 915l118 -137h-84l-87 78l-86 -78h-81l116 137h104z" />
    <glyph glyph-name="wcircumflex" unicode="&#x175;" horiz-adv-x="769" 
d="M647 519h113l-147 -519h-127l-69 285q-21 80 -30 142h-3q-14 -79 -31 -139l-72 -288h-129l-143 511l118 18l71 -313q9 -37 22 -117h3q7 48 27 123l73 297h130l72 -300q22 -94 25 -118h3q11 73 24 120zM437 735l118 -150h-84l-87 91l-86 -91h-81l116 150h104z" />
    <glyph glyph-name="Ycircumflex" unicode="&#x176;" horiz-adv-x="577" 
d="M443 718h129l-223 -437v-281h-122v280l-223 438h140l106 -231q24 -56 42 -104q1 15 43 103zM345 915l118 -137h-84l-87 78l-86 -78h-81l116 137h104z" />
    <glyph glyph-name="ycircumflex" unicode="&#x177;" horiz-adv-x="471" 
d="M350 519h116l-154 -476l-22 -67q-9 -27 -21 -55q-14 -34 -26 -49q-47 -70 -117 -65q-20 0 -57 8l-22 88q17 -4 36 -4q36 0 55.5 13.5t32.5 45.5l13 33l-179 520l118 16l83 -288q20 -68 32 -123h3q7 43 29 117zM289 735l118 -150h-84l-87 91l-86 -91h-81l116 150h104z" />
    <glyph glyph-name="Ydieresis" unicode="&#x178;" horiz-adv-x="577" 
d="M443 718h129l-223 -437v-281h-122v280l-223 438h140l106 -231q24 -56 42 -104q1 15 43 103zM267 853q0 -29 -19 -48t-47 -19t-47.5 19t-19.5 46q0 29 19.5 48.5t47.5 19.5t47 -19t19 -47zM454 854q0 -29 -18.5 -48t-47.5 -19q-28 0 -47.5 19t-19.5 46q0 28 19.5 47.5
t47.5 19.5t47 -19t19 -46z" />
    <glyph glyph-name="Zacute" unicode="&#x179;" horiz-adv-x="536" 
d="M508 97v-97h-481v95l307 466q25 39 48 64q-25 -4 -84 -4h-253l21 97h436v-101l-287 -442q-16 -26 -62 -82q36 4 87 4h268zM296 935h120l-127 -160h-73z" />
    <glyph glyph-name="zacute" unicode="&#x17a;" horiz-adv-x="437" 
d="M409 87v-87h-384v86l223 307q18 25 36 42q-12 -3 -57 -3h-194l16 87h356v-86l-227 -313l-32 -37q36 4 51 4h212zM255 749h120l-136 -163h-73z" />
    <glyph glyph-name="Zdotaccent" unicode="&#x17b;" horiz-adv-x="536" 
d="M508 97v-97h-481v95l307 466q25 39 48 64q-25 -4 -84 -4h-253l21 97h436v-101l-287 -442q-16 -26 -62 -82q36 4 87 4h268zM288 919q30 0 50.5 -20t20.5 -51t-20.5 -51.5t-50.5 -20.5q-31 0 -51.5 20.5t-20.5 49.5q0 32 20.5 52.5t51.5 20.5z" />
    <glyph glyph-name="zdotaccent" unicode="&#x17c;" horiz-adv-x="437" 
d="M409 87v-87h-384v86l223 307q18 25 36 42q-12 -3 -57 -3h-194l16 87h356v-86l-227 -313l-32 -37q36 4 51 4h212zM234 743q30 0 50.5 -20t20.5 -51t-20.5 -51.5t-50.5 -20.5q-31 0 -51.5 20.5t-20.5 49.5q0 32 20.5 52.5t51.5 20.5z" />
    <glyph glyph-name="Zcaron" unicode="&#x17d;" horiz-adv-x="536" 
d="M508 97v-97h-481v95l307 466q25 39 48 64q-25 -4 -84 -4h-253l21 97h436v-101l-287 -442q-16 -26 -62 -82q36 4 87 4h268zM283 839l87 79h84l-118 -139h-104l-117 139h82z" />
    <glyph glyph-name="zcaron" unicode="&#x17e;" horiz-adv-x="437" 
d="M409 87v-87h-384v86l223 307q18 25 36 42q-12 -3 -57 -3h-194l16 87h356v-86l-227 -313l-32 -37q36 4 51 4h212zM116 658l-58 76h82q4 -6 86 -93l87 93h83l-118 -151h-105q-9 13 -57 75z" />
    <glyph glyph-name="florin" unicode="&#x192;" 
d="M220 361h-82v84h94l5 43l6 51q1 16 9 49q7 30 16 50q27 59 56 78q47 32 108 32q42 0 67 -12q0 -71 -1 -91q-27 11 -58 11q-25 0 -42 -13t-27 -43t-15 -55t-11 -73l-3 -27h98v-84h-109q-9 -60 -11 -80l-10 -82l-12 -76q-7 -38 -17 -71q-23 -76 -56 -107q-41 -41 -104 -41
q-41 0 -80 16v88q27 -10 61 -10q35 0 52.5 26.5t29.5 88.5q13 75 36 248z" />
    <glyph glyph-name="AEacute" unicode="&#x1fc;" horiz-adv-x="965" 
d="M930 97v-97h-442v171h-265l-99 -171h-129l426 718h498l-25 -97h-283v-201h265v-97h-265v-226h319zM278 267h211v354h-5zM642 935h120l-127 -160h-73z" />
    <glyph glyph-name="aeacute" unicode="&#x1fd;" horiz-adv-x="796" 
d="M758 237h-315q0 -166 104 -166q39 0 63 25.5t24 67.5v10l113 -21q-8 -78 -60.5 -122.5t-138.5 -44.5q-123 0 -177 99q-55 -99 -185 -99q-76 0 -117 40.5t-41 112.5q0 171 293 173v54q0 35 -21 58.5t-62 23.5q-42 0 -62.5 -25.5t-18.5 -64.5l-107 31q11 71 62 107.5
t133 36.5q109 0 151 -65q56 66 149 66q213 0 213 -297zM321 193v44q-177 0 -177 -91q0 -38 20 -58.5t54 -20.5q49 0 76 35.5t27 90.5zM445 312h196q-3 136 -98 136q-43 0 -70 -41q-27 -42 -28 -95zM451 749h120l-136 -163h-73z" />
    <glyph glyph-name="Oslashacute" unicode="&#x1fe;" horiz-adv-x="679" 
d="M340 -14q-122 0 -190 64l-36 -50h-65l65 89q-66 95 -66 270q0 181 72 277t219 96q117 0 188 -63l36 49h65l-65 -89q68 -95 68 -270q0 -180 -72.5 -276.5t-218.5 -96.5zM174 359q0 -95 20 -158l265 374q-39 63 -119 63q-166 0 -166 -279zM505 358q0 97 -22 159l-266 -373
q40 -64 122 -64q166 0 166 278zM375 935h120l-127 -160h-73z" />
    <glyph glyph-name="oslashacute" unicode="&#x1ff;" horiz-adv-x="531" 
d="M265 533q91 0 149 -49l26 35h61l-54 -71q49 -71 49 -188q0 -130 -59.5 -202.5t-171.5 -72.5q-85 0 -141 42l-20 -27h-62l48 61q-55 68 -55 198t59 201.5t171 72.5zM154 259q0 -63 12 -99l182 240q-29 47 -83 47q-111 0 -111 -188zM376 259q0 52 -10 86l-178 -236
q29 -38 77 -38q111 0 111 188zM295 749h120l-136 -163h-73z" />
    <glyph glyph-name="Scommaaccent" unicode="&#x218;" horiz-adv-x="579" 
d="M291 732q103 0 167 -57q65 -55 70 -153l-125 -22q4 65 -26.5 101.5t-94.5 36.5q-46 0 -73.5 -25t-27.5 -68q0 -15 4.5 -28.5t16 -24.5t21.5 -19t30.5 -17t33 -14.5t38 -15t37.5 -14.5q53 -21 88 -41q42 -23 68 -66.5t26 -100.5q0 -98 -69 -158t-184 -60q-120 0 -183.5 64
t-65.5 178l128 27q-15 -73 19 -125q35 -51 108 -51q56 0 88 30.5t32 77.5q0 91 -128 134q-48 16 -106 38q-57 23 -92.5 67.5t-35.5 107.5q0 94 64.5 146t171.5 52zM348 -127q0 -42 -25.5 -82.5t-63.5 -62.5l-31 30q41 34 52 77q-26 2 -40 18.5t-14 40.5q0 26 16.5 42.5
t41.5 16.5q31 0 47.5 -21t16.5 -59z" />
    <glyph glyph-name="scommaaccent" unicode="&#x219;" horiz-adv-x="451" 
d="M222 533q80 0 130 -40t55 -112l-104 -27q2 18 2 20q0 35 -23 55.5t-60 20.5q-29 0 -48 -18.5t-19 -43.5q0 -43 92 -74q35 -11 59.5 -22t53 -30t43 -48t14.5 -66q0 -72 -53.5 -117t-142.5 -45q-93 0 -138 45.5t-54 135.5l112 24q-5 -20 -5 -34q0 -38 23 -63t64 -25
q38 0 58.5 20t20.5 51q0 56 -92 85q-34 11 -47.5 16t-42.5 19.5t-42 28.5t-25 38t-12 53q0 74 49 113.5t132 39.5zM288 -127q0 -42 -25.5 -82.5t-63.5 -62.5l-31 30q41 34 52 77q-26 2 -40 18.5t-14 40.5q0 26 16.5 42.5t41.5 16.5q31 0 47.5 -21t16.5 -59z" />
    <glyph glyph-name="uni021A" unicode="&#x21a;" horiz-adv-x="537" 
d="M328 -127q0 -42 -25.5 -82.5t-63.5 -62.5l-31 30q41 34 52 77q-26 2 -40 18.5t-14 40.5q0 26 16.5 42.5t41.5 16.5q31 0 47.5 -21t16.5 -59zM533 718l-27 -97h-178v-621h-122v621h-193v97h520z" />
    <glyph glyph-name="uni021B" unicode="&#x21b;" horiz-adv-x="342" 
d="M340 103l-14 -93q-40 -22 -100 -22q-133 0 -133 155v290h-81v86h83v139l114 48v-187h104v-86h-105v-288q0 -35 13 -50t43 -15q32 0 76 23zM216 -127q0 -42 -25.5 -82.5t-63.5 -62.5l-31 30q41 34 52 77q-26 2 -40 18.5t-14 40.5q0 26 16.5 42.5t41.5 16.5q31 0 47.5 -21
t16.5 -59z" />
    <glyph glyph-name="schwa" unicode="&#x259;" horiz-adv-x="510" 
d="M52 282h314q0 166 -103 166q-42 0 -66 -28.5t-20 -73.5l-115 21q8 77 62 122t141 45q220 0 220 -276q0 -54 -11.5 -101t-36.5 -86.5t-69.5 -62.5t-103.5 -23q-221 0 -212 297zM364 206h-196q0 -135 98 -135q45 0 71.5 37.5t26.5 97.5z" />
    <glyph glyph-name="primemod" unicode="&#x2b9;" horiz-adv-x="248" 
d="M181 726h120l-171 -272h-73z" />
    <glyph glyph-name="circumflex" unicode="&#x2c6;" horiz-adv-x="524" 
d="M313 735l118 -150h-84l-87 91l-86 -91h-81l116 150h104z" />
    <glyph glyph-name="caron" unicode="&#x2c7;" horiz-adv-x="462" 
d="M125 658l-57 76h82q4 -6 86 -93l87 93h83l-118 -151h-105z" />
    <glyph glyph-name="breve" unicode="&#x2d8;" horiz-adv-x="530" 
d="M273 653q31 0 51.5 24.5t20.5 56.5h73q0 -55 -38 -102q-37 -46 -107 -46q-69 0 -106 46t-37 100h75q0 -31 19.5 -55t48.5 -24z" />
    <glyph glyph-name="dotaccent" unicode="&#x2d9;" horiz-adv-x="504" 
d="M249 743q30 0 50.5 -20t20.5 -51t-20.5 -51.5t-50.5 -20.5q-31 0 -51.5 20.5t-20.5 49.5q0 32 20.5 52.5t51.5 20.5z" />
    <glyph glyph-name="ring" unicode="&#x2da;" horiz-adv-x="505" 
d="M367 677q0 -42 -32 -74q-31 -30 -75 -30t-75 30q-31 31 -31 74q0 44 30.5 75t75.5 31q46 0 76.5 -30.5t30.5 -75.5zM260 730q-34 0 -47.5 -33t10.5 -56q23 -25 57 -11t32 47q0 22 -15 37.5t-37 15.5z" />
    <glyph glyph-name="ogonek" unicode="&#x2db;" horiz-adv-x="487" 
d="M278 42l18 -17q-27 -29 -45 -65t-18 -61q0 -49 55 -49q36 0 70 14l-7 -44q-37 -24 -95 -24q-46 0 -73 20t-27 55q0 91 122 171z" />
    <glyph glyph-name="tilde" unicode="&#x2dc;" horiz-adv-x="502" 
d="M372 725l46 -44q-10 -30 -32 -50t-52 -20q-26 0 -71 16t-66 16q-37 0 -52 -38l-51 39q10 30 35 52.5t55 22.5q28 0 72 -16q45 -14 65 -16q37 0 51 38z" />
    <glyph glyph-name="hungarumlaut" unicode="&#x2dd;" horiz-adv-x="417" 
d="M172 751h120l-137 -166h-74zM318 751h120l-137 -166h-73z" />
    <glyph glyph-name="tonos" unicode="&#x384;" horiz-adv-x="337" 
d="M198 748h120l-136 -163h-73z" />
    <glyph glyph-name="dieresistonos" unicode="&#x385;" horiz-adv-x="435" 
d="M205 759h120l-132 -174h-73zM66 737q28 0 47.5 -19.5t19.5 -47.5q0 -29 -19 -48.5t-48 -19.5q-30 0 -49 19t-19 47q0 30 19 49.5t49 19.5zM301 669q0 29 19.5 49t48.5 20t48 -19t19 -48t-19 -48.5t-48 -19.5t-48.5 19.5t-19.5 46.5z" />
    <glyph glyph-name="Alphatonos" unicode="&#x386;" horiz-adv-x="627" 
d="M382 718l235 -718h-123q-11 30 -54 170h-257l-53 -170h-122l234 718h140zM210 267h202l-66 219l-33 119h-3l-33 -118zM20 718h120l-136 -163h-73z" />
    <glyph glyph-name="anoteleia" unicode="&#x387;" horiz-adv-x="242" 
d="M48 429q0 31 21 52.5t52 21.5t51.5 -21t20.5 -52t-20.5 -51.5t-51.5 -20.5t-52 21t-21 50z" />
    <glyph glyph-name="Epsilontonos" unicode="&#x388;" horiz-adv-x="541" 
d="M508 97v-97h-445v718h434l-26 -97h-285v-200h268v-97h-268v-227h322zM-109 718h120l-136 -163h-73z" />
    <glyph glyph-name="Etatonos" unicode="&#x389;" horiz-adv-x="636" 
d="M572 718v-718h-122v327h-264v-327h-122v718h122v-293h264v293h122zM-107 718h120l-136 -163h-73z" />
    <glyph glyph-name="Iotatonos" unicode="&#x38a;" horiz-adv-x="263" 
d="M192 718v-718h-122v718h122zM-101 718h120l-136 -163h-73z" />
    <glyph glyph-name="Omicrontonos" unicode="&#x38c;" horiz-adv-x="679" 
d="M631 359q0 -180 -72.5 -276.5t-218.5 -96.5q-292 0 -292 373q0 181 72 277t219 96t219.5 -96t72.5 -277zM505 358q0 280 -165 280q-166 0 -166 -279t165 -279q166 0 166 278zM-71 718h120l-136 -163h-73z" />
    <glyph glyph-name="Upsilontonos" unicode="&#x38e;" horiz-adv-x="577" 
d="M443 718h129l-223 -437v-281h-122v280l-223 438h140l106 -231q24 -56 42 -104q1 15 43 103zM-132 718h120l-136 -163h-73z" />
    <glyph glyph-name="Omegatonos" unicode="&#x38f;" horiz-adv-x="691" 
d="M345 731q148 0 220 -97q73 -95 73 -255q0 -201 -112 -286q19 4 46 4h68v-97h-258v112q130 31 130 266q0 128 -43 194.5t-125 66.5t-125 -66.5t-43 -193.5q0 -233 129 -267v-112h-257v97h73q21 0 44 -3q-115 85 -115 285q0 168 75 260t220 92zM-71 718h120l-136 -163h-73z
" />
    <glyph glyph-name="iotadieresistonos" unicode="&#x390;" horiz-adv-x="237" 
d="M109 759h120l-132 -174h-73zM-30 737q28 0 47.5 -19.5t19.5 -47.5q0 -29 -19 -48.5t-48 -19.5q-30 0 -49 19t-19 47q0 30 19 49.5t49 19.5zM205 669q0 29 19.5 49t48.5 20t48 -19t19 -48t-19 -48.5t-48 -19.5t-48.5 19.5t-19.5 46.5zM176 527v-527h-116v513z" />
    <glyph glyph-name="Alpha" unicode="&#x391;" horiz-adv-x="627" 
d="M382 718l235 -718h-123q-11 30 -54 170h-257l-53 -170h-122l234 718h140zM210 267h202l-66 219l-33 119h-3l-33 -118z" />
    <glyph glyph-name="Beta" unicode="&#x392;" horiz-adv-x="607" 
d="M561 197q0 -91 -65 -144t-164 -53h-267v718h254q72 0 137 -33q37 -18 58 -57t21 -92q0 -57 -32.5 -99.5t-83.5 -57.5v-2q67 -13 104.5 -59.5t37.5 -120.5zM411 523q0 98 -123 98h-102v-201h98q127 0 127 103zM290 325h-104v-230h109q139 0 139 115t-144 115z" />
    <glyph glyph-name="Gamma" unicode="&#x393;" horiz-adv-x="507" 
d="M468 621h-283v-621h-122v718h431q-11 -42 -26 -97z" />
    <glyph glyph-name="increment" unicode="&#x394;" horiz-adv-x="629" 
d="M383 718l235 -718h-609l234 718h140zM160 97h303l-114 378l-36 130h-3l-35 -129z" />
    <glyph glyph-name="increment" unicode="&#x2206;" horiz-adv-x="629" 
d="M383 718l235 -718h-609l234 718h140zM160 97h303l-114 378l-36 130h-3l-35 -129z" />
    <glyph glyph-name="Epsilon" unicode="&#x395;" horiz-adv-x="541" 
d="M508 97v-97h-445v718h434l-26 -97h-285v-200h268v-97h-268v-227h322z" />
    <glyph glyph-name="Zeta" unicode="&#x396;" horiz-adv-x="536" 
d="M508 97v-97h-481v95l307 466q25 39 48 64q-25 -4 -84 -4h-253l21 97h436v-101l-287 -442q-16 -26 -62 -82q36 4 87 4h268z" />
    <glyph glyph-name="Eta" unicode="&#x397;" horiz-adv-x="636" 
d="M572 718v-718h-122v327h-264v-327h-122v718h122v-293h264v293h122z" />
    <glyph glyph-name="Theta" unicode="&#x398;" horiz-adv-x="679" 
d="M339 -14q-291 0 -291 373t291 373q292 0 292 -373t-292 -373zM504 358q0 141 -39 210.5t-126 69.5q-88 0 -127 -72q-38 -71 -38 -207q0 -135 38 -208q38 -71 126 -71q87 0 126.5 68.5t39.5 209.5zM214 319v97h250v-97h-250z" />
    <glyph glyph-name="Iota" unicode="&#x399;" horiz-adv-x="263" 
d="M192 718v-718h-122v718h122z" />
    <glyph glyph-name="Kappa" unicode="&#x39a;" horiz-adv-x="599" 
d="M311 388l286 -388h-146l-263 358q0 -100 -1 -180v-178h-122v718h122v-158q1 -70 1 -157l251 315h140z" />
    <glyph glyph-name="Lambda" unicode="&#x39b;" horiz-adv-x="629" 
d="M383 718l235 -718h-124q-99 317 -145 475l-35 130h-3l-35 -122l-60 -205q-25 -82 -45 -145q-10 -30 -23.5 -76t-17.5 -57h-121l234 718h140z" />
    <glyph glyph-name="Mu" unicode="&#x39c;" horiz-adv-x="801" 
d="M737 718v-718h-119v387q0 64 2 110l-2 1q-23 -61 -43 -104l-125 -284h-101l-129 289q-16 37 -39 96h-3q0 -20 1 -50l3 -76v-369h-119v718h129l82 -191l80 -185q28 -63 46 -119h4q8 24 54 141l152 354h127z" />
    <glyph glyph-name="Nu" unicode="&#x39d;" horiz-adv-x="658" 
d="M596 718v-718h-122l-241 416q-41 71 -55 107h-2q5 -97 5 -119v-404h-118v718h125l227 -398q48 -88 63 -123h2q-3 53 -3 128v393h119z" />
    <glyph glyph-name="Xi" unicode="&#x39e;" horiz-adv-x="566" 
d="M527 718l-27 -97h-449v97h476zM476 418v-96h-386v96h386zM530 97v-97h-491v97h491z" />
    <glyph glyph-name="Omicron" unicode="&#x39f;" horiz-adv-x="679" 
d="M631 359q0 -180 -72.5 -276.5t-218.5 -96.5q-292 0 -292 373q0 181 72 277t219 96t219.5 -96t72.5 -277zM505 358q0 280 -165 280q-166 0 -166 -279t165 -279q166 0 166 278z" />
    <glyph glyph-name="Pi" unicode="&#x3a0;" horiz-adv-x="637" 
d="M573 718v-718h-122v620h-265v-620h-122v718h509z" />
    <glyph glyph-name="Rho" unicode="&#x3a1;" horiz-adv-x="567" 
d="M540 492q0 -104 -73 -165q-72 -60 -195 -60h-87q1 -27 1 -267h-122v718h233q108 0 175 -58q68 -59 68 -168zM413 493q0 128 -137 128h-91v-257h93q63 0 99 31.5t36 97.5z" />
    <glyph glyph-name="Sigma" unicode="&#x3a3;" horiz-adv-x="538" 
d="M510 96v-96h-483v95l169 280l-157 241v102h469q-22 -91 -25 -97h-274q-36 0 -45 1q15 -13 32 -37l139 -210l-146 -240q-4 -9 -31 -41q18 2 44 2h308z" />
    <glyph glyph-name="Tau" unicode="&#x3a4;" horiz-adv-x="537" 
d="M533 718l-27 -97h-178v-621h-122v621h-193v97h520z" />
    <glyph glyph-name="Upsilon" unicode="&#x3a5;" horiz-adv-x="577" 
d="M443 718h129l-223 -437v-281h-122v280l-223 438h140l106 -231q24 -56 42 -104q1 15 43 103z" />
    <glyph glyph-name="Phi" unicode="&#x3a6;" horiz-adv-x="786" 
d="M739 377q3 -116 -71.5 -199t-216.5 -95v-83h-119v41q1 19 1 42q-144 10 -216 92q-71 83 -71 202q0 117 71 200q72 85 216 95v46h118v-46q143 -11 215 -95q73 -83 73 -200zM451 586v-418q63 6 101 40q66 60 66 169q0 80 -39 140.5t-128 68.5zM333 168v419
q-47 -5 -81 -25.5t-52 -51.5t-26 -63.5t-8 -69.5q0 -54 13 -94q15 -45 55 -77t99 -38z" />
    <glyph glyph-name="Chi" unicode="&#x3a7;" horiz-adv-x="596" 
d="M297 283h-3q-11 -27 -38 -74l-118 -209h-133l222 365l-207 353h139l95 -175q27 -45 45 -90h4q27 58 44 86l101 179h131l-211 -345l222 -373h-139l-116 208q-19 29 -38 75z" />
    <glyph glyph-name="Psi" unicode="&#x3a8;" horiz-adv-x="739" 
d="M681 718v-262q0 -120 -65.5 -186.5t-186.5 -73.5v-196h-122v197q-121 8 -186 74t-65 185v262h121v-260q0 -72 33.5 -115t96.5 -50v424h122v-425q63 6 97.5 50t34.5 116v260h120z" />
    <glyph glyph-name="Omega" unicode="&#x3a9;" horiz-adv-x="691" 
d="M345 731q148 0 220 -97q73 -95 73 -255q0 -201 -112 -286q19 4 46 4h68v-97h-258v112q130 31 130 266q0 128 -43 194.5t-125 66.5t-125 -66.5t-43 -193.5q0 -233 129 -267v-112h-257v97h73q21 0 44 -3q-115 85 -115 285q0 168 75 260t220 92z" />
    <glyph glyph-name="Iotadieresis" unicode="&#x3aa;" horiz-adv-x="263" 
d="M106 853q0 -29 -19 -48t-47 -19t-47.5 19t-19.5 46q0 29 19.5 48.5t47.5 19.5t47 -19t19 -47zM293 854q0 -29 -18.5 -48t-47.5 -19q-28 0 -47.5 19t-19.5 46q0 28 19.5 47.5t47.5 19.5t47 -19t19 -46zM192 718v-718h-122v718h122z" />
    <glyph glyph-name="Upsilondieresis" unicode="&#x3ab;" horiz-adv-x="577" 
d="M443 718h129l-223 -437v-281h-122v280l-223 438h140l106 -231q24 -56 42 -104q1 15 43 103zM266 853q0 -29 -19 -48t-47 -19t-47.5 19t-19.5 46q0 29 19.5 48.5t47.5 19.5t47 -19t19 -47zM453 854q0 -29 -18.5 -48t-47.5 -19q-28 0 -47.5 19t-19.5 46q0 28 19.5 47.5
t47.5 19.5t47 -19t19 -46z" />
    <glyph glyph-name="alphatonos" unicode="&#x3ac;" horiz-adv-x="551" 
d="M237 532q92 0 133 -77l6 66h111q-5 -65 -5 -122v-268q0 -27 6.5 -40.5t13 -15.5t17.5 -2q7 0 22 5l-12 -78q-24 -12 -65 -12q-84 0 -89 78h-3q-36 -80 -143 -80q-95 0 -144 71t-49 198q0 129 52 203t149 74zM368 262q0 183 -108 183q-54 0 -79 -45.5t-25 -138.5
q0 -95 24 -141.5t78 -46.5q110 0 110 189zM286 748h120l-136 -163h-73z" />
    <glyph glyph-name="epsilontonos" unicode="&#x3ad;" horiz-adv-x="470" 
d="M334 172l117 -17q-7 -79 -58.5 -124.5t-144.5 -45.5q-94 0 -148 43.5t-54 111.5q0 42 22.5 77.5t66.5 49.5q1 2 1 4q-84 23 -84 109q0 63 51 108q53 45 136 45q79 0 131.5 -40t61.5 -116l-111 -22q2 42 -20 67.5t-60 25.5q-35 -1 -56 -22.5t-21 -50.5q0 -31 22 -48
t55 -17h48v-80h-37q-41 0 -64.5 -22.5t-23.5 -61.5q0 -32 22.5 -51t59.5 -19q91 0 88 96zM269 748h120l-136 -163h-73z" />
    <glyph glyph-name="etatonos" unicode="&#x3ae;" horiz-adv-x="533" 
d="M476 363v-363h-116v339q0 104 -86 104q-47 0 -73.5 -34.5t-26.5 -88.5v-320h-116v386q0 72 -5 127l114 13q5 -43 4 -74h2q47 81 144 81q78 0 118.5 -46t40.5 -124zM267 748h120l-136 -163h-73z" />
    <glyph glyph-name="iotatonos" unicode="&#x3af;" horiz-adv-x="237" 
d="M153 748h120l-136 -163h-73zM176 526v-526h-116v514z" />
    <glyph glyph-name="upsilondieresistonos" unicode="&#x3b0;" horiz-adv-x="546" 
d="M495 525v-304q0 -113 -56 -173.5t-164 -60.5q-214 0 -214 234v298h116v-292q0 -154 99 -154q104 0 104 153v286zM262 759h120l-132 -174h-73zM123 737q29 0 48 -19.5t19 -47.5q0 -29 -19 -48.5t-48 -19.5t-48.5 19t-19.5 47q0 30 19 49.5t49 19.5zM426 738q43 4 61.5 -41
t-13.5 -75q-21 -19 -48 -19t-48.5 19.5t-19.5 46.5q0 29 19.5 49t48.5 20z" />
    <glyph glyph-name="alpha" unicode="&#x3b1;" horiz-adv-x="551" 
d="M237 532q92 0 133 -77l6 66h111q-5 -65 -5 -122v-268q0 -27 6.5 -40.5t13 -15.5t17.5 -2q7 0 22 5l-12 -78q-24 -12 -65 -12q-84 0 -89 78h-3q-36 -80 -143 -80q-95 0 -144 71t-49 198q0 129 52 203t149 74zM368 262q0 183 -108 183q-54 0 -79 -45.5t-25 -138.5
q0 -95 24 -141.5t78 -46.5q110 0 110 189z" />
    <glyph glyph-name="beta" unicode="&#x3b2;" horiz-adv-x="538" 
d="M503 226q-1 -111 -53.5 -174.5t-147.5 -63.5q-84 0 -131 75q-1 0 -1 -0.5t-1 -0.5v-241l-115 -16v721q0 111 54 169t155 58q91 0 144 -53t53 -127q0 -46 -21.5 -84.5t-64.5 -53.5q-1 -1 -1 -2h1q63 -17 96 -73.5t33 -133.5zM384 228q0 71 -31 115t-88 44h-40v74h34
q39 0 63.5 28t24.5 73q0 44 -24 75t-65 31q-88 0 -88 -132v-270q0 -85 19 -134q25 -60 91 -60q49 0 76.5 44t27.5 112z" />
    <glyph glyph-name="gamma" unicode="&#x3b3;" horiz-adv-x="485" 
d="M190 360l60 -194h4l50 174l54 179h118l-167 -494v-204l-116 -14v216l-118 346q-13 38 -24 53q-13 19 -49 14l16 86q17 4 37 4q48 -5 62 -14q9 -6 17 -17l15 -21q5 -7 14 -32l12 -36q5 -12 15 -46z" />
    <glyph glyph-name="delta" unicode="&#x3b4;" horiz-adv-x="531" 
d="M286 497l4 3q-94 107 -203 168v71h385l-19 -88h-184q118 -87 172 -183t54 -216q0 -126 -61.5 -196t-166.5 -70q-112 0 -170 71t-58 197q0 63 19 118.5t65.5 95.5t113.5 40q25 0 49 -11zM157 254q0 -183 111 -183q55 0 83.5 48.5t28.5 130.5q0 77 -25 127q-25 51 -83 51
q-55 0 -85 -44t-30 -130z" />
    <glyph glyph-name="epsilon" unicode="&#x3b5;" horiz-adv-x="470" 
d="M334 172l117 -17q-7 -79 -58.5 -124.5t-144.5 -45.5q-94 0 -148 43.5t-54 111.5q0 42 22.5 77.5t66.5 49.5q1 2 1 4q-84 23 -84 109q0 63 51 108q53 45 136 45q79 0 131.5 -40t61.5 -116l-111 -22q2 42 -20 67.5t-60 25.5q-35 -1 -56 -22.5t-21 -50.5q0 -31 22 -48
t55 -17h48v-80h-37q-41 0 -64.5 -22.5t-23.5 -61.5q0 -32 22.5 -51t59.5 -19q91 0 88 96z" />
    <glyph glyph-name="zeta" unicode="&#x3b6;" horiz-adv-x="409" 
d="M301 72q66 -30 93 -52q24 -19 24 -52q0 -31 -26.5 -76t-72.5 -83l-90 33q67 67 67 102q0 5 -2 9.5t-4.5 7.5t-9.5 6.5t-13 6t-19 8t-23 10.5q-99 45 -145 94t-46 133q0 89 70 195q72 109 174 202q8 6 53 37q-32 -6 -73 -6h-202q7 45 17 89h387v-78q-308 -267 -308 -438
q0 -49 35 -81q33 -31 114 -67z" />
    <glyph glyph-name="eta" unicode="&#x3b7;" horiz-adv-x="533" 
d="M476 363v-363h-116v339q0 104 -86 104q-47 0 -73.5 -34.5t-26.5 -88.5v-320h-116v386q0 72 -5 127l114 13q5 -43 4 -74h2q47 81 144 81q78 0 118.5 -46t40.5 -124z" />
    <glyph glyph-name="theta" unicode="&#x3b8;" horiz-adv-x="548" 
d="M499 367q0 -382 -234 -382q-138 0 -187 120q-41 102 -41 257q0 383 230 383q110 0 165 -78q25 -34 40 -85q27 -87 27 -215zM158 423h221q0 236 -112 236q-103 0 -109 -208v-28zM379 340h-224q0 -102 17 -179q23 -91 94 -91q36 0 60 24t34 69q19 76 19 177z" />
    <glyph glyph-name="iota" unicode="&#x3b9;" horiz-adv-x="237" 
d="M176 527v-527h-116v513z" />
    <glyph glyph-name="kappa" unicode="&#x3ba;" horiz-adv-x="515" 
d="M298 285l209 -285h-136l-192 265v-265h-116v513l116 14l-1 -232l2 -1l186 225h134z" />
    <glyph glyph-name="lambda" unicode="&#x3bb;" horiz-adv-x="496" 
d="M482 1q-30 -13 -59 -13q-67 0 -87 69q-1 3 -11.5 36.5t-20.5 63.5q-51 162 -61 223q-1 -1 -9.5 -36t-14.5 -55l-94 -289h-118l185 514q-5 17 -8 35q-3 19 -10 41q-7 29 -27 51t-52 19q-20 0 -35 -4l25 88q35 6 57 6q55 0 84 -26t48 -85l161 -535q10 -34 33 -34q15 0 30 7
q-7 -37 -16 -76z" />
    <glyph glyph-name="nu" unicode="&#x3bd;" horiz-adv-x="480" 
d="M356 519h116l-164 -519h-132l-168 512l118 16l80 -285q20 -67 37 -148l4 1q12 65 35 146z" />
    <glyph glyph-name="xi" unicode="&#x3be;" horiz-adv-x="424" 
d="M310 -59q0 24 -95 57q-95 37 -138.5 88t-43.5 130q1 64 34.5 115t96.5 70v3l1 3q-119 28 -119 156q0 73 51 129q53 57 151 57q81 0 133.5 -41t59.5 -117q-9 -1 -55 -12q-49 -10 -56 -11q4 43 -19 68t-63 25q-41 -1 -62.5 -31t-21.5 -76q0 -104 131 -104h64v-90h-68
q-68 0 -105.5 -38.5t-37.5 -100.5q0 -55 45 -88q30 -20 42 -26l55 -24l14 -6q74 -32 101 -57t27 -59q0 -29 -25 -70.5t-73 -82.5l-91 33q67 64 67 100z" />
    <glyph glyph-name="omicron" unicode="&#x3bf;" horiz-adv-x="531" 
d="M265 533q113 0 172 -71.5t59 -201.5t-59.5 -202.5t-171.5 -72.5q-113 0 -171.5 72t-58.5 202t59 201.5t171 72.5zM265 71q111 0 111 188t-111 188t-111 -188t111 -188z" />
    <glyph glyph-name="pi" unicode="&#x3c0;" horiz-adv-x="540" 
d="M480 519v-519h-116v432h-188v-432h-116v519h420z" />
    <glyph glyph-name="rho" unicode="&#x3c1;" horiz-adv-x="541" 
d="M499 261q0 -129 -50 -202t-146 -73q-91 0 -137 76h-2v-242l-115 -14v445q0 282 235 282q106 -1 160 -76q55 -73 55 -196zM379 261q0 186 -105 186q-110 0 -110 -188t110 -188q105 0 105 190z" />
    <glyph glyph-name="sigma1" unicode="&#x3c2;" horiz-adv-x="466" 
d="M258 533q88 -1 140 -52t52 -131q-48 -6 -113 -17q7 49 -15.5 81t-63.5 32q-103 0 -103 -193q0 -74 36 -107q30 -25 97 -57l39 -19q13 -5 32 -17q28 -16 39 -31.5t16 -42.5q0 -30 -24.5 -72.5t-74.5 -83.5l-90 33q70 69 70 96q0 16 -22 29q-14 9 -62 30q-97 42 -136 93
q-39 52 -39 155q0 129 57.5 201.5t164.5 72.5z" />
    <glyph glyph-name="sigma" unicode="&#x3c3;" horiz-adv-x="543" 
d="M423 435l-1 -3q70 -55 70 -180t-59 -195.5t-171 -70.5t-170.5 70t-58.5 196q0 119 56 193q57 74 171 74h276l-18 -87h-41q-30 0 -54 3zM374 251q0 183 -112 183q-54 0 -82.5 -47.5t-28.5 -135.5q0 -87 28.5 -134t82.5 -47q112 0 112 181z" />
    <glyph glyph-name="tau" unicode="&#x3c4;" horiz-adv-x="378" 
d="M364 432h-126l-1 -285q0 -35 13 -49.5t43 -14.5q35 0 76 22l-14 -95q-44 -23 -100 -23q-133 0 -133 148v297h-113l17 87h338v-87z" />
    <glyph glyph-name="upsilon" unicode="&#x3c5;" horiz-adv-x="546" 
d="M495 525v-304q0 -113 -56 -173.5t-164 -60.5q-214 0 -214 234v298h116v-292q0 -154 99 -154q104 0 104 153v286z" />
    <glyph glyph-name="phi" unicode="&#x3c6;" horiz-adv-x="691" 
d="M657 258q0 -112 -65 -188q-65 -75 -190 -86v-164l-116 -14v178q-129 6 -191 83q-61 76 -61 193q0 106 48 174t119 86l59 -75q-51 -7 -80.5 -55.5t-29.5 -134.5q0 -73 31 -125q32 -54 104 -61v461h91h10q132 -2 201.5 -73.5t69.5 -198.5zM542 257q0 47 -10 81
q-10 40 -44.5 70.5t-85.5 33.5v-373q70 7 105 57t35 131z" />
    <glyph glyph-name="chi" unicode="&#x3c7;" horiz-adv-x="484" 
d="M312 268l163 -268h-130l-108 200l-107 -200h-122l165 272l-150 240l122 17l100 -191l99 181h120z" />
    <glyph glyph-name="psi" unicode="&#x3c8;" horiz-adv-x="672" 
d="M392 -179l-115 -15v180q-115 6 -172 75t-57 189v269h115v-318q0 -52 28 -87t86 -40v497q38 4 63 8q46 7 52 7v-512q117 12 117 130v307l114 14v-275q0 -111 -58 -184t-173 -80v-165z" />
    <glyph glyph-name="omega" unicode="&#x3c9;" horiz-adv-x="742" 
d="M710 263q0 -131 -53.5 -203.5t-150.5 -72.5q-104 0 -135 78q-39 -78 -138 -78q-96 0 -147.5 71.5t-51.5 204.5q0 125 54 195q56 72 147 72l18 -85q-53 0 -77 -44q-10 -15 -16 -47q-7 -39 -7 -102q0 -86 23.5 -132.5t62.5 -46.5q35 0 56 28.5t21 72.5v166h112v-162
q0 -48 19.5 -75t52.5 -27q91 0 91 175q0 62 -7 98q-7 42 -31.5 69t-62.5 27l17 85q94 0 148.5 -71t54.5 -196z" />
    <glyph glyph-name="iotadieresis" unicode="&#x3ca;" horiz-adv-x="237" 
d="M27 734q28 0 47 -19t19 -46q0 -29 -19 -48t-47 -19q-29 0 -48 19t-19 46q0 28 19 47.5t48 19.5zM147 667q0 29 19.5 48.5t47.5 19.5t47 -19t19 -47t-19 -47.5t-47 -19.5t-47.5 19t-19.5 46zM176 527v-527h-116v513z" />
    <glyph glyph-name="upsilondieresis" unicode="&#x3cb;" horiz-adv-x="546" 
d="M182 734q28 0 47 -19t19 -46q0 -29 -19 -48t-47 -19q-29 0 -48 19t-19 46q0 28 19 47.5t48 19.5zM302 667q0 29 19.5 48.5t47.5 19.5t47 -19t19 -47t-19 -47.5t-47 -19.5t-47.5 19t-19.5 46zM495 525v-304q0 -113 -56 -173.5t-164 -60.5q-214 0 -214 234v298h116v-292
q0 -154 99 -154q104 0 104 153v286z" />
    <glyph glyph-name="omicrontonos" unicode="&#x3cc;" horiz-adv-x="531" 
d="M265 533q113 0 172 -71.5t59 -201.5t-59.5 -202.5t-171.5 -72.5q-113 0 -171.5 72t-58.5 202t59 201.5t171 72.5zM265 71q111 0 111 188t-111 188t-111 -188t111 -188zM299 748h120l-136 -163h-73z" />
    <glyph glyph-name="upsilontonos" unicode="&#x3cd;" horiz-adv-x="546" 
d="M495 525v-304q0 -113 -56 -173.5t-164 -60.5q-214 0 -214 234v298h116v-292q0 -154 99 -154q104 0 104 153v286zM299 748h120l-136 -163h-73z" />
    <glyph glyph-name="omegatonos" unicode="&#x3ce;" horiz-adv-x="742" 
d="M710 263q0 -131 -53.5 -203.5t-150.5 -72.5q-104 0 -135 78q-39 -78 -138 -78q-96 0 -147.5 71.5t-51.5 204.5q0 125 54 195q56 72 147 72l18 -85q-53 0 -77 -44q-10 -15 -16 -47q-7 -39 -7 -102q0 -86 23.5 -132.5t62.5 -46.5q35 0 56 28.5t21 72.5v166h112v-162
q0 -48 19.5 -75t52.5 -27q91 0 91 175q0 62 -7 98q-7 42 -31.5 69t-62.5 27l17 85q94 0 148.5 -71t54.5 -196zM408 748h120l-136 -163h-73z" />
    <glyph glyph-name="uni0400" unicode="&#x400;" horiz-adv-x="541" 
d="M508 97v-97h-445v718h434l-26 -97h-285v-200h268v-97h-268v-227h322zM331 775h-73l-127 160h120z" />
    <glyph glyph-name="afii10023" unicode="&#x401;" horiz-adv-x="541" 
d="M508 97v-97h-445v718h434l-26 -97h-285v-200h268v-97h-268v-227h322zM243 853q0 -29 -19 -48t-47 -19t-47.5 19t-19.5 46q0 29 19.5 48.5t47.5 19.5t47 -19t19 -47zM430 854q0 -29 -18.5 -48t-47.5 -19q-28 0 -47.5 19t-19.5 46q0 28 19.5 47.5t47.5 19.5t47 -19t19 -46z
" />
    <glyph glyph-name="afii10051" unicode="&#x402;" horiz-adv-x="762" 
d="M319 621v-211h3q28 34 79 55t102 21q105 0 165 -68t60 -189q0 -112 -61 -180q-60 -68 -172 -68h-10l-21 52l-15 42q5 -1 20 -1q72 0 102.5 38t30.5 121q0 71 -34 113t-97 42q-65 0 -108 -48q-44 -49 -44 -125v-215h-122v621h-196v97h566l-24 -97h-224z" />
    <glyph glyph-name="afii10052" unicode="&#x403;" horiz-adv-x="507" 
d="M468 621h-283v-621h-122v718h431q-11 -42 -26 -97zM276 935h120l-127 -160h-73z" />
    <glyph glyph-name="afii10053" unicode="&#x404;" horiz-adv-x="615" 
d="M328 732q107 0 172 -59t66 -157q-35 -6 -127 -20q11 57 -18 99q-28 43 -96 43q-137 0 -152 -220h252v-92h-253q6 -245 155 -245q65 0 96.5 45t22.5 120l128 -26q-12 -234 -254 -234q-142 0 -208.5 92t-66.5 281q0 373 283 373z" />
    <glyph glyph-name="afii10054" unicode="&#x405;" horiz-adv-x="579" 
d="M291 732q103 0 167 -57q65 -55 70 -153l-125 -22q4 65 -26.5 101.5t-94.5 36.5q-46 0 -73.5 -25t-27.5 -68q0 -15 4.5 -28.5t16 -24.5t21.5 -19t30.5 -17t33 -14.5t38 -15t37.5 -14.5q53 -21 88 -41q42 -23 68 -66.5t26 -100.5q0 -98 -69 -158t-184 -60q-120 0 -183.5 64
t-65.5 178l128 27q-15 -73 19 -125q35 -51 108 -51q56 0 88 30.5t32 77.5q0 91 -128 134q-48 16 -106 38q-57 23 -92.5 67.5t-35.5 107.5q0 94 64.5 146t171.5 52z" />
    <glyph glyph-name="afii10055" unicode="&#x406;" horiz-adv-x="263" 
d="M192 718v-718h-122v718h122z" />
    <glyph glyph-name="afii10056" unicode="&#x407;" horiz-adv-x="263" 
d="M36 913q28 0 47 -19t19 -46q0 -29 -19 -48t-47 -19q-29 0 -48 19t-19 46q0 28 19 47.5t48 19.5zM156 846q0 29 19.5 48.5t47.5 19.5t47 -19t19 -47t-19 -47.5t-47 -19.5t-47.5 19t-19.5 46zM192 718v-718h-122v718h122z" />
    <glyph glyph-name="afii10057" unicode="&#x408;" horiz-adv-x="529" 
d="M232 79q110 0 110 142v497h122v-491q0 -115 -60 -178t-171 -63q-100 0 -158.5 54.5t-58.5 154.5l122 20q-10 -61 12.5 -98.5t81.5 -37.5z" />
    <glyph glyph-name="afii10058" unicode="&#x409;" horiz-adv-x="949" 
d="M141 418l21 300h397v-293h109q121 0 190 -55t69 -157t-66 -157.5t-186 -55.5h-238v621h-166l-20 -272q-10 -144 -23 -196q-35 -152 -154 -167q-26 -2 -42 -1l-25 98q39 -2 61.5 12t36.5 48q7 19 15 63q5 30 11 88q3 26 10 124zM800 213q0 114 -140 114h-101v-231h107
q62 0 98 30t36 87z" />
    <glyph glyph-name="afii10059" unicode="&#x40a;" horiz-adv-x="926" 
d="M889 212q0 -102 -66 -157t-185 -55h-238v328h-214v-328h-122v718h122v-294h214v294h122v-294h118q120 0 184.5 -54t64.5 -158zM762 212q0 58 -36.5 87t-96.5 29h-108v-233h106q135 0 135 117z" />
    <glyph glyph-name="afii10060" unicode="&#x40b;" horiz-adv-x="743" 
d="M701 298v-298h-123v253q0 64 -26.5 97t-87.5 33q-68 0 -108 -50.5t-40 -134.5v-198h-122v621h-191v97h558l-26 -97h-219v-213q1 -1 2 -1q25 34 77 57q50 22 101 22q101 0 153 -51.5t52 -136.5z" />
    <glyph glyph-name="afii10061" unicode="&#x40c;" horiz-adv-x="599" 
d="M311 388l286 -388h-146l-263 358q0 -100 -1 -180v-178h-122v718h122v-158q1 -70 1 -158l29 40l222 276h140zM315 921h120l-127 -160h-73z" />
    <glyph glyph-name="uni040D" unicode="&#x40d;" horiz-adv-x="658" 
d="M181 187q2 0 3 -1q10 24 44 87l246 445h120v-718h-121v408q1 45 4 126q-2 0 -3 -1q-16 -39 -90 -168l-201 -365h-120v718h122v-411q-3 -111 -4 -120zM378 775h-73l-127 160h120z" />
    <glyph glyph-name="afii10062" unicode="&#x40e;" horiz-adv-x="590" 
d="M304 304h2q11 42 38 117l109 297h130l-195 -488q-5 -14 -12.5 -32.5t-9.5 -22.5q0 -1 -22 -49q-12 -26 -25 -47q-37 -51 -64 -66q-42 -24 -92 -24q-28 0 -62 8l-10 50q-5 23 -10 53q50 -16 81 -6.5t53 48.5l28 50l-237 526h139l120 -299q29 -78 39 -115zM308 833
q31 0 49.5 23t18.5 55h77q0 -54 -38 -101q-37 -46 -108 -46q-69 0 -106 46q-36 47 -36 101h74q0 -31 19.5 -54.5t49.5 -23.5z" />
    <glyph glyph-name="afii10145" unicode="&#x40f;" horiz-adv-x="637" 
d="M451 97v621h122v-718h-199v-158h-108v158h-202v718h122v-621h265z" />
    <glyph glyph-name="afii10017" unicode="&#x410;" horiz-adv-x="627" 
d="M382 718l235 -718h-123q-11 30 -54 170h-257l-53 -170h-122l234 718h140zM210 267h202l-66 219l-33 119h-3l-33 -118z" />
    <glyph glyph-name="afii10018" unicode="&#x411;" horiz-adv-x="603" 
d="M310 0h-246v718h436l-24 -97h-289v-196h116q121 0 190 -55t69 -156q0 -103 -66 -158.5t-186 -55.5zM435 213q0 115 -140 115h-109v-232h114q62 0 98.5 30t36.5 87z" />
    <glyph glyph-name="afii10019" unicode="&#x412;" horiz-adv-x="607" 
d="M561 197q0 -91 -65 -144t-164 -53h-267v718h254q72 0 137 -33q37 -18 58 -57t21 -92q0 -57 -32.5 -99.5t-83.5 -57.5v-2q67 -13 104.5 -59.5t37.5 -120.5zM411 523q0 98 -123 98h-102v-201h98q127 0 127 103zM290 325h-104v-230h109q139 0 139 115t-144 115z" />
    <glyph glyph-name="afii10020" unicode="&#x413;" horiz-adv-x="507" 
d="M468 621h-283v-621h-122v718h431q-11 -42 -26 -97z" />
    <glyph glyph-name="afii10021" unicode="&#x414;" horiz-adv-x="695" 
d="M606 96h81v-249h-107v153h-465v-76q1 -43 1 -77h-106v249h68q62 100 80 351l20 271h428v-622zM485 96v525h-200l-16 -196q-2 -22 -13 -129q-4 -36 -19 -102q-14 -58 -33 -98h281z" />
    <glyph glyph-name="afii10022" unicode="&#x415;" horiz-adv-x="541" 
d="M508 97v-97h-445v718h434l-26 -97h-285v-200h268v-97h-268v-227h322z" />
    <glyph glyph-name="afii10024" unicode="&#x416;" horiz-adv-x="941" 
d="M411 358l-256 -358h-147l223 302q13 18 39 49q26 29 38 37q-41 27 -62 55l-220 275h140l243 -314h2v314h122v-314h2l243 314h140l-219 -272q-22 -27 -63 -58q43 -35 66 -68l235 -320h-147l-257 358v-358h-122v358z" />
    <glyph glyph-name="afii10025" unicode="&#x417;" horiz-adv-x="585" 
d="M284 77q59 0 94 33t35 90q0 58 -37 92t-98 34h-54v95h46q57 0 90.5 29t33.5 82q0 48 -30 77.5t-81 29.5q-53 0 -84 -32t-31 -84q0 -2 2 -26l-121 19q2 99 65 157q65 59 172 59q101 0 169 -48q69 -48 69 -143q0 -63 -40 -107q-42 -45 -98 -55v-3q74 -13 116 -59.5
t42 -117.5q0 -98 -73 -156q-71 -58 -184 -58q-248 0 -260 234l126 27q-2 -14 -2 -21q0 -68 34 -108t99 -40z" />
    <glyph glyph-name="afii10026" unicode="&#x418;" horiz-adv-x="658" 
d="M181 187q2 0 3 -1q10 24 44 87l246 445h120v-718h-121v408q1 45 4 126q-2 0 -3 -1q-16 -39 -90 -168l-201 -365h-120v718h122v-411q-3 -111 -4 -120z" />
    <glyph glyph-name="afii10027" unicode="&#x419;" horiz-adv-x="658" 
d="M181 187q2 0 3 -1q10 24 44 87l246 445h120v-718h-121v408q1 45 4 126q-2 0 -3 -1q-16 -39 -90 -168l-201 -365h-120v718h122v-411q-3 -111 -4 -120zM331 833q31 0 51.5 24.5t20.5 56.5h73q0 -55 -38 -102q-37 -46 -107 -46q-69 0 -106 46t-37 100h75q0 -31 19.5 -55
t48.5 -24z" />
    <glyph glyph-name="afii10028" unicode="&#x41a;" horiz-adv-x="599" 
d="M311 388l286 -388h-146l-263 358q0 -100 -1 -180v-178h-122v718h122v-158q1 -70 1 -158l29 40l222 276h140z" />
    <glyph glyph-name="afii10029" unicode="&#x41b;" horiz-adv-x="640" 
d="M577 718v-718h-122v619h-183l-19 -270q-13 -159 -30 -218q-36 -125 -138 -143q-24 -4 -52 -3l-25 98q57 -1 86 34q16 19 23 61q10 47 14 95q6 54 12 146l20 299h414z" />
    <glyph glyph-name="afii10030" unicode="&#x41c;" horiz-adv-x="801" 
d="M737 718v-718h-119v387q0 64 2 110l-2 1q-23 -61 -43 -104l-125 -284h-101l-129 289q-16 37 -39 96h-3q0 -20 1 -50l3 -76v-369h-119v718h129l82 -191l80 -185q28 -63 46 -119h4q8 24 54 141l152 354h127z" />
    <glyph glyph-name="afii10031" unicode="&#x41d;" horiz-adv-x="636" 
d="M572 718v-718h-122v327h-264v-327h-122v718h122v-293h264v293h122z" />
    <glyph glyph-name="afii10032" unicode="&#x41e;" horiz-adv-x="679" 
d="M631 359q0 -180 -72.5 -276.5t-218.5 -96.5q-292 0 -292 373q0 181 72 277t219 96t219.5 -96t72.5 -277zM505 358q0 280 -165 280q-166 0 -166 -279t165 -279q166 0 166 278z" />
    <glyph glyph-name="afii10033" unicode="&#x41f;" horiz-adv-x="637" 
d="M573 718v-718h-122v620h-265v-620h-122v718h509z" />
    <glyph glyph-name="afii10034" unicode="&#x420;" horiz-adv-x="567" 
d="M540 492q0 -104 -73 -165q-72 -60 -195 -60h-87q1 -27 1 -267h-122v718h233q108 0 175 -58q68 -59 68 -168zM413 493q0 128 -137 128h-91v-257h93q63 0 99 31.5t36 97.5z" />
    <glyph glyph-name="afii10035" unicode="&#x421;" horiz-adv-x="615" 
d="M320 -15q-142 0 -208.5 93t-66.5 282q0 372 283 372q107 0 172 -59t66 -157l-127 -20q9 64 -21.5 103t-92.5 39q-153 0 -153 -280q0 -138 36.5 -207t118.5 -69q65 0 95 45.5t24 121.5l128 -26q-13 -238 -254 -238z" />
    <glyph glyph-name="afii10036" unicode="&#x422;" horiz-adv-x="537" 
d="M533 718l-27 -97h-178v-621h-122v621h-193v97h520z" />
    <glyph glyph-name="afii10037" unicode="&#x423;" horiz-adv-x="590" 
d="M304 304h2q11 42 38 117l109 297h130l-195 -488q-5 -14 -12.5 -32.5t-9.5 -22.5q0 -1 -22 -49q-12 -26 -25 -47q-37 -51 -64 -66q-42 -24 -92 -24q-28 0 -62 8l-10 50q-5 23 -10 53q50 -16 81 -6.5t53 48.5l28 50l-237 526h139l120 -299q29 -78 39 -115z" />
    <glyph glyph-name="afii10038" unicode="&#x424;" horiz-adv-x="786" 
d="M739 377q3 -116 -71.5 -199t-216.5 -95v-83h-119v41q1 19 1 42q-144 10 -216 92q-71 83 -71 202q0 117 71 200q72 85 216 95v46h118v-46q143 -11 215 -95q73 -83 73 -200zM451 586v-418q63 6 101 40q66 60 66 169q0 80 -39 140.5t-128 68.5zM333 168v419
q-47 -5 -81 -25.5t-52 -51.5t-26 -63.5t-8 -69.5q0 -54 13 -94q15 -45 55 -77t99 -38z" />
    <glyph glyph-name="afii10039" unicode="&#x425;" horiz-adv-x="596" 
d="M297 283h-3q-11 -27 -38 -74l-118 -209h-133l222 365l-207 353h139l95 -175q27 -45 45 -90h4q27 58 44 86l101 179h131l-211 -345l222 -373h-139l-116 208q-19 29 -38 75z" />
    <glyph glyph-name="afii10040" unicode="&#x426;" horiz-adv-x="670" 
d="M572 96h88v-249h-108v153h-488v718h122v-622h265v622h121v-622z" />
    <glyph glyph-name="afii10041" unicode="&#x427;" horiz-adv-x="623" 
d="M40 473v245h122v-232q0 -129 122 -129q85 0 152 62v299h123v-718h-123v304h-1q-1 1 -2 1q-76 -52 -178 -52q-100 0 -157.5 57t-57.5 163z" />
    <glyph glyph-name="afii10042" unicode="&#x428;" horiz-adv-x="890" 
d="M719 97v621h121v-718h-788v718h121v-621h212v621h122v-621h212z" />
    <glyph glyph-name="afii10043" unicode="&#x429;" horiz-adv-x="950" 
d="M831 0h-768v718h122v-622h211v622h123v-622h211v622h122v-622h87v-249h-108v153z" />
    <glyph glyph-name="afii10044" unicode="&#x42a;" horiz-adv-x="754" 
d="M465 0h-246v621h-214l23 97h314v-293h116q121 0 190 -55t69 -156q0 -103 -66 -158.5t-186 -55.5zM590 213q0 115 -140 115h-108v-232h113q64 0 99.5 29.5t35.5 87.5z" />
    <glyph glyph-name="afii10045" unicode="&#x42b;" horiz-adv-x="829" 
d="M765 718v-718h-123v718h123zM310 0h-246v718h123v-293h116q121 0 190 -55t69 -156q0 -103 -66 -158.5t-186 -55.5zM435 213q0 59 -38 87t-102 28h-109v-232h114q62 0 98.5 30t36.5 87z" />
    <glyph glyph-name="afii10046" unicode="&#x42c;" horiz-adv-x="605" 
d="M310 0h-246v718h123v-293h116q121 0 190 -55t69 -156q0 -103 -66 -158.5t-186 -55.5zM435 213q0 59 -38 87t-102 28h-109v-232h114q62 0 98.5 30t36.5 87z" />
    <glyph glyph-name="afii10047" unicode="&#x42d;" horiz-adv-x="620" 
d="M291 732q277 0 280 -359q0 -388 -278 -388q-244 0 -256 235l126 27q-1 -4 -1 -18q0 -64 35.5 -105.5t96.5 -42.5q150 0 150 245h-253v92h252q-1 107 -39 163.5t-111 56.5q-53 0 -83 -33.5t-30 -89.5q0 -3 2 -19l-123 20q1 99 63.5 157.5t168.5 58.5z" />
    <glyph glyph-name="afii10048" unicode="&#x42e;" horiz-adv-x="918" 
d="M872 359q0 -374 -277 -374q-267 0 -277 342h-132v-327h-122v718h122v-293h134q11 149 80 228t194 79q278 0 278 -373zM747 358q0 144 -35 212t-117 68q-81 0 -117.5 -70.5t-36.5 -209.5t36 -208.5t117 -69.5q82 0 117.5 69t35.5 209z" />
    <glyph glyph-name="afii10049" unicode="&#x42f;" horiz-adv-x="596" 
d="M242 145l-86 -145h-130l184 306q-76 9 -123 65q-45 57 -45 132q0 102 65 158.5t177 56.5h245v-718h-123l1 294h-77q-4 -8 -14.5 -25.5t-32.5 -54.5t-41 -69zM289 391h118v230h-117q-48 0 -86 -27q-37 -25 -37 -86q0 -59 32 -88t90 -29z" />
    <glyph glyph-name="afii10065" unicode="&#x430;" horiz-adv-x="502" 
d="M496 81l-14 -79q-31 -14 -65 -14q-85 0 -89 78h-2q-39 -80 -148 -80q-71 0 -110.5 40.5t-39.5 112.5q0 107 99 145q80 31 194 37v44q0 38 -20.5 61t-61.5 23q-42 0 -64 -23.5t-18 -67.5q-34 10 -105 31q11 72 61 108t132 36q100 0 145.5 -50.5t45.5 -163.5v-210
q0 -35 30 -35q15 0 30 7zM321 193v58l-36 -5q-52 -9 -77 -20q-64 -30 -64 -80q0 -38 20 -58.5t54 -20.5q49 0 76 35.5t27 90.5z" />
    <glyph glyph-name="afii10066" unicode="&#x431;" horiz-adv-x="531" 
d="M288 522q105 0 158.5 -71t53.5 -199q0 -124 -60 -195.5t-170 -71.5q-115 0 -171 73t-57 207q-4 346 209 435q41 16 96 30q44 11 87 25l49 -83q-32 -12 -103 -31q-69 -18 -102 -33q-91 -40 -117 -145l3 -1q45 60 124 60zM380 248q0 189 -107 189q-56 0 -85 -49t-29 -134
q0 -183 110 -183q55 0 83 47t28 130z" />
    <glyph glyph-name="afii10067" unicode="&#x432;" horiz-adv-x="499" 
d="M375 277l1 -3q45 -12 70 -45t25 -81q0 -66 -48.5 -107t-129.5 -41h-240v519h239q37 0 72 -12q86 -29 86 -124q0 -34 -20 -63t-55 -43zM262 434h-94v-126h87q36 0 58 16t22 48q0 31 -20.5 46.5t-52.5 15.5zM261 231h-93v-145h101q39 0 62 18t23 53q0 74 -93 74z" />
    <glyph glyph-name="afii10068" unicode="&#x433;" horiz-adv-x="406" 
d="M168 432v-432h-116v519h354l-16 -87h-222z" />
    <glyph glyph-name="afii10069" unicode="&#x434;" horiz-adv-x="573" 
d="M494 86h67q0 -61 -1 -110v-110h-102v134h-348v-134h-104v220h64q18 29 32 99q14 72 20 134q8 66 15 159l3 41h354v-433zM373 86v346h-134l-11 -128q-13 -150 -42 -218h187z" />
    <glyph glyph-name="afii10070" unicode="&#x435;" horiz-adv-x="503" 
d="M468 237h-315q0 -166 104 -166q44 0 67.5 28t19.5 75l113 -21q-8 -78 -60.5 -123t-138.5 -45q-113 0 -168 72.5t-55 203.5q0 53 11.5 99.5t36 86.5t68.5 63.5t104 23.5q215 0 213 -297zM155 314h196q-3 135 -98 135q-44 0 -70 -41q-27 -42 -28 -94z" />
    <glyph glyph-name="afii10072" unicode="&#x436;" horiz-adv-x="755" 
d="M317 265l-182 -265h-136l162 227q9 15 58 55q-41 29 -52 43l-161 194h134l176 -225l2 1v218l117 14v-233l177 225h134l-152 -182q-13 -16 -60 -53q50 -48 56 -56l163 -228h-136l-182 265v-265h-118v265z" />
    <glyph glyph-name="afii10073" unicode="&#x437;" horiz-adv-x="474" 
d="M32 157l112 20q-2 -49 22 -77.5t68 -28.5q42 0 66.5 22t24.5 56q0 38 -24.5 59t-61.5 21h-51v75h47q36 0 61 17.5t25 51.5q0 31 -22.5 52t-60.5 21q-40 0 -64 -26t-21 -70l-109 24q8 75 62 117t139 42q87 0 139.5 -42t52.5 -113q0 -35 -24 -65.5t-66 -42.5v-3
q44 -12 69.5 -46t25.5 -74q0 -72 -54.5 -117t-151.5 -45q-181 0 -204 172z" />
    <glyph glyph-name="afii10074" unicode="&#x438;" horiz-adv-x="532" 
d="M479 519v-519h-116v270q0 62 4 91q-2 -4 -15 -31l-18 -36l-165 -294h-117v511l116 15v-302q-1 -26 -4 -75q23 53 38 77q37 63 94 170q40 76 67 123h116z" />
    <glyph glyph-name="afii10075" unicode="&#x439;" horiz-adv-x="532" 
d="M479 519v-519h-116v270q0 62 4 91q-2 -4 -15 -31l-18 -36l-165 -294h-117v511l116 15v-302q-1 -26 -4 -75q23 53 38 77q37 63 94 170q40 76 67 123h116zM270 639q31 0 51.5 24.5t20.5 56.5h73q0 -55 -38 -102q-37 -46 -107 -46q-69 0 -106 46t-37 100h75q0 -31 19.5 -55
t48.5 -24z" />
    <glyph glyph-name="afii10076" unicode="&#x43a;" horiz-adv-x="515" 
d="M298 285l209 -285h-136l-192 265v-265h-116v513l116 14l-1 -232l2 -1l186 225h134z" />
    <glyph glyph-name="afii10077" unicode="&#x43b;" horiz-adv-x="532" 
d="M476 519v-519h-116v432h-133l-11 -133q-11 -170 -41 -238q-31 -70 -119 -70q-18 0 -32 2l-23 84q14 -2 15 -2q50 0 71 57q20 57 31 228l10 159h348z" />
    <glyph glyph-name="afii10078" unicode="&#x43c;" horiz-adv-x="667" 
d="M331 184h6q17 46 39 90l121 245h116v-519h-112v320h-3q-19 -44 -21 -46l-101 -199h-87l-101 197q-16 33 -20 47h-3v-319h-112v520h116l124 -248q22 -45 38 -88z" />
    <glyph glyph-name="afii10079" unicode="&#x43d;" horiz-adv-x="528" 
d="M475 519v-519h-116v229h-190v-229h-116v513l116 14v-212h190v204h116z" />
    <glyph glyph-name="afii10080" unicode="&#x43e;" horiz-adv-x="531" 
d="M265 533q113 0 172 -71.5t59 -201.5t-59.5 -202.5t-171.5 -72.5q-113 0 -171.5 72t-58.5 202t59 201.5t171 72.5zM265 71q111 0 111 188t-111 188t-111 -188t111 -188z" />
    <glyph glyph-name="afii10081" unicode="&#x43f;" horiz-adv-x="540" 
d="M480 519v-519h-116v432h-188v-432h-116v519h420z" />
    <glyph glyph-name="afii10082" unicode="&#x440;" horiz-adv-x="537" 
d="M500 258q0 -129 -48 -200.5t-144 -71.5t-138 76h-3v-241q-25 -5 -115 -16v598q0 65 -6 109l114 14q4 -25 4 -74h3q19 37 56 59t82 22q97 0 146 -71.5t49 -203.5zM275 445q-108 0 -108 -183q0 -189 110 -189q55 0 79.5 46.5t24.5 141.5q0 184 -106 184z" />
    <glyph glyph-name="afii10083" unicode="&#x441;" horiz-adv-x="485" 
d="M344 187l115 -15q-5 -87 -58.5 -137t-143.5 -50q-110 0 -166 70.5t-56 203.5q0 128 57 201t162 73q88 0 141 -49.5t53 -133.5l-113 -16q6 52 -16 82t-63 30q-48 0 -75.5 -50t-26.5 -134q0 -190 111 -190q40 0 61.5 30t17.5 85z" />
    <glyph glyph-name="afii10084" unicode="&#x442;" horiz-adv-x="439" 
d="M275 432v-432h-116v432h-149v87h425l-17 -87h-143z" />
    <glyph glyph-name="afii10085" unicode="&#x443;" horiz-adv-x="471" 
d="M350 519h116l-154 -476l-22 -67q-9 -27 -21 -55q-14 -34 -26 -49q-47 -70 -117 -65q-20 0 -57 8l-22 88q17 -4 36 -4q36 0 55.5 13.5t32.5 45.5l13 33l-179 520l118 16l83 -288q20 -68 32 -123h3q7 43 29 117z" />
    <glyph glyph-name="afii10086" unicode="&#x444;" horiz-adv-x="702" 
d="M34 258q0 118 75 190q75 74 184 78v204l116 17v-221q121 -8 190 -78.5t69 -189.5q0 -111 -73 -185q-72 -73 -186 -84v-169l-116 -16v185q-119 6 -189 81q-70 76 -70 188zM550 257q0 75 -36 124.5t-105 57.5v-365q65 6 103 57t38 126zM151 257q0 -77 37 -126t105 -57v366
q-67 -9 -104.5 -59.5t-37.5 -123.5z" />
    <glyph glyph-name="afii10087" unicode="&#x445;" horiz-adv-x="484" 
d="M312 268l163 -268h-130l-108 200l-107 -200h-122l165 272l-150 240l122 17l100 -191l99 181h120z" />
    <glyph glyph-name="afii10088" unicode="&#x446;" horiz-adv-x="567" 
d="M53 510l116 15v-438h191v432h115v-432h77v-222h-104v135h-395v510z" />
    <glyph glyph-name="afii10089" unicode="&#x447;" horiz-adv-x="511" 
d="M456 519v-519h-115v221q-58 -43 -138 -43q-84 0 -130.5 43t-46.5 124v165l116 15v-174q0 -51 21 -73.5t69 -22.5q25 0 57 10.5t52 25.5v228h115z" />
    <glyph glyph-name="afii10090" unicode="&#x448;" horiz-adv-x="766" 
d="M593 87v432h116v-519h-652v512l116 13v-438h152v432h116v-432h152z" />
    <glyph glyph-name="afii10091" unicode="&#x449;" horiz-adv-x="793" 
d="M320 519h116v-432h149v432h116v-432h76v-222h-103v135h-619v512l116 13v-438h149v432z" />
    <glyph glyph-name="afii10092" unicode="&#x44a;" horiz-adv-x="604" 
d="M584 157q0 -73 -54 -115q-52 -42 -134 -42h-221v432h-167l17 87h265v-205h102q90 0 141 -40t51 -117zM469 157q0 37 -24 55t-63 18h-92v-145h92q87 0 87 72z" />
    <glyph glyph-name="afii10093" unicode="&#x44b;" horiz-adv-x="683" 
d="M53 0v511l116 15v-213h101q90 0 141.5 -40t51.5 -116q0 -73 -54 -115q-52 -42 -134 -42h-222zM348 157q0 37 -24 55t-63 18h-92v-145h91q88 0 88 72zM629 519v-519h-113v519h113z" />
    <glyph glyph-name="afii10094" unicode="&#x44c;" horiz-adv-x="490" 
d="M348 157q0 37 -24 55t-63 18h-92v-145h92q87 0 87 72zM463 157q0 -73 -54 -115q-52 -42 -134 -42h-222v511l116 15v-212h102q90 0 141 -40t51 -117z" />
    <glyph glyph-name="afii10095" unicode="&#x44d;" horiz-adv-x="478" 
d="M22 163l114 17q-2 -50 20.5 -79t62.5 -29q99 0 106 157h-163v73h162q-4 67 -29.5 105.5t-67.5 38.5q-40 0 -63 -28t-19 -76l-112 19q4 80 57.5 126t138.5 46q106 0 161 -72t55 -202q0 -133 -55.5 -203.5t-165.5 -70.5q-87 0 -140.5 47.5t-61.5 130.5z" />
    <glyph glyph-name="afii10096" unicode="&#x44e;" horiz-adv-x="746" 
d="M709 257q0 -129 -55.5 -199t-166.5 -70q-213 0 -223 241h-95v-229h-116v513l116 13v-211h97q10 100 66 156.5t154 56.5q223 0 223 -271zM593 258q0 187 -107 187q-108 0 -108 -188q0 -187 107 -187q57 0 82.5 47t25.5 141z" />
    <glyph glyph-name="afii10097" unicode="&#x44f;" horiz-adv-x="487" 
d="M34 361q0 72 48 115t130 43h221v-519h-115v208h-58l-121 -208h-117l131 216q-54 9 -86.5 49.5t-32.5 95.5zM147 363q0 -71 80 -71h91v141h-91q-33 0 -56.5 -18t-23.5 -52z" />
    <glyph glyph-name="afii10071" unicode="&#x451;" horiz-adv-x="503" 
d="M468 237h-315q0 -166 104 -166q44 0 67.5 28t19.5 75l113 -21q-8 -78 -60.5 -123t-138.5 -45q-113 0 -168 72.5t-55 203.5q0 53 11.5 99.5t36 86.5t68.5 63.5t104 23.5q215 0 213 -297zM155 314h196q-3 135 -98 135q-44 0 -70 -41q-27 -42 -28 -94zM159 741q28 0 47 -19
t19 -46q0 -29 -19 -48t-47 -19q-29 0 -48 19t-19 46q0 28 19 47.5t48 19.5zM279 674q0 29 19.5 48.5t47.5 19.5t47 -19t19 -47t-19 -47.5t-47 -19.5t-47.5 19t-19.5 46z" />
    <glyph glyph-name="afii10099" unicode="&#x452;" horiz-adv-x="538" 
d="M67 593h-57v65h57v75q32 5 116 16v-91h132v-65h-132v-150q54 76 145 76q85 0 130 -70t45 -203q0 -116 -51 -191q-51 -74 -157 -74q-15 0 -20 1l-9 44l-8 40q68 -6 99 33q14 17 21 41q12 38 12 98q0 193 -102 193q-105 0 -105 -171v-260h-116v593z" />
    <glyph glyph-name="afii10100" unicode="&#x453;" horiz-adv-x="406" 
d="M168 432v-432h-116v519h354l-16 -87h-222zM241 762h120l-136 -163h-73z" />
    <glyph glyph-name="afii10101" unicode="&#x454;" horiz-adv-x="485" 
d="M344 180l114 -17q-8 -84 -61 -131t-140 -47q-110 0 -166 70.5t-56 203.5q0 128 57 201t162 73q85 0 137 -46t56 -126l-111 -19q4 48 -18.5 76t-61.5 28q-42 0 -69 -38.5t-32 -105.5h162v-73h-162q9 -157 110 -157q39 0 60.5 28.5t18.5 79.5z" />
    <glyph glyph-name="afii10102" unicode="&#x455;" horiz-adv-x="451" 
d="M222 533q80 0 130 -40t55 -112l-104 -27q2 18 2 20q0 35 -23 55.5t-60 20.5q-29 0 -48 -18.5t-19 -43.5q0 -43 92 -74q35 -11 59.5 -22t53 -30t43 -48t14.5 -66q0 -72 -53.5 -117t-142.5 -45q-93 0 -138 45.5t-54 135.5l112 24q-5 -20 -5 -34q0 -38 23 -63t64 -25
q38 0 58.5 20t20.5 51q0 56 -92 85q-34 11 -47.5 16t-42.5 19.5t-42 28.5t-25 38t-12 53q0 74 49 113.5t132 39.5z" />
    <glyph glyph-name="afii10103" unicode="&#x456;" horiz-adv-x="237" 
d="M119 601q-32 0 -53 21t-21 51q0 32 21 53q21 22 53 22t52 -21q21 -24 21.5 -53t-21 -52.5t-52.5 -20.5zM176 527v-527h-116v511z" />
    <glyph glyph-name="afii10104" unicode="&#x457;" horiz-adv-x="237" 
d="M28 734q28 0 47 -19t19 -46q0 -29 -19 -48t-47 -19q-29 0 -48 19t-19 46q0 28 19 47.5t48 19.5zM148 667q0 29 19.5 48.5t47.5 19.5t47 -19t19 -47t-19 -47.5t-47 -19.5t-47.5 19t-19.5 46zM176 526v-526h-116v514z" />
    <glyph glyph-name="afii10105" unicode="&#x458;" horiz-adv-x="239" 
d="M120 748q32 0 53 -21t21 -53t-21 -52.5t-53 -20.5q-31 0 -52 21t-21 51q0 32 21 53.5t52 21.5zM2 -188l-45 89q54 0 81 23q12 12 16 30q8 27 8 81l-1 476l117 15v-482q0 -113 -43 -168.5t-133 -63.5z" />
    <glyph glyph-name="afii10106" unicode="&#x459;" horiz-adv-x="774" 
d="M111 319l15 200h336v-205h93q90 0 141 -40t51 -117q0 -73 -54 -115q-53 -42 -134 -42h-213v432h-121l-16 -185q-6 -73 -15 -117q-7 -40 -28 -80q-35 -68 -143 -58l-22 86q47 -4 70 18q11 10 19 42q6 24 11 70q7 58 10 111zM633 157q0 73 -85 73h-86v-145h86q85 0 85 72z
" />
    <glyph glyph-name="afii10107" unicode="&#x45a;" horiz-adv-x="756" 
d="M329 313v200l115 13v-213h91q90 0 141 -40t51 -116q0 -73 -54 -115q-53 -42 -134 -42h-210v230h-159v-230h-117v519h117v-206h159zM613 157q0 73 -84 73h-85v-145h84q85 0 85 72z" />
    <glyph glyph-name="afii10108" unicode="&#x45b;" horiz-adv-x="531" 
d="M55 593h-45v65h45v75q34 5 57 8q28 3 59 8v-91h144v-65h-144v-137h1l2 -1q44 78 141 78q78 0 118.5 -46.5t40.5 -123.5v-363h-116v340q0 103 -87 103q-47 0 -73.5 -34.5t-26.5 -88.5v-320h-116v593z" />
    <glyph glyph-name="afii10109" unicode="&#x45c;" horiz-adv-x="515" 
d="M298 285l209 -285h-136l-192 265v-265h-116v513l116 14l-1 -232l2 -1l186 225h134zM282 749h120l-136 -163h-73z" />
    <glyph glyph-name="uni045D" unicode="&#x45d;" horiz-adv-x="529" 
d="M478 519v-519h-116v270q0 62 4 91q-2 -4 -15 -31l-18 -36l-165 -294h-117v511l116 15v-302q-1 -26 -4 -75q23 53 38 77q37 63 94 170q40 76 67 123h116zM323 586h-73l-134 161h119z" />
    <glyph glyph-name="afii10110" unicode="&#x45e;" horiz-adv-x="471" 
d="M350 519h116l-154 -476l-22 -67q-9 -27 -21 -55q-14 -34 -26 -49q-47 -70 -117 -65q-20 0 -57 8l-22 88q17 -4 36 -4q36 0 55.5 13.5t32.5 45.5l13 33l-179 520l118 16l83 -288q20 -68 32 -123h3q7 43 29 117zM243 650q31 0 51.5 23.5t20.5 55.5h73q0 -55 -37 -101
q-37 -45 -108 -45q-69 0 -106 46t-37 100h75q0 -31 19.5 -55t48.5 -24z" />
    <glyph glyph-name="afii10193" unicode="&#x45f;" horiz-adv-x="528" 
d="M474 0h-158v-156h-104v156h-160v510l116 15v-438h190v432h116v-519z" />
    <glyph glyph-name="afii10050" unicode="&#x490;" horiz-adv-x="491" 
d="M189 0h-122v718h316v146h102v-243h-296v-621z" />
    <glyph glyph-name="afii10098" unicode="&#x491;" horiz-adv-x="410" 
d="M400 432h-234v-432h-117v519h251v130h100v-217z" />
    <glyph glyph-name="schwacyrillic" unicode="&#x4d9;" horiz-adv-x="500" 
d="M44 282h314q0 166 -103 166q-42 0 -66 -28.5t-20 -73.5l-115 21q8 77 62 122t141 45q220 0 220 -276q0 -54 -11.5 -101t-36.5 -86.5t-69.5 -62.5t-103.5 -23q-221 0 -212 297zM356 206h-196q0 -135 98 -135q45 0 71.5 37.5t26.5 97.5z" />
    <glyph glyph-name="Wgrave" unicode="&#x1e80;" horiz-adv-x="900" 
d="M451 544h-3q-2 -13 -62 -270l-66 -274h-142l-172 718h128l77 -368q1 -8 4 -22t7 -36.5t8 -42.5q12 -60 22 -119h3q8 47 32 167q5 24 31 135q11 46 38 153q16 58 34 133h121l103 -432l10 -43q18 -66 24 -113h3q10 72 32 178l84 410h127l-173 -718h-141l-68 273
q-14 63 -25 105q-30 120 -36 166zM484 775h-73l-127 160h120z" />
    <glyph glyph-name="wgrave" unicode="&#x1e81;" horiz-adv-x="769" 
d="M647 519h113l-147 -519h-127l-69 285q-21 80 -30 142h-3q-14 -79 -31 -139l-72 -288h-129l-143 511l118 18l71 -313q9 -37 22 -117h3q7 48 27 123l73 297h130l72 -300q22 -94 25 -118h3q11 73 24 120zM425 586h-73l-134 161h119z" />
    <glyph glyph-name="Wacute" unicode="&#x1e82;" horiz-adv-x="900" 
d="M451 544h-3q-2 -13 -62 -270l-66 -274h-142l-172 718h128l77 -368q1 -8 4 -22t7 -36.5t8 -42.5q12 -60 22 -119h3q8 47 32 167q5 24 31 135q11 46 38 153q16 58 34 133h121l103 -432l10 -43q18 -66 24 -113h3q10 72 32 178l84 410h127l-173 -718h-141l-68 273
q-14 63 -25 105q-30 120 -36 166zM478 935h120l-127 -160h-73z" />
    <glyph glyph-name="wacute" unicode="&#x1e83;" horiz-adv-x="769" 
d="M647 519h113l-147 -519h-127l-69 285q-21 80 -30 142h-3q-14 -79 -31 -139l-72 -288h-129l-143 511l118 18l71 -313q9 -37 22 -117h3q7 48 27 123l73 297h130l72 -300q22 -94 25 -118h3q11 73 24 120zM408 749h120l-136 -163h-73z" />
    <glyph glyph-name="Wdieresis" unicode="&#x1e84;" horiz-adv-x="900" 
d="M451 544h-3q-2 -13 -62 -270l-66 -274h-142l-172 718h128l77 -368q1 -8 4 -22t7 -36.5t8 -42.5q12 -60 22 -119h3q8 47 32 167q5 24 31 135q11 46 38 153q16 58 34 133h121l103 -432l10 -43q18 -66 24 -113h3q10 72 32 178l84 410h127l-173 -718h-141l-68 273
q-14 63 -25 105q-30 120 -36 166zM422 849q0 -29 -19 -48t-47 -19t-47.5 19t-19.5 46q0 29 19.5 48.5t47.5 19.5t47 -19t19 -47zM609 850q0 -29 -18.5 -48t-47.5 -19q-28 0 -47.5 19t-19.5 46q0 28 19.5 47.5t47.5 19.5t47 -19t19 -46z" />
    <glyph glyph-name="wdieresis" unicode="&#x1e85;" horiz-adv-x="769" 
d="M647 519h113l-147 -519h-127l-69 285q-21 80 -30 142h-3q-14 -79 -31 -139l-72 -288h-129l-143 511l118 18l71 -313q9 -37 22 -117h3q7 48 27 123l73 297h130l72 -300q22 -94 25 -118h3q11 73 24 120zM292 732q28 0 47 -19t19 -46q0 -29 -19 -48t-47 -19q-29 0 -48 19
t-19 46q0 28 19 47.5t48 19.5zM412 665q0 29 19.5 48.5t47.5 19.5t47 -19t19 -47t-19 -47.5t-47 -19.5t-47.5 19t-19.5 46z" />
    <glyph glyph-name="Ygrave" unicode="&#x1ef2;" horiz-adv-x="577" 
d="M443 718h129l-223 -437v-281h-122v280l-223 438h140l106 -231q24 -56 42 -104q1 15 43 103zM345 775h-73l-127 160h120z" />
    <glyph glyph-name="ygrave" unicode="&#x1ef3;" horiz-adv-x="471" 
d="M350 519h116l-154 -476l-22 -67q-9 -27 -21 -55q-14 -34 -26 -49q-47 -70 -117 -65q-20 0 -57 8l-22 88q17 -4 36 -4q36 0 55.5 13.5t32.5 45.5l13 33l-179 520l118 16l83 -288q20 -68 32 -123h3q7 43 29 117zM281 586h-73l-134 161h119z" />
    <glyph glyph-name="uni1F00" unicode="&#x1f00;" horiz-adv-x="551" 
d="M237 532q92 0 133 -77l6 66h111q-5 -65 -5 -122v-268q0 -27 6.5 -40.5t13 -15.5t17.5 -2q7 0 22 5l-12 -78q-24 -12 -65 -12q-84 0 -89 78h-3q-36 -80 -143 -80q-95 0 -144 71t-49 198q0 129 52 203t149 74zM368 262q0 183 -108 183q-54 0 -79 -45.5t-25 -138.5
q0 -95 24 -141.5t78 -46.5q110 0 110 189zM283 576l-50 19q24 30 24 59q0 44 -55 51l33 76q50 -9 77.5 -34.5t27.5 -63.5q0 -24 -15 -54t-42 -53z" />
    <glyph glyph-name="uni1F01" unicode="&#x1f01;" horiz-adv-x="551" 
d="M237 532q92 0 133 -77l6 66h111q-5 -65 -5 -122v-268q0 -27 6.5 -40.5t13 -15.5t17.5 -2q7 0 22 5l-12 -78q-24 -12 -65 -12q-84 0 -89 78h-3q-36 -80 -143 -80q-95 0 -144 71t-49 198q0 129 52 203t149 74zM368 262q0 183 -108 183q-54 0 -79 -45.5t-25 -138.5
q0 -95 24 -141.5t78 -46.5q110 0 110 189zM296 592l-48 -19q-28 23 -42.5 52.5t-14.5 53.5q0 79 105 99l31 -76q-55 -9 -55 -51q0 -25 24 -59z" />
    <glyph glyph-name="uni1F02" unicode="&#x1f02;" horiz-adv-x="551" 
d="M237 532q92 0 133 -77l6 66h111q-5 -65 -5 -122v-268q0 -27 6.5 -40.5t13 -15.5t17.5 -2q7 0 22 5l-12 -78q-24 -12 -65 -12q-84 0 -89 78h-3q-36 -80 -143 -80q-95 0 -144 71t-49 198q0 129 52 203t149 74zM368 262q0 183 -108 183q-54 0 -79 -45.5t-25 -138.5
q0 -95 24 -141.5t78 -46.5q110 0 110 189zM168 576l-48 19q24 35 24 59q0 42 -55 51l31 76q104 -20 104 -99q0 -24 -14.5 -53.5t-41.5 -52.5zM425 585h-74l-131 186h115z" />
    <glyph glyph-name="uni1F03" unicode="&#x1f03;" horiz-adv-x="551" 
d="M237 532q92 0 133 -77l6 66h111q-5 -65 -5 -122v-268q0 -27 6.5 -40.5t13 -15.5t17.5 -2q7 0 22 5l-12 -78q-24 -12 -65 -12q-84 0 -89 78h-3q-36 -80 -143 -80q-95 0 -144 71t-49 198q0 129 52 203t149 74zM368 262q0 183 -108 183q-54 0 -79 -45.5t-25 -138.5
q0 -95 24 -141.5t78 -46.5q110 0 110 189zM422 585h-73q-4 5 -12.5 16.5t-25 34.5t-30.5 43l-64 90h115zM188 595l-48 -20q-56 51 -56 107q0 79 104 99l31 -76q-55 -9 -55 -51q0 -24 24 -59z" />
    <glyph glyph-name="uni1F04" unicode="&#x1f04;" horiz-adv-x="551" 
d="M237 532q92 0 133 -77l6 66h111q-5 -65 -5 -122v-268q0 -27 6.5 -40.5t13 -15.5t17.5 -2q7 0 22 5l-12 -78q-24 -12 -65 -12q-84 0 -89 78h-3q-36 -80 -143 -80q-95 0 -144 71t-49 198q0 129 52 203t149 74zM368 262q0 183 -108 183q-54 0 -79 -45.5t-25 -138.5
q0 -95 24 -141.5t78 -46.5q110 0 110 189zM214 576l-47 19q23 32 23 59q0 42 -54 51l31 76q49 -9 76.5 -35t27.5 -64q0 -24 -14.5 -53.5t-42.5 -52.5zM352 768h116l-133 -186h-73z" />
    <glyph glyph-name="uni1F05" unicode="&#x1f05;" horiz-adv-x="551" 
d="M237 532q92 0 133 -77l6 66h111q-5 -65 -5 -122v-268q0 -27 6.5 -40.5t13 -15.5t17.5 -2q7 0 22 5l-12 -78q-24 -12 -65 -12q-84 0 -89 78h-3q-36 -80 -143 -80q-95 0 -144 71t-49 198q0 129 52 203t149 74zM368 262q0 183 -108 183q-54 0 -79 -45.5t-25 -138.5
q0 -95 24 -141.5t78 -46.5q110 0 110 189zM355 770h115l-133 -187h-74zM235 595l-48 -20q-57 51 -57 107q0 39 28 64.5t77 34.5l14 -36q3 -8 7 -18t6.5 -15l3.5 -7q-55 -9 -55 -51q0 -24 24 -59z" />
    <glyph glyph-name="uni1F06" unicode="&#x1f06;" horiz-adv-x="551" 
d="M237 532q92 0 133 -77l6 66h111q-5 -65 -5 -122v-268q0 -27 6.5 -40.5t13 -15.5t17.5 -2q7 0 22 5l-12 -78q-24 -12 -65 -12q-84 0 -89 78h-3q-36 -80 -143 -80q-95 0 -144 71t-49 198q0 129 52 203t149 74zM368 262q0 183 -108 183q-54 0 -79 -45.5t-25 -138.5
q0 -95 24 -141.5t78 -46.5q110 0 110 189zM263 568l-49 18q26 26 27 50q2 14 -8.5 26t-41.5 16l31 69q48 -7 73 -30t23 -56q-1 -44 -55 -93zM367 875l44 -42q-9 -29 -30.5 -49t-50.5 -20q-24 0 -70 15q-44 16 -65 16q-36 0 -50 -38l-49 38q9 29 33.5 51.5t54.5 22.5
q29 0 71 -16q43 -14 63 -16q37 0 49 38z" />
    <glyph glyph-name="uni1F07" unicode="&#x1f07;" horiz-adv-x="551" 
d="M237 532q92 0 133 -77l6 66h111q-5 -65 -5 -122v-268q0 -27 6.5 -40.5t13 -15.5t17.5 -2q7 0 22 5l-12 -78q-24 -12 -65 -12q-84 0 -89 78h-3q-36 -80 -143 -80q-95 0 -144 71t-49 198q0 129 52 203t149 74zM368 262q0 183 -108 183q-54 0 -79 -45.5t-25 -138.5
q0 -95 24 -141.5t78 -46.5q110 0 110 189zM301 586l-49 -18q-50 45 -55 93q-2 34 23 56.5t73 28.5l31 -69q-50 -6 -50 -41q2 -23 27 -50zM376 877l44 -43q-9 -29 -30.5 -49t-50.5 -20q-25 0 -70 16q-44 16 -65 16q-36 0 -50 -38l-49 38q9 29 33.5 51t54.5 22q26 0 71 -15
q43 -14 63 -16q35 0 49 38z" />
    <glyph glyph-name="uni1F08" unicode="&#x1f08;" horiz-adv-x="627" 
d="M382 718l235 -718h-123q-11 30 -54 170h-257l-53 -170h-122l234 718h140zM210 267h202l-66 219l-33 119h-3l-33 -118zM33 516l-50 19q24 30 24 59q0 44 -55 51l33 76q50 -9 77.5 -34.5t27.5 -63.5q0 -24 -15 -54t-42 -53z" />
    <glyph glyph-name="uni1F09" unicode="&#x1f09;" horiz-adv-x="627" 
d="M382 718l235 -718h-123q-11 30 -54 170h-257l-53 -170h-122l234 718h140zM210 267h202l-66 219l-33 119h-3l-33 -118zM67 533l-48 -19q-28 23 -42.5 52.5t-14.5 53.5q0 80 105 99l31 -76q-55 -9 -55 -51q0 -24 24 -59z" />
    <glyph glyph-name="uni1F0A" unicode="&#x1f0a;" horiz-adv-x="627" 
d="M382 718l235 -718h-123q-11 30 -54 170h-257l-53 -170h-122l234 718h140zM210 267h202l-66 219l-33 119h-3l-33 -118zM115 534h-74l-131 186h115zM-142 525l-48 19q24 34 24 59q0 42 -55 51l31 76q104 -20 104 -99q0 -24 -14.5 -53.5t-41.5 -52.5z" />
    <glyph glyph-name="uni1F0B" unicode="&#x1f0b;" horiz-adv-x="627" 
d="M382 718l235 -718h-123q-11 30 -54 170h-257l-53 -170h-122l234 718h140zM210 267h202l-66 219l-33 119h-3l-33 -118zM106 534h-73q-4 5 -12.5 16.5t-25 34.5t-30.5 43l-64 90h115zM-128 544l-48 -20q-56 51 -56 107q0 79 104 99l31 -76q-55 -9 -55 -51q0 -25 24 -59z
" />
    <glyph glyph-name="uni1F0C" unicode="&#x1f0c;" horiz-adv-x="627" 
d="M382 718l235 -718h-123q-11 30 -54 170h-257l-53 -170h-122l234 718h140zM210 267h202l-66 219l-33 119h-3l-33 -118zM26 720h116l-133 -186h-73zM-112 528l-47 19q23 32 23 59q0 42 -54 51l31 76q49 -9 76.5 -35t27.5 -64q0 -24 -14.5 -53.5t-42.5 -52.5z" />
    <glyph glyph-name="uni1F0D" unicode="&#x1f0d;" horiz-adv-x="627" 
d="M382 718l235 -718h-123q-11 30 -54 170h-257l-53 -170h-122l234 718h140zM210 267h202l-66 219l-33 119h-3l-33 -118zM32 718h115l-133 -187h-74zM-88 543l-48 -20q-57 51 -57 107q0 39 28 64.5t77 34.5l14 -36q3 -8 7 -18t6.5 -15l3.5 -7q-55 -9 -55 -51q0 -24 24 -59z
" />
    <glyph glyph-name="uni1F0E" unicode="&#x1f0e;" horiz-adv-x="627" 
d="M382 718l235 -718h-123q-11 30 -54 170h-257l-53 -170h-122l234 718h140zM210 267h202l-66 219l-33 119h-3l-33 -118zM96 732l44 -42q-9 -29 -30.5 -49t-50.5 -20q-24 0 -69 15q-45 16 -66 16q-36 0 -50 -38l-49 38q9 29 33.5 51.5t54.5 22.5q28 0 72 -16q41 -14 62 -16
q37 0 49 38zM-8 425l-49 18q26 26 27 50q2 14 -8.5 26t-41.5 16l31 69q48 -7 73 -30t23 -56q-1 -44 -55 -93z" />
    <glyph glyph-name="uni1F0F" unicode="&#x1f0f;" horiz-adv-x="627" 
d="M382 718l235 -718h-123q-11 30 -54 170h-257l-53 -170h-122l234 718h140zM210 267h202l-66 219l-33 119h-3l-33 -118zM96 733l44 -43q-9 -29 -30.5 -49t-50.5 -20q-25 0 -69 16q-45 16 -66 16q-36 0 -50 -38l-49 38q9 29 33.5 51t54.5 22q26 0 71 -15q43 -14 63 -16
q35 0 49 38zM21 442l-49 -18q-50 45 -55 93q-2 34 23 56.5t73 28.5l31 -69q-50 -6 -50 -41q2 -23 27 -50z" />
    <glyph glyph-name="uni1F10" unicode="&#x1f10;" horiz-adv-x="470" 
d="M334 172l117 -17q-7 -79 -58.5 -124.5t-144.5 -45.5q-94 0 -148 43.5t-54 111.5q0 42 22.5 77.5t66.5 49.5q1 2 1 4q-84 23 -84 109q0 63 51 108q53 45 136 45q79 0 131.5 -40t61.5 -116l-111 -22q2 42 -20 67.5t-60 25.5q-35 -1 -56 -22.5t-21 -50.5q0 -31 22 -48
t55 -17h48v-80h-37q-41 0 -64.5 -22.5t-23.5 -61.5q0 -32 22.5 -51t59.5 -19q91 0 88 96zM254 576l-50 19q24 30 24 59q0 44 -55 51l33 76q50 -9 77.5 -34.5t27.5 -63.5q0 -24 -15 -54t-42 -53z" />
    <glyph glyph-name="uni1F11" unicode="&#x1f11;" horiz-adv-x="470" 
d="M334 172l117 -17q-7 -79 -58.5 -124.5t-144.5 -45.5q-94 0 -148 43.5t-54 111.5q0 42 22.5 77.5t66.5 49.5q1 2 1 4q-84 23 -84 109q0 63 51 108q53 45 136 45q79 0 131.5 -40t61.5 -116l-111 -22q2 42 -20 67.5t-60 25.5q-35 -1 -56 -22.5t-21 -50.5q0 -31 22 -48
t55 -17h48v-80h-37q-41 0 -64.5 -22.5t-23.5 -61.5q0 -32 22.5 -51t59.5 -19q91 0 88 96zM281 592l-48 -19q-28 23 -42.5 52.5t-14.5 53.5q0 79 105 99l31 -76q-55 -9 -55 -51q0 -25 24 -59z" />
    <glyph glyph-name="uni1F12" unicode="&#x1f12;" horiz-adv-x="470" 
d="M334 172l117 -17q-7 -79 -58.5 -124.5t-144.5 -45.5q-94 0 -148 43.5t-54 111.5q0 42 22.5 77.5t66.5 49.5q1 2 1 4q-84 23 -84 109q0 63 51 108q53 45 136 45q79 0 131.5 -40t61.5 -116l-111 -22q2 42 -20 67.5t-60 25.5q-35 -1 -56 -22.5t-21 -50.5q0 -31 22 -48
t55 -17h48v-80h-37q-41 0 -64.5 -22.5t-23.5 -61.5q0 -32 22.5 -51t59.5 -19q91 0 88 96zM140 576l-48 19q24 35 24 59q0 42 -55 51l31 76q104 -20 104 -99q0 -24 -14.5 -53.5t-41.5 -52.5zM397 585h-74l-131 186h115z" />
    <glyph glyph-name="uni1F13" unicode="&#x1f13;" horiz-adv-x="470" 
d="M334 172l117 -17q-7 -79 -58.5 -124.5t-144.5 -45.5q-94 0 -148 43.5t-54 111.5q0 42 22.5 77.5t66.5 49.5q1 2 1 4q-84 23 -84 109q0 63 51 108q53 45 136 45q79 0 131.5 -40t61.5 -116l-111 -22q2 42 -20 67.5t-60 25.5q-35 -1 -56 -22.5t-21 -50.5q0 -31 22 -48
t55 -17h48v-80h-37q-41 0 -64.5 -22.5t-23.5 -61.5q0 -32 22.5 -51t59.5 -19q91 0 88 96zM410 585h-73q-4 5 -12.5 16.5t-25 34.5t-30.5 43l-64 90h115zM176 595l-48 -20q-56 51 -56 107q0 79 104 99l31 -76q-55 -9 -55 -51q0 -24 24 -59z" />
    <glyph glyph-name="uni1F14" unicode="&#x1f14;" horiz-adv-x="470" 
d="M334 172l117 -17q-7 -79 -58.5 -124.5t-144.5 -45.5q-94 0 -148 43.5t-54 111.5q0 42 22.5 77.5t66.5 49.5q1 2 1 4q-84 23 -84 109q0 63 51 108q53 45 136 45q79 0 131.5 -40t61.5 -116l-111 -22q2 42 -20 67.5t-60 25.5q-35 -1 -56 -22.5t-21 -50.5q0 -31 22 -48
t55 -17h48v-80h-37q-41 0 -64.5 -22.5t-23.5 -61.5q0 -32 22.5 -51t59.5 -19q91 0 88 96zM189 576l-47 19q23 32 23 59q0 42 -54 51l31 76q49 -9 76.5 -35t27.5 -64q0 -24 -14.5 -53.5t-42.5 -52.5zM327 768h116l-133 -186h-73z" />
    <glyph glyph-name="uni1F15" unicode="&#x1f15;" horiz-adv-x="470" 
d="M334 172l117 -17q-7 -79 -58.5 -124.5t-144.5 -45.5q-94 0 -148 43.5t-54 111.5q0 42 22.5 77.5t66.5 49.5q1 2 1 4q-84 23 -84 109q0 63 51 108q53 45 136 45q79 0 131.5 -40t61.5 -116l-111 -22q2 42 -20 67.5t-60 25.5q-35 -1 -56 -22.5t-21 -50.5q0 -31 22 -48
t55 -17h48v-80h-37q-41 0 -64.5 -22.5t-23.5 -61.5q0 -32 22.5 -51t59.5 -19q91 0 88 96zM338 770h115l-133 -187h-74zM218 595l-48 -20q-57 51 -57 107q0 39 28 64.5t77 34.5l14 -36q3 -8 7 -18t6.5 -15l3.5 -7q-55 -9 -55 -51q0 -24 24 -59z" />
    <glyph glyph-name="uni1F18" unicode="&#x1f18;" horiz-adv-x="541" 
d="M508 97v-97h-445v718h434l-26 -97h-285v-200h268v-97h-268v-227h322zM-64 516l-50 19q24 30 24 59q0 44 -55 51l33 76q50 -9 77.5 -34.5t27.5 -63.5q0 -24 -15 -54t-42 -53z" />
    <glyph glyph-name="uni1F19" unicode="&#x1f19;" horiz-adv-x="541" 
d="M508 97v-97h-445v718h434l-26 -97h-285v-200h268v-97h-268v-227h322zM-41 535l-48 -19q-28 23 -42.5 52.5t-14.5 53.5q0 80 105 99l31 -76q-55 -9 -55 -51q0 -24 24 -59z" />
    <glyph glyph-name="uni1F1A" unicode="&#x1f1a;" horiz-adv-x="541" 
d="M508 97v-97h-445v718h434l-26 -97h-285v-200h268v-97h-268v-227h322zM-255 518l-48 19q24 34 24 59q0 42 -55 51l31 76q104 -20 104 -99q0 -24 -14.5 -53.5t-41.5 -52.5zM2 527h-74l-131 186h115z" />
    <glyph glyph-name="uni1F1B" unicode="&#x1f1b;" horiz-adv-x="541" 
d="M508 97v-97h-445v718h434l-26 -97h-285v-200h268v-97h-268v-227h322zM20 530h-73q-4 5 -12.5 16.5t-25 34.5t-30.5 43l-64 90h115zM-214 540l-48 -20q-56 51 -56 107q0 79 104 99l31 -76q-55 -9 -55 -51q0 -25 24 -59z" />
    <glyph glyph-name="uni1F1C" unicode="&#x1f1c;" horiz-adv-x="541" 
d="M508 97v-97h-445v718h434l-26 -97h-285v-200h268v-97h-268v-227h322zM-223 527l-47 19q23 32 23 59q0 42 -54 51l31 76q49 -9 76.5 -35t27.5 -64q0 -24 -14.5 -53.5t-42.5 -52.5zM-85 719h116l-133 -186h-73z" />
    <glyph glyph-name="uni1F1D" unicode="&#x1f1d;" horiz-adv-x="541" 
d="M508 97v-97h-445v718h434l-26 -97h-285v-200h268v-97h-268v-227h322zM-89 717h115l-133 -187h-74zM-209 542l-48 -20q-57 51 -57 107q0 39 28 64.5t77 34.5l14 -36q3 -8 7 -18t6.5 -15l3.5 -7q-55 -9 -55 -51q0 -25 24 -59z" />
    <glyph glyph-name="uni1F20" unicode="&#x1f20;" horiz-adv-x="533" 
d="M476 363v-363h-116v339q0 104 -86 104q-47 0 -73.5 -34.5t-26.5 -88.5v-320h-116v386q0 72 -5 127l114 13q5 -43 4 -74h2q47 81 144 81q78 0 118.5 -46t40.5 -124zM263 576l-50 19q24 30 24 59q0 44 -55 51l33 76q50 -9 77.5 -34.5t27.5 -63.5q0 -24 -15 -54t-42 -53z
" />
    <glyph glyph-name="uni1F21" unicode="&#x1f21;" horiz-adv-x="533" 
d="M476 363v-363h-116v339q0 104 -86 104q-47 0 -73.5 -34.5t-26.5 -88.5v-320h-116v386q0 72 -5 127l114 13q5 -43 4 -74h2q47 81 144 81q78 0 118.5 -46t40.5 -124zM303 597l-48 -19q-28 23 -42.5 52.5t-14.5 53.5q0 80 105 99l31 -76q-55 -9 -55 -51q0 -24 24 -59z" />
    <glyph glyph-name="uni1F22" unicode="&#x1f22;" horiz-adv-x="533" 
d="M476 363v-363h-116v339q0 104 -86 104q-47 0 -73.5 -34.5t-26.5 -88.5v-320h-116v386q0 72 -5 127l114 13q5 -43 4 -74h2q47 81 144 81q78 0 118.5 -46t40.5 -124zM167 576l-48 19q24 35 24 59q0 42 -55 51l31 76q104 -20 104 -99q0 -24 -14.5 -53.5t-41.5 -52.5z
M424 585h-74l-131 186h115z" />
    <glyph glyph-name="uni1F23" unicode="&#x1f23;" horiz-adv-x="533" 
d="M476 363v-363h-116v339q0 104 -86 104q-47 0 -73.5 -34.5t-26.5 -88.5v-320h-116v386q0 72 -5 127l114 13q5 -43 4 -74h2q47 81 144 81q78 0 118.5 -46t40.5 -124zM422 584h-73q-4 5 -12.5 16.5t-25 34.5t-30.5 43l-64 90h115zM188 594l-48 -20q-56 51 -56 107
q0 79 104 99l31 -76q-55 -9 -55 -51q0 -25 24 -59z" />
    <glyph glyph-name="uni1F24" unicode="&#x1f24;" horiz-adv-x="533" 
d="M476 363v-363h-116v339q0 104 -86 104q-47 0 -73.5 -34.5t-26.5 -88.5v-320h-116v386q0 72 -5 127l114 13q5 -43 4 -74h2q47 81 144 81q78 0 118.5 -46t40.5 -124zM207 579l-47 19q23 32 23 59q0 42 -54 51l31 76q49 -9 76.5 -35t27.5 -64q0 -24 -14.5 -53.5t-42.5 -52.5
zM345 771h116l-133 -186h-73z" />
    <glyph glyph-name="uni1F25" unicode="&#x1f25;" horiz-adv-x="533" 
d="M476 363v-363h-116v339q0 104 -86 104q-47 0 -73.5 -34.5t-26.5 -88.5v-320h-116v386q0 72 -5 127l114 13q5 -43 4 -74h2q47 81 144 81q78 0 118.5 -46t40.5 -124zM349 770h115l-133 -187h-74zM229 595l-48 -20q-57 51 -57 107q0 39 28 64.5t77 34.5l14 -36q3 -8 7 -18
t6.5 -15l3.5 -7q-55 -9 -55 -51q0 -24 24 -59z" />
    <glyph glyph-name="uni1F26" unicode="&#x1f26;" horiz-adv-x="533" 
d="M274 568l-49 18q26 26 27 50q2 14 -8.5 26t-41.5 16l31 69q48 -7 73 -30t23 -56q-1 -44 -55 -93zM378 875l44 -42q-9 -29 -30.5 -49t-50.5 -20q-23 0 -70 15q-44 16 -65 16q-36 0 -50 -38l-49 38q9 29 33.5 51.5t54.5 22.5q29 0 71 -16q43 -14 63 -16q37 0 49 38z
M476 363v-363h-116v339q0 104 -86 104q-47 0 -73.5 -34.5t-26.5 -88.5v-320h-116v386q0 72 -5 127l114 13q5 -43 4 -74h2q47 81 144 81q78 0 118.5 -46t40.5 -124z" />
    <glyph glyph-name="uni1F27" unicode="&#x1f27;" horiz-adv-x="533" 
d="M297 586l-49 -18q-50 45 -55 93q-2 34 23 56.5t73 28.5l31 -69q-50 -6 -50 -41q2 -23 27 -50zM372 877l44 -43q-9 -29 -30.5 -49t-50.5 -20q-25 0 -70 16q-44 16 -65 16q-36 0 -50 -38l-49 38q9 29 33.5 51t54.5 22q26 0 71 -15q43 -14 63 -16q35 0 49 38zM476 363v-363
h-116v339q0 104 -86 104q-47 0 -73.5 -34.5t-26.5 -88.5v-320h-116v386q0 72 -5 127l114 13q5 -43 4 -74h2q47 81 144 81q78 0 118.5 -46t40.5 -124z" />
    <glyph glyph-name="uni1F28" unicode="&#x1f28;" horiz-adv-x="636" 
d="M572 718v-718h-122v327h-264v-327h-122v718h122v-293h264v293h122zM-64 516l-50 19q24 30 24 59q0 44 -55 51l33 76q50 -9 77.5 -34.5t27.5 -63.5q0 -24 -15 -54t-42 -53z" />
    <glyph glyph-name="uni1F29" unicode="&#x1f29;" horiz-adv-x="636" 
d="M572 718v-718h-122v327h-264v-327h-122v718h122v-293h264v293h122zM-35 532l-48 -19q-28 23 -42.5 52.5t-14.5 53.5q0 79 105 99l31 -76q-55 -9 -55 -51q0 -25 24 -59z" />
    <glyph glyph-name="uni1F2A" unicode="&#x1f2a;" horiz-adv-x="636" 
d="M572 718v-718h-122v327h-264v-327h-122v718h122v-293h264v293h122zM-230 524l-48 19q24 35 24 59q0 42 -55 51l31 76q104 -20 104 -99q0 -24 -14.5 -53.5t-41.5 -52.5zM27 533h-74l-131 186h115z" />
    <glyph glyph-name="uni1F2B" unicode="&#x1f2b;" horiz-adv-x="636" 
d="M572 718v-718h-122v327h-264v-327h-122v718h122v-293h264v293h122zM19 533h-73q-4 5 -12.5 16.5t-25 34.5t-30.5 43l-64 90h115zM-215 543l-48 -20q-56 51 -56 107q0 79 104 99l31 -76q-55 -9 -55 -51q0 -24 24 -59z" />
    <glyph glyph-name="uni1F2C" unicode="&#x1f2c;" horiz-adv-x="636" 
d="M572 718v-718h-122v327h-264v-327h-122v718h122v-293h264v293h122zM-221 528l-47 19q23 32 23 59q0 42 -54 51l31 76q49 -9 76.5 -35t27.5 -64q0 -24 -14.5 -53.5t-42.5 -52.5zM-83 720h116l-133 -186h-73z" />
    <glyph glyph-name="uni1F2D" unicode="&#x1f2d;" horiz-adv-x="636" 
d="M-91 719h115l-133 -187h-74zM-211 544l-48 -20q-57 51 -57 107q0 39 28 64.5t77 34.5l14 -36q3 -8 7 -18t6.5 -15l3.5 -7q-55 -9 -55 -51q0 -25 24 -59zM572 718v-718h-122v327h-264v-327h-122v718h122v-293h264v293h122z" />
    <glyph glyph-name="uni1F2E" unicode="&#x1f2e;" horiz-adv-x="636" 
d="M-127 445l-49 18q26 26 27 50q2 14 -8.5 26t-41.5 16l31 69q48 -7 73 -30t23 -56q-1 -44 -55 -93zM-23 752l44 -42q-9 -29 -30.5 -49t-50.5 -20q-24 0 -69 15q-45 16 -66 16q-36 0 -50 -38l-49 38q9 29 33.5 51.5t54.5 22.5q28 0 72 -16q41 -14 62 -16q37 0 49 38z
M572 718v-718h-122v327h-264v-327h-122v718h122v-293h264v293h122z" />
    <glyph glyph-name="uni1F2F" unicode="&#x1f2f;" horiz-adv-x="636" 
d="M-111 447l-49 -18q-50 45 -55 93q-2 34 23 56.5t73 28.5l31 -69q-50 -6 -50 -41q2 -23 27 -50zM-36 738l44 -43q-9 -29 -30.5 -49t-50.5 -20q-25 0 -69 16q-45 16 -66 16q-36 0 -50 -38l-49 38q9 29 33.5 51t54.5 22q26 0 71 -15q43 -14 63 -16q35 0 49 38zM572 718v-718
h-122v327h-264v-327h-122v718h122v-293h264v293h122z" />
    <glyph glyph-name="uni1F30" unicode="&#x1f30;" horiz-adv-x="237" 
d="M132 576l-50 19q24 30 24 59q0 44 -55 51l33 76q50 -9 77.5 -34.5t27.5 -63.5q0 -24 -15 -54t-42 -53zM176 527v-527h-116v513z" />
    <glyph glyph-name="uni1F31" unicode="&#x1f31;" horiz-adv-x="237" 
d="M157 592l-48 -19q-28 23 -42.5 52.5t-14.5 53.5q0 79 105 99l31 -76q-55 -9 -55 -51q0 -25 24 -59zM176 527v-527h-116v513z" />
    <glyph glyph-name="uni1F32" unicode="&#x1f32;" horiz-adv-x="237" 
d="M30 576l-48 19q24 35 24 59q0 42 -55 51l31 76q104 -20 104 -99q0 -24 -14.5 -53.5t-41.5 -52.5zM287 585h-74l-131 186h115zM176 527v-527h-116v513z" />
    <glyph glyph-name="uni1F33" unicode="&#x1f33;" horiz-adv-x="237" 
d="M289 587h-73q-4 5 -12.5 16.5t-25 34.5t-30.5 43l-64 90h115zM55 597l-48 -20q-56 51 -56 107q0 79 104 99l31 -76q-55 -9 -55 -51q0 -24 24 -59zM176 527v-527h-116v513z" />
    <glyph glyph-name="uni1F34" unicode="&#x1f34;" horiz-adv-x="237" 
d="M66 580l-47 19q23 32 23 59q0 42 -54 51l31 76q49 -9 76.5 -35t27.5 -64q0 -24 -14.5 -53.5t-42.5 -52.5zM204 772h116l-133 -186h-73zM176 527v-527h-116v513z" />
    <glyph glyph-name="uni1F35" unicode="&#x1f35;" horiz-adv-x="237" 
d="M220 770h115l-133 -187h-74zM100 595l-48 -20q-57 51 -57 107q0 39 28 64.5t77 34.5l14 -36q3 -8 7 -18t6.5 -15l3.5 -7q-55 -9 -55 -51q0 -24 24 -59zM176 527v-527h-116v513z" />
    <glyph glyph-name="uni1F36" unicode="&#x1f36;" horiz-adv-x="237" 
d="M129 568l-49 18q26 26 27 50q2 14 -8.5 26t-41.5 16l31 69q48 -7 73 -30t23 -56q-1 -44 -55 -93zM233 875l44 -42q-9 -29 -30.5 -49t-50.5 -20q-24 0 -70 15q-44 16 -65 16q-36 0 -50 -38l-49 38q9 29 33.5 51.5t54.5 22.5q29 0 71 -16q43 -14 63 -16q37 0 49 38z
M176 527v-527h-116v513z" />
    <glyph glyph-name="uni1F37" unicode="&#x1f37;" horiz-adv-x="237" 
d="M152 586l-49 -18q-50 45 -55 93q-2 34 23 56.5t73 28.5l31 -69q-50 -6 -50 -41q2 -23 27 -50zM227 877l44 -43q-9 -29 -30.5 -49t-50.5 -20q-25 0 -70 16q-44 16 -65 16q-36 0 -50 -38l-49 38q9 29 33.5 51t54.5 22q26 0 71 -15q43 -14 63 -16q35 0 49 38zM176 527v-527
h-116v513z" />
    <glyph glyph-name="uni1F38" unicode="&#x1f38;" horiz-adv-x="263" 
d="M-62 518l-50 19q24 30 24 59q0 44 -55 51l33 76q50 -9 77.5 -34.5t27.5 -63.5q0 -24 -15 -54t-42 -53zM192 718v-718h-122v718h122z" />
    <glyph glyph-name="uni1F39" unicode="&#x1f39;" horiz-adv-x="263" 
d="M-37 534l-48 -19q-28 23 -42.5 52.5t-14.5 53.5q0 79 105 99l31 -76q-55 -9 -55 -51q0 -25 24 -59zM192 718v-718h-122v718h122z" />
    <glyph glyph-name="uni1F3A" unicode="&#x1f3a;" horiz-adv-x="263" 
d="M-232 522l-48 19q24 35 24 59q0 42 -55 51l31 76q104 -20 104 -99q0 -24 -14.5 -53.5t-41.5 -52.5zM25 531h-74l-131 186h115zM192 718v-718h-122v718h122z" />
    <glyph glyph-name="uni1F3B" unicode="&#x1f3b;" horiz-adv-x="263" 
d="M20 534h-73q-4 5 -12.5 16.5t-25 34.5t-30.5 43l-64 90h115zM-214 544l-48 -20q-56 51 -56 107q0 79 104 99l31 -76q-55 -9 -55 -51q0 -25 24 -59zM192 718v-718h-122v718h122z" />
    <glyph glyph-name="uni1F3C" unicode="&#x1f3c;" horiz-adv-x="263" 
d="M-218 526l-47 19q23 32 23 59q0 42 -54 51l31 76q49 -9 76.5 -35t27.5 -64q0 -24 -14.5 -53.5t-42.5 -52.5zM-80 718h116l-133 -186h-73zM192 718v-718h-122v718h122z" />
    <glyph glyph-name="uni1F3D" unicode="&#x1f3d;" horiz-adv-x="263" 
d="M-73 718h115l-133 -187h-74zM-193 543l-48 -20q-57 51 -57 107q0 39 28 64.5t77 34.5l14 -36q3 -8 7 -18t6.5 -15l3.5 -7q-55 -9 -55 -51q0 -24 24 -59zM192 718v-718h-122v718h122z" />
    <glyph glyph-name="uni1F3E" unicode="&#x1f3e;" horiz-adv-x="263" 
d="M-116 445l-49 18q26 26 27 50q2 14 -8.5 26t-41.5 16l31 69q48 -7 73 -30t23 -56q-1 -44 -55 -93zM-12 752l44 -42q-9 -29 -30.5 -49t-50.5 -20q-24 0 -69 15q-45 16 -66 16q-36 0 -50 -38l-49 38q9 29 33.5 51.5t54.5 22.5q28 0 72 -16q41 -14 62 -16q37 0 49 38z
M192 718v-718h-122v718h122z" />
    <glyph glyph-name="uni1F3F" unicode="&#x1f3f;" horiz-adv-x="263" 
d="M-81 461l-49 -18q-50 45 -55 93q-2 34 23 56.5t73 28.5l31 -69q-50 -6 -50 -41q2 -23 27 -50zM-6 752l44 -43q-9 -29 -30.5 -49t-50.5 -20q-25 0 -69 16q-45 16 -66 16q-36 0 -50 -38l-49 38q9 29 33.5 51t54.5 22q26 0 71 -15q43 -14 63 -16q35 0 49 38zM192 718v-718
h-122v718h122z" />
    <glyph glyph-name="uni1F40" unicode="&#x1f40;" horiz-adv-x="531" 
d="M265 533q113 0 172 -71.5t59 -201.5t-59.5 -202.5t-171.5 -72.5q-113 0 -171.5 72t-58.5 202t59 201.5t171 72.5zM265 71q111 0 111 188t-111 188t-111 -188t111 -188zM282 576l-50 19q24 30 24 59q0 44 -55 51l33 76q50 -9 77.5 -34.5t27.5 -63.5q0 -24 -15 -54t-42 -53
z" />
    <glyph glyph-name="uni1F41" unicode="&#x1f41;" horiz-adv-x="531" 
d="M265 533q113 0 172 -71.5t59 -201.5t-59.5 -202.5t-171.5 -72.5q-113 0 -171.5 72t-58.5 202t59 201.5t171 72.5zM265 71q111 0 111 188t-111 188t-111 -188t111 -188zM307 592l-48 -19q-28 23 -42.5 52.5t-14.5 53.5q0 79 105 99l31 -76q-55 -9 -55 -51q0 -25 24 -59z
" />
    <glyph glyph-name="uni1F42" unicode="&#x1f42;" horiz-adv-x="531" 
d="M265 533q113 0 172 -71.5t59 -201.5t-59.5 -202.5t-171.5 -72.5q-113 0 -171.5 72t-58.5 202t59 201.5t171 72.5zM265 71q111 0 111 188t-111 188t-111 -188t111 -188zM174 576l-48 19q24 35 24 59q0 42 -55 51l31 76q104 -20 104 -99q0 -24 -14.5 -53.5t-41.5 -52.5z
M431 585h-74l-131 186h115z" />
    <glyph glyph-name="uni1F43" unicode="&#x1f43;" horiz-adv-x="531" 
d="M265 533q113 0 172 -71.5t59 -201.5t-59.5 -202.5t-171.5 -72.5q-113 0 -171.5 72t-58.5 202t59 201.5t171 72.5zM265 71q111 0 111 188t-111 188t-111 -188t111 -188zM433 585h-73q-4 5 -12.5 16.5t-25 34.5t-30.5 43l-64 90h115zM199 595l-48 -20q-56 51 -56 107
q0 79 104 99l31 -76q-55 -9 -55 -51q0 -24 24 -59z" />
    <glyph glyph-name="uni1F44" unicode="&#x1f44;" horiz-adv-x="531" 
d="M265 533q113 0 172 -71.5t59 -201.5t-59.5 -202.5t-171.5 -72.5q-113 0 -171.5 72t-58.5 202t59 201.5t171 72.5zM265 71q111 0 111 188t-111 188t-111 -188t111 -188zM218 576l-47 19q23 32 23 59q0 42 -54 51l31 76q49 -9 76.5 -35t27.5 -64q0 -24 -14.5 -53.5
t-42.5 -52.5zM356 768h116l-133 -186h-73z" />
    <glyph glyph-name="uni1F45" unicode="&#x1f45;" horiz-adv-x="531" 
d="M265 533q113 0 172 -71.5t59 -201.5t-59.5 -202.5t-171.5 -72.5q-113 0 -171.5 72t-58.5 202t59 201.5t171 72.5zM265 71q111 0 111 188t-111 188t-111 -188t111 -188zM357 770h115l-133 -187h-74zM237 595l-48 -20q-57 51 -57 107q0 39 28 64.5t77 34.5l14 -36
q3 -8 7 -18t6.5 -15l3.5 -7q-55 -9 -55 -51q0 -24 24 -59z" />
    <glyph glyph-name="uni1F48" unicode="&#x1f48;" horiz-adv-x="679" 
d="M631 359q0 -180 -72.5 -276.5t-218.5 -96.5q-292 0 -292 373q0 181 72 277t219 96t219.5 -96t72.5 -277zM505 358q0 280 -165 280q-166 0 -166 -279t165 -279q166 0 166 278zM-56 521l-50 19q24 30 24 59q0 44 -55 51l33 76q50 -9 77.5 -34.5t27.5 -63.5q0 -24 -15 -54
t-42 -53z" />
    <glyph glyph-name="uni1F49" unicode="&#x1f49;" horiz-adv-x="679" 
d="M631 359q0 -180 -72.5 -276.5t-218.5 -96.5q-292 0 -292 373q0 181 72 277t219 96t219.5 -96t72.5 -277zM505 358q0 280 -165 280q-166 0 -166 -279t165 -279q166 0 166 278zM-8 537l-48 -19q-28 23 -42.5 52.5t-14.5 53.5q0 80 105 99l31 -76q-55 -9 -55 -51
q0 -24 24 -59z" />
    <glyph glyph-name="uni1F4A" unicode="&#x1f4a;" horiz-adv-x="679" 
d="M631 359q0 -180 -72.5 -276.5t-218.5 -96.5q-292 0 -292 373q0 181 72 277t219 96t219.5 -96t72.5 -277zM505 358q0 280 -165 280q-166 0 -166 -279t165 -279q166 0 166 278zM-236 524l-48 19q24 35 24 59q0 42 -55 51l31 76q104 -20 104 -99q0 -24 -14.5 -53.5
t-41.5 -52.5zM21 533h-74l-131 186h115z" />
    <glyph glyph-name="uni1F4B" unicode="&#x1f4b;" horiz-adv-x="679" 
d="M631 359q0 -180 -72.5 -276.5t-218.5 -96.5q-292 0 -292 373q0 181 72 277t219 96t219.5 -96t72.5 -277zM505 358q0 280 -165 280q-166 0 -166 -279t165 -279q166 0 166 278zM29 533h-73q-4 5 -12.5 16.5t-25 34.5t-30.5 43l-64 90h115zM-205 543l-48 -20q-56 51 -56 107
q0 79 104 99l31 -76q-55 -9 -55 -51q0 -24 24 -59z" />
    <glyph glyph-name="uni1F4C" unicode="&#x1f4c;" horiz-adv-x="679" 
d="M631 359q0 -180 -72.5 -276.5t-218.5 -96.5q-292 0 -292 373q0 181 72 277t219 96t219.5 -96t72.5 -277zM505 358q0 280 -165 280q-166 0 -166 -279t165 -279q166 0 166 278zM-191 527l-47 19q23 32 23 59q0 42 -54 51l31 76q49 -9 76.5 -35t27.5 -64q0 -24 -14.5 -53.5
t-42.5 -52.5zM-53 719h116l-133 -186h-73z" />
    <glyph glyph-name="uni1F4D" unicode="&#x1f4d;" horiz-adv-x="679" 
d="M631 359q0 -180 -72.5 -276.5t-218.5 -96.5q-292 0 -292 373q0 181 72 277t219 96t219.5 -96t72.5 -277zM505 358q0 280 -165 280q-166 0 -166 -279t165 -279q166 0 166 278zM-45 718h115l-133 -187h-74zM-165 543l-48 -20q-57 51 -57 107q0 39 28 64.5t77 34.5l14 -36
q3 -8 7 -18t6.5 -15l3.5 -7q-55 -9 -55 -51q0 -24 24 -59z" />
    <glyph glyph-name="uni1F50" unicode="&#x1f50;" horiz-adv-x="546" 
d="M495 525v-304q0 -113 -56 -173.5t-164 -60.5q-214 0 -214 234v298h116v-292q0 -154 99 -154q104 0 104 153v286zM278 576l-50 19q24 30 24 59q0 44 -55 51l33 76q50 -9 77.5 -34.5t27.5 -63.5q0 -24 -15 -54t-42 -53z" />
    <glyph glyph-name="uni1F51" unicode="&#x1f51;" horiz-adv-x="546" 
d="M495 525v-304q0 -113 -56 -173.5t-164 -60.5q-214 0 -214 234v298h116v-292q0 -154 99 -154q104 0 104 153v286zM322 592l-48 -19q-28 23 -42.5 52.5t-14.5 53.5q0 79 105 99l31 -76q-55 -9 -55 -51q0 -25 24 -59z" />
    <glyph glyph-name="uni1F52" unicode="&#x1f52;" horiz-adv-x="546" 
d="M495 525v-304q0 -113 -56 -173.5t-164 -60.5q-214 0 -214 234v298h116v-292q0 -154 99 -154q104 0 104 153v286zM182 576l-48 19q24 35 24 59q0 42 -55 51l31 76q104 -20 104 -99q0 -24 -14.5 -53.5t-41.5 -52.5zM439 585h-74l-131 186h115z" />
    <glyph glyph-name="uni1F53" unicode="&#x1f53;" horiz-adv-x="546" 
d="M495 525v-304q0 -113 -56 -173.5t-164 -60.5q-214 0 -214 234v298h116v-292q0 -154 99 -154q104 0 104 153v286zM435 585h-73q-4 5 -12.5 16.5t-25 34.5t-30.5 43l-64 90h115zM201 595l-48 -20q-56 51 -56 107q0 79 104 99l31 -76q-55 -9 -55 -51q0 -24 24 -59z" />
    <glyph glyph-name="uni1F54" unicode="&#x1f54;" horiz-adv-x="546" 
d="M495 525v-304q0 -113 -56 -173.5t-164 -60.5q-214 0 -214 234v298h116v-292q0 -154 99 -154q104 0 104 153v286zM227 576l-47 19q23 32 23 59q0 42 -54 51l31 76q49 -9 76.5 -35t27.5 -64q0 -24 -14.5 -53.5t-42.5 -52.5zM365 768h116l-133 -186h-73z" />
    <glyph glyph-name="uni1F55" unicode="&#x1f55;" horiz-adv-x="546" 
d="M369 770h115l-133 -187h-74zM249 595l-48 -20q-57 51 -57 107q0 39 28 64.5t77 34.5l14 -36q3 -8 7 -18t6.5 -15l3.5 -7q-55 -9 -55 -51q0 -24 24 -59zM495 525v-304q0 -113 -56 -173.5t-164 -60.5q-214 0 -214 234v298h116v-292q0 -154 99 -154q104 0 104 153v286z" />
    <glyph glyph-name="uni1F56" unicode="&#x1f56;" horiz-adv-x="546" 
d="M285 568l-49 18q26 26 27 50q2 14 -8.5 26t-41.5 16l31 69q48 -7 73 -30t23 -56q-1 -44 -55 -93zM389 875l44 -42q-9 -29 -30.5 -49t-50.5 -20q-24 0 -70 15q-44 16 -65 16q-36 0 -50 -38l-49 38q9 29 33.5 51.5t54.5 22.5q29 0 71 -16q43 -14 63 -16q37 0 49 38z
M495 525v-304q0 -113 -56 -173.5t-164 -60.5q-214 0 -214 234v298h116v-292q0 -154 99 -154q104 0 104 153v286z" />
    <glyph glyph-name="uni1F57" unicode="&#x1f57;" horiz-adv-x="546" 
d="M323 586l-49 -18q-50 45 -55 93q-2 34 23 56.5t73 28.5l31 -69q-50 -6 -50 -41q2 -23 27 -50zM398 877l44 -43q-9 -29 -30.5 -49t-50.5 -20q-25 0 -70 16q-44 16 -65 16q-36 0 -50 -38l-49 38q9 29 33.5 51t54.5 22q26 0 71 -15q43 -14 63 -16q35 0 49 38zM495 525v-304
q0 -113 -56 -173.5t-164 -60.5q-214 0 -214 234v298h116v-292q0 -154 99 -154q104 0 104 153v286z" />
    <glyph glyph-name="uni1F59" unicode="&#x1f59;" horiz-adv-x="577" 
d="M443 718h129l-223 -437v-281h-122v280l-223 438h140l106 -231q24 -56 42 -104q1 15 43 103zM-62 538l-48 -19q-28 23 -42.5 52.5t-14.5 53.5q0 79 105 99l31 -76q-55 -9 -55 -51q0 -25 24 -59z" />
    <glyph glyph-name="uni1F5B" unicode="&#x1f5b;" horiz-adv-x="577" 
d="M443 718h129l-223 -437v-281h-122v280l-223 438h140l106 -231q24 -56 42 -104q1 15 43 103zM4 532h-73q-4 5 -12.5 16.5t-25 34.5t-30.5 43l-64 90h115zM-230 542l-48 -20q-56 51 -56 107q0 79 104 99l31 -76q-55 -9 -55 -51q0 -25 24 -59z" />
    <glyph glyph-name="uni1F5D" unicode="&#x1f5d;" horiz-adv-x="577" 
d="M443 718h129l-223 -437v-281h-122v280l-223 438h140l106 -231q24 -56 42 -104q1 15 43 103zM-140 718h115l-133 -187h-74zM-260 543l-48 -20q-57 51 -57 107q0 39 28 64.5t77 34.5l14 -36q3 -8 7 -18t6.5 -15l3.5 -7q-55 -9 -55 -51q0 -24 24 -59z" />
    <glyph glyph-name="uni1F5F" unicode="&#x1f5f;" horiz-adv-x="577" 
d="M443 718h129l-223 -437v-281h-122v280l-223 438h140l106 -231q24 -56 42 -104q1 15 43 103zM-163 463l-49 -18q-50 45 -55 93q-2 34 23 56.5t73 28.5l31 -69q-50 -6 -50 -41q2 -23 27 -50zM-88 754l44 -43q-9 -29 -30.5 -49t-50.5 -20q-25 0 -69 16q-45 16 -66 16
q-36 0 -50 -38l-49 38q9 29 33.5 51t54.5 22q26 0 71 -15q43 -14 63 -16q35 0 49 38z" />
    <glyph glyph-name="uni1F60" unicode="&#x1f60;" horiz-adv-x="742" 
d="M710 263q0 -131 -53.5 -203.5t-150.5 -72.5q-104 0 -135 78q-39 -78 -138 -78q-96 0 -147.5 71.5t-51.5 204.5q0 125 54 195q56 72 147 72l18 -85q-53 0 -77 -44q-10 -15 -16 -47q-7 -39 -7 -102q0 -86 23.5 -132.5t62.5 -46.5q35 0 56 28.5t21 72.5v166h112v-162
q0 -48 19.5 -75t52.5 -27q91 0 91 175q0 62 -7 98q-7 42 -31.5 69t-62.5 27l17 85q94 0 148.5 -71t54.5 -196zM381 576l-50 19q24 30 24 59q0 44 -55 51l33 76q50 -9 77.5 -34.5t27.5 -63.5q0 -24 -15 -54t-42 -53z" />
    <glyph glyph-name="uni1F61" unicode="&#x1f61;" horiz-adv-x="742" 
d="M710 263q0 -131 -53.5 -203.5t-150.5 -72.5q-104 0 -135 78q-39 -78 -138 -78q-96 0 -147.5 71.5t-51.5 204.5q0 125 54 195q56 72 147 72l18 -85q-53 0 -77 -44q-10 -15 -16 -47q-7 -39 -7 -102q0 -86 23.5 -132.5t62.5 -46.5q35 0 56 28.5t21 72.5v166h112v-162
q0 -48 19.5 -75t52.5 -27q91 0 91 175q0 62 -7 98q-7 42 -31.5 69t-62.5 27l17 85q94 0 148.5 -71t54.5 -196zM409 592l-48 -19q-28 23 -42.5 52.5t-14.5 53.5q0 79 105 99l31 -76q-55 -9 -55 -51q0 -25 24 -59z" />
    <glyph glyph-name="uni1F62" unicode="&#x1f62;" horiz-adv-x="742" 
d="M710 263q0 -131 -53.5 -203.5t-150.5 -72.5q-104 0 -135 78q-39 -78 -138 -78q-96 0 -147.5 71.5t-51.5 204.5q0 125 54 195q56 72 147 72l18 -85q-53 0 -77 -44q-10 -15 -16 -47q-7 -39 -7 -102q0 -86 23.5 -132.5t62.5 -46.5q35 0 56 28.5t21 72.5v166h112v-162
q0 -48 19.5 -75t52.5 -27q91 0 91 175q0 62 -7 98q-7 42 -31.5 69t-62.5 27l17 85q94 0 148.5 -71t54.5 -196zM284 576l-48 19q24 35 24 59q0 42 -55 51l31 76q104 -20 104 -99q0 -24 -14.5 -53.5t-41.5 -52.5zM541 585h-74l-131 186h115z" />
    <glyph glyph-name="uni1F63" unicode="&#x1f63;" horiz-adv-x="742" 
d="M710 263q0 -131 -53.5 -203.5t-150.5 -72.5q-104 0 -135 78q-39 -78 -138 -78q-96 0 -147.5 71.5t-51.5 204.5q0 125 54 195q56 72 147 72l18 -85q-53 0 -77 -44q-10 -15 -16 -47q-7 -39 -7 -102q0 -86 23.5 -132.5t62.5 -46.5q35 0 56 28.5t21 72.5v166h112v-162
q0 -48 19.5 -75t52.5 -27q91 0 91 175q0 62 -7 98q-7 42 -31.5 69t-62.5 27l17 85q94 0 148.5 -71t54.5 -196zM539 585h-73q-4 5 -12.5 16.5t-25 34.5t-30.5 43l-64 90h115zM305 595l-48 -20q-56 51 -56 107q0 79 104 99l31 -76q-55 -9 -55 -51q0 -24 24 -59z" />
    <glyph glyph-name="uni1F64" unicode="&#x1f64;" horiz-adv-x="742" 
d="M710 263q0 -131 -53.5 -203.5t-150.5 -72.5q-104 0 -135 78q-39 -78 -138 -78q-96 0 -147.5 71.5t-51.5 204.5q0 125 54 195q56 72 147 72l18 -85q-53 0 -77 -44q-10 -15 -16 -47q-7 -39 -7 -102q0 -86 23.5 -132.5t62.5 -46.5q35 0 56 28.5t21 72.5v166h112v-162
q0 -48 19.5 -75t52.5 -27q91 0 91 175q0 62 -7 98q-7 42 -31.5 69t-62.5 27l17 85q94 0 148.5 -71t54.5 -196zM335 576l-47 19q23 32 23 59q0 42 -54 51l31 76q49 -9 76.5 -35t27.5 -64q0 -24 -14.5 -53.5t-42.5 -52.5zM473 768h116l-133 -186h-73z" />
    <glyph glyph-name="uni1F65" unicode="&#x1f65;" horiz-adv-x="742" 
d="M710 263q0 -131 -53.5 -203.5t-150.5 -72.5q-104 0 -135 78q-39 -78 -138 -78q-96 0 -147.5 71.5t-51.5 204.5q0 125 54 195q56 72 147 72l18 -85q-53 0 -77 -44q-10 -15 -16 -47q-7 -39 -7 -102q0 -86 23.5 -132.5t62.5 -46.5q35 0 56 28.5t21 72.5v166h112v-162
q0 -48 19.5 -75t52.5 -27q91 0 91 175q0 62 -7 98q-7 42 -31.5 69t-62.5 27l17 85q94 0 148.5 -71t54.5 -196zM472 770h115l-133 -187h-74zM352 595l-48 -20q-57 51 -57 107q0 39 28 64.5t77 34.5l14 -36q3 -8 7 -18t6.5 -15l3.5 -7q-55 -9 -55 -51q0 -24 24 -59z" />
    <glyph glyph-name="uni1F66" unicode="&#x1f66;" horiz-adv-x="742" 
d="M710 263q0 -131 -53.5 -203.5t-150.5 -72.5q-104 0 -135 78q-39 -78 -138 -78q-96 0 -147.5 71.5t-51.5 204.5q0 125 54 195q56 72 147 72l18 -85q-53 0 -77 -44q-10 -15 -16 -47q-7 -39 -7 -102q0 -86 23.5 -132.5t62.5 -46.5q35 0 56 28.5t21 72.5v166h112v-162
q0 -48 19.5 -75t52.5 -27q91 0 91 175q0 62 -7 98q-7 42 -31.5 69t-62.5 27l17 85q94 0 148.5 -71t54.5 -196zM383 565l-49 18q26 26 27 50q2 14 -8.5 26t-41.5 16l31 69q48 -7 73 -30t23 -56q-1 -44 -55 -93zM487 872l44 -42q-9 -29 -30.5 -49t-50.5 -20q-24 0 -70 15
q-44 16 -65 16q-36 0 -50 -38l-49 38q9 29 33.5 51.5t54.5 22.5q29 0 71 -16q43 -14 63 -16q37 0 49 38z" />
    <glyph glyph-name="uni1F67" unicode="&#x1f67;" horiz-adv-x="742" 
d="M710 263q0 -131 -53.5 -203.5t-150.5 -72.5q-104 0 -135 78q-39 -78 -138 -78q-96 0 -147.5 71.5t-51.5 204.5q0 125 54 195q56 72 147 72l18 -85q-53 0 -77 -44q-10 -15 -16 -47q-7 -39 -7 -102q0 -86 23.5 -132.5t62.5 -46.5q35 0 56 28.5t21 72.5v166h112v-162
q0 -48 19.5 -75t52.5 -27q91 0 91 175q0 62 -7 98q-7 42 -31.5 69t-62.5 27l17 85q94 0 148.5 -71t54.5 -196zM416 583l-49 -18q-50 45 -55 93q-2 34 23 56.5t73 28.5l31 -69q-50 -6 -50 -41q2 -23 27 -50zM491 874l44 -43q-9 -29 -30.5 -49t-50.5 -20q-25 0 -70 16
q-44 16 -65 16q-36 0 -50 -38l-49 38q9 29 33.5 51t54.5 22q26 0 71 -15q43 -14 63 -16q35 0 49 38z" />
    <glyph glyph-name="uni1F68" unicode="&#x1f68;" horiz-adv-x="686" 
d="M343 731q148 0 220 -97q73 -95 73 -255q0 -201 -112 -286q19 4 46 4h68v-97h-258v112q130 31 130 266q0 128 -43 194.5t-125 66.5t-125 -66.5t-43 -193.5q0 -233 129 -267v-112h-257v97h73q21 0 44 -3q-115 85 -115 285q0 168 75 260t220 92zM-47 521l-50 19q24 30 24 59
q0 44 -55 51l33 76q50 -9 77.5 -34.5t27.5 -63.5q0 -24 -15 -54t-42 -53z" />
    <glyph glyph-name="uni1F69" unicode="&#x1f69;" horiz-adv-x="686" 
d="M343 731q148 0 220 -97q73 -95 73 -255q0 -201 -112 -286q19 4 46 4h68v-97h-258v112q130 31 130 266q0 128 -43 194.5t-125 66.5t-125 -66.5t-43 -193.5q0 -233 129 -267v-112h-257v97h73q21 0 44 -3q-115 85 -115 285q0 168 75 260t220 92zM-17 537l-48 -19
q-28 23 -42.5 52.5t-14.5 53.5q0 80 105 99l31 -76q-55 -9 -55 -51q0 -24 24 -59z" />
    <glyph glyph-name="uni1F6A" unicode="&#x1f6a;" horiz-adv-x="686" 
d="M343 731q148 0 220 -97q73 -95 73 -255q0 -201 -112 -286q19 4 46 4h68v-97h-258v112q130 31 130 266q0 128 -43 194.5t-125 66.5t-125 -66.5t-43 -193.5q0 -233 129 -267v-112h-257v97h73q21 0 44 -3q-115 85 -115 285q0 168 75 260t220 92zM26 533h-74l-131 186h115z
M-231 524l-48 19q24 35 24 59q0 42 -55 51l31 76q104 -20 104 -99q0 -24 -14.5 -53.5t-41.5 -52.5z" />
    <glyph glyph-name="uni1F6B" unicode="&#x1f6b;" horiz-adv-x="686" 
d="M343 731q148 0 220 -97q73 -95 73 -255q0 -201 -112 -286q19 4 46 4h68v-97h-258v112q130 31 130 266q0 128 -43 194.5t-125 66.5t-125 -66.5t-43 -193.5q0 -233 129 -267v-112h-257v97h73q21 0 44 -3q-115 85 -115 285q0 168 75 260t220 92zM21 533h-73q-4 5 -12.5 16.5
t-25 34.5t-30.5 43l-64 90h115zM-213 543l-48 -20q-56 51 -56 107q0 79 104 99l31 -76q-55 -9 -55 -51q0 -24 24 -59z" />
    <glyph glyph-name="uni1F6C" unicode="&#x1f6c;" horiz-adv-x="686" 
d="M343 731q148 0 220 -97q73 -95 73 -255q0 -201 -112 -286q19 4 46 4h68v-97h-258v112q130 31 130 266q0 128 -43 194.5t-125 66.5t-125 -66.5t-43 -193.5q0 -233 129 -267v-112h-257v97h73q21 0 44 -3q-115 85 -115 285q0 168 75 260t220 92zM-53 718h116l-133 -186h-73z
M-191 526l-47 19q23 32 23 59q0 42 -54 51l31 76q49 -9 76.5 -35t27.5 -64q0 -24 -14.5 -53.5t-42.5 -52.5z" />
    <glyph glyph-name="uni1F6D" unicode="&#x1f6d;" horiz-adv-x="686" 
d="M343 731q148 0 220 -97q73 -95 73 -255q0 -201 -112 -286q19 4 46 4h68v-97h-258v112q130 31 130 266q0 128 -43 194.5t-125 66.5t-125 -66.5t-43 -193.5q0 -233 129 -267v-112h-257v97h73q21 0 44 -3q-115 85 -115 285q0 168 75 260t220 92zM-50 718h115l-133 -187h-74z
M-170 543l-48 -20q-57 51 -57 107q0 39 28 64.5t77 34.5l14 -36q3 -8 7 -18t6.5 -15l3.5 -7q-55 -9 -55 -51q0 -24 24 -59z" />
    <glyph glyph-name="uni1F6E" unicode="&#x1f6e;" horiz-adv-x="686" 
d="M343 731q148 0 220 -97q73 -95 73 -255q0 -201 -112 -286q19 4 46 4h68v-97h-258v112q130 31 130 266q0 128 -43 194.5t-125 66.5t-125 -66.5t-43 -193.5q0 -233 129 -267v-112h-257v97h73q21 0 44 -3q-115 85 -115 285q0 168 75 260t220 92zM17 752l44 -42
q-9 -29 -30.5 -49t-50.5 -20q-24 0 -69 15q-45 16 -66 16q-36 0 -50 -38l-49 38q9 29 33.5 51.5t54.5 22.5q28 0 72 -16q41 -14 62 -16q37 0 49 38zM-87 445l-49 18q26 26 27 50q2 14 -8.5 26t-41.5 16l31 69q48 -7 73 -30t23 -56q-1 -44 -55 -93z" />
    <glyph glyph-name="uni1F6F" unicode="&#x1f6f;" horiz-adv-x="686" 
d="M343 731q148 0 220 -97q73 -95 73 -255q0 -201 -112 -286q19 4 46 4h68v-97h-258v112q130 31 130 266q0 128 -43 194.5t-125 66.5t-125 -66.5t-43 -193.5q0 -233 129 -267v-112h-257v97h73q21 0 44 -3q-115 85 -115 285q0 168 75 260t220 92zM13 753l44 -43
q-9 -29 -30.5 -49t-50.5 -20q-25 0 -69 16q-45 16 -66 16q-36 0 -50 -38l-49 38q9 29 33.5 51t54.5 22q26 0 71 -15q43 -14 63 -16q35 0 49 38zM-62 462l-49 -18q-50 45 -55 93q-2 34 23 56.5t73 28.5l31 -69q-50 -6 -50 -41q2 -23 27 -50z" />
    <glyph glyph-name="uni1F70" unicode="&#x1f70;" horiz-adv-x="551" 
d="M237 532q92 0 133 -77l6 66h111q-5 -65 -5 -122v-268q0 -27 6.5 -40.5t13 -15.5t17.5 -2q7 0 22 5l-12 -78q-24 -12 -65 -12q-84 0 -89 78h-3q-36 -80 -143 -80q-95 0 -144 71t-49 198q0 129 52 203t149 74zM368 262q0 183 -108 183q-54 0 -79 -45.5t-25 -138.5
q0 -95 24 -141.5t78 -46.5q110 0 110 189zM331 585h-73l-132 183h115z" />
    <glyph glyph-name="uni1F71" unicode="&#x1f71;" horiz-adv-x="551" 
d="M237 532q92 0 133 -77l6 66h111q-5 -65 -5 -122v-268q0 -27 6.5 -40.5t13 -15.5t17.5 -2q7 0 22 5l-12 -78q-24 -12 -65 -12q-84 0 -89 78h-3q-36 -80 -143 -80q-95 0 -144 71t-49 198q0 129 52 203t149 74zM368 262q0 183 -108 183q-54 0 -79 -45.5t-25 -138.5
q0 -95 24 -141.5t78 -46.5q110 0 110 189zM303 768h115l-131 -183h-74z" />
    <glyph glyph-name="uni1F72" unicode="&#x1f72;" horiz-adv-x="470" 
d="M334 172l117 -17q-7 -79 -58.5 -124.5t-144.5 -45.5q-94 0 -148 43.5t-54 111.5q0 42 22.5 77.5t66.5 49.5q1 2 1 4q-84 23 -84 109q0 63 51 108q53 45 136 45q79 0 131.5 -40t61.5 -116l-111 -22q2 42 -20 67.5t-60 25.5q-35 -1 -56 -22.5t-21 -50.5q0 -31 22 -48
t55 -17h48v-80h-37q-41 0 -64.5 -22.5t-23.5 -61.5q0 -32 22.5 -51t59.5 -19q91 0 88 96zM298 585h-73l-132 183h115z" />
    <glyph glyph-name="uni1F73" unicode="&#x1f73;" horiz-adv-x="470" 
d="M334 172l117 -17q-7 -79 -58.5 -124.5t-144.5 -45.5q-94 0 -148 43.5t-54 111.5q0 42 22.5 77.5t66.5 49.5q1 2 1 4q-84 23 -84 109q0 63 51 108q53 45 136 45q79 0 131.5 -40t61.5 -116l-111 -22q2 42 -20 67.5t-60 25.5q-35 -1 -56 -22.5t-21 -50.5q0 -31 22 -48
t55 -17h48v-80h-37q-41 0 -64.5 -22.5t-23.5 -61.5q0 -32 22.5 -51t59.5 -19q91 0 88 96zM276 768h115l-131 -183h-74z" />
    <glyph glyph-name="uni1F74" unicode="&#x1f74;" horiz-adv-x="533" 
d="M476 363v-363h-116v339q0 104 -86 104q-47 0 -73.5 -34.5t-26.5 -88.5v-320h-116v386q0 72 -5 127l114 13q5 -43 4 -74h2q47 81 144 81q78 0 118.5 -46t40.5 -124zM301 585h-73l-132 183h115z" />
    <glyph glyph-name="uni1F75" unicode="&#x1f75;" horiz-adv-x="533" 
d="M476 363v-363h-116v339q0 104 -86 104q-47 0 -73.5 -34.5t-26.5 -88.5v-320h-116v386q0 72 -5 127l114 13q5 -43 4 -74h2q47 81 144 81q78 0 118.5 -46t40.5 -124zM281 768h115l-131 -183h-74z" />
    <glyph glyph-name="uni1F76" unicode="&#x1f76;" horiz-adv-x="237" 
d="M170 585h-73l-132 183h115zM176 527v-527h-116v513z" />
    <glyph glyph-name="uni1F77" unicode="&#x1f77;" horiz-adv-x="237" 
d="M166 768h115l-131 -183h-74zM176 527v-527h-116v513z" />
    <glyph glyph-name="uni1F78" unicode="&#x1f78;" horiz-adv-x="531" 
d="M265 533q113 0 172 -71.5t59 -201.5t-59.5 -202.5t-171.5 -72.5q-113 0 -171.5 72t-58.5 202t59 201.5t171 72.5zM265 71q111 0 111 188t-111 188t-111 -188t111 -188zM320 585h-73l-132 183h115z" />
    <glyph glyph-name="uni1F79" unicode="&#x1f79;" horiz-adv-x="531" 
d="M265 533q113 0 172 -71.5t59 -201.5t-59.5 -202.5t-171.5 -72.5q-113 0 -171.5 72t-58.5 202t59 201.5t171 72.5zM265 71q111 0 111 188t-111 188t-111 -188t111 -188zM299 768h115l-131 -183h-74z" />
    <glyph glyph-name="uni1F7A" unicode="&#x1f7a;" horiz-adv-x="546" 
d="M495 525v-304q0 -113 -56 -173.5t-164 -60.5q-214 0 -214 234v298h116v-292q0 -154 99 -154q104 0 104 153v286zM333 585h-73l-132 183h115z" />
    <glyph glyph-name="uni1F7B" unicode="&#x1f7b;" horiz-adv-x="546" 
d="M495 525v-304q0 -113 -56 -173.5t-164 -60.5q-214 0 -214 234v298h116v-292q0 -154 99 -154q104 0 104 153v286zM304 768h115l-131 -183h-74z" />
    <glyph glyph-name="uni1F7C" unicode="&#x1f7c;" horiz-adv-x="742" 
d="M710 263q0 -131 -53.5 -203.5t-150.5 -72.5q-104 0 -135 78q-39 -78 -138 -78q-96 0 -147.5 71.5t-51.5 204.5q0 125 54 195q56 72 147 72l18 -85q-53 0 -77 -44q-10 -15 -16 -47q-7 -39 -7 -102q0 -86 23.5 -132.5t62.5 -46.5q35 0 56 28.5t21 72.5v166h112v-162
q0 -48 19.5 -75t52.5 -27q91 0 91 175q0 62 -7 98q-7 42 -31.5 69t-62.5 27l17 85q94 0 148.5 -71t54.5 -196zM426 585h-73l-132 183h115z" />
    <glyph glyph-name="uni1F7D" unicode="&#x1f7d;" horiz-adv-x="742" 
d="M710 263q0 -131 -53.5 -203.5t-150.5 -72.5q-104 0 -135 78q-39 -78 -138 -78q-96 0 -147.5 71.5t-51.5 204.5q0 125 54 195q56 72 147 72l18 -85q-53 0 -77 -44q-10 -15 -16 -47q-7 -39 -7 -102q0 -86 23.5 -132.5t62.5 -46.5q35 0 56 28.5t21 72.5v166h112v-162
q0 -48 19.5 -75t52.5 -27q91 0 91 175q0 62 -7 98q-7 42 -31.5 69t-62.5 27l17 85q94 0 148.5 -71t54.5 -196zM408 768h115l-131 -183h-74z" />
    <glyph glyph-name="uni1F80" unicode="&#x1f80;" horiz-adv-x="551" 
d="M237 532q92 0 133 -77l6 66h111q-5 -65 -5 -122v-268q0 -27 6.5 -40.5t13 -15.5t17.5 -2q7 0 22 5l-12 -78q-24 -12 -65 -12q-84 0 -89 78h-3q-36 -80 -143 -80q-95 0 -144 71t-49 198q0 129 52 203t149 74zM368 262q0 183 -108 183q-54 0 -79 -45.5t-25 -138.5
q0 -95 24 -141.5t78 -46.5q110 0 110 189zM219 -150v87h85v-78q0 -31 9 -44t33 -13q20 0 40 7l-9 -68q-30 -9 -60 -9q-98 0 -98 118zM279 576l-50 19q24 30 24 59q0 44 -55 51l33 76q50 -9 77.5 -34.5t27.5 -63.5q0 -24 -15 -54t-42 -53z" />
    <glyph glyph-name="uni1F81" unicode="&#x1f81;" horiz-adv-x="551" 
d="M237 532q92 0 133 -77l6 66h111q-5 -65 -5 -122v-268q0 -27 6.5 -40.5t13 -15.5t17.5 -2q7 0 22 5l-12 -78q-24 -12 -65 -12q-84 0 -89 78h-3q-36 -80 -143 -80q-95 0 -144 71t-49 198q0 129 52 203t149 74zM368 262q0 183 -108 183q-54 0 -79 -45.5t-25 -138.5
q0 -95 24 -141.5t78 -46.5q110 0 110 189zM219 -150v87h85v-78q0 -31 9 -44t33 -13q20 0 40 7l-9 -68q-30 -9 -60 -9q-98 0 -98 118zM303 592l-48 -19q-28 23 -42.5 52.5t-14.5 53.5q0 79 105 99l31 -76q-55 -9 -55 -51q0 -25 24 -59z" />
    <glyph glyph-name="uni1F82" unicode="&#x1f82;" horiz-adv-x="551" 
d="M237 532q92 0 133 -77l6 66h111q-5 -65 -5 -122v-268q0 -27 6.5 -40.5t13 -15.5t17.5 -2q7 0 22 5l-12 -78q-24 -12 -65 -12q-84 0 -89 78h-3q-36 -80 -143 -80q-95 0 -144 71t-49 198q0 129 52 203t149 74zM368 262q0 183 -108 183q-54 0 -79 -45.5t-25 -138.5
q0 -95 24 -141.5t78 -46.5q110 0 110 189zM183 576l-48 19q24 35 24 59q0 42 -55 51l31 76q104 -20 104 -99q0 -24 -14.5 -53.5t-41.5 -52.5zM440 585h-74l-131 186h115zM225 -150v87h85v-78q0 -31 9 -44t33 -13q20 0 40 7l-9 -68q-30 -9 -60 -9q-98 0 -98 118z" />
    <glyph glyph-name="uni1F83" unicode="&#x1f83;" horiz-adv-x="551" 
d="M237 532q92 0 133 -77l6 66h111q-5 -65 -5 -122v-268q0 -27 6.5 -40.5t13 -15.5t17.5 -2q7 0 22 5l-12 -78q-24 -12 -65 -12q-84 0 -89 78h-3q-36 -80 -143 -80q-95 0 -144 71t-49 198q0 129 52 203t149 74zM368 262q0 183 -108 183q-54 0 -79 -45.5t-25 -138.5
q0 -95 24 -141.5t78 -46.5q110 0 110 189zM442 585h-73q-4 5 -12.5 16.5t-25 34.5t-30.5 43l-64 90h115zM208 595l-48 -20q-56 51 -56 107q0 79 104 99l31 -76q-55 -9 -55 -51q0 -24 24 -59zM223 -150v87h85v-78q0 -31 9 -44t33 -13q20 0 40 7l-9 -68q-30 -9 -60 -9
q-98 0 -98 118z" />
    <glyph glyph-name="uni1F84" unicode="&#x1f84;" horiz-adv-x="551" 
d="M237 532q92 0 133 -77l6 66h111q-5 -65 -5 -122v-268q0 -27 6.5 -40.5t13 -15.5t17.5 -2q7 0 22 5l-12 -78q-24 -12 -65 -12q-84 0 -89 78h-3q-36 -80 -143 -80q-95 0 -144 71t-49 198q0 129 52 203t149 74zM368 262q0 183 -108 183q-54 0 -79 -45.5t-25 -138.5
q0 -95 24 -141.5t78 -46.5q110 0 110 189zM219 576l-47 19q23 32 23 59q0 42 -54 51l31 76q49 -9 76.5 -35t27.5 -64q0 -24 -14.5 -53.5t-42.5 -52.5zM357 768h116l-133 -186h-73zM225 -150v87h85v-78q0 -31 9 -44t33 -13q20 0 40 7l-9 -68q-30 -9 -60 -9q-98 0 -98 118z
" />
    <glyph glyph-name="uni1F85" unicode="&#x1f85;" horiz-adv-x="551" 
d="M237 532q92 0 133 -77l6 66h111q-5 -65 -5 -122v-268q0 -27 6.5 -40.5t13 -15.5t17.5 -2q7 0 22 5l-12 -78q-24 -12 -65 -12q-84 0 -89 78h-3q-36 -80 -143 -80q-95 0 -144 71t-49 198q0 129 52 203t149 74zM368 262q0 183 -108 183q-54 0 -79 -45.5t-25 -138.5
q0 -95 24 -141.5t78 -46.5q110 0 110 189zM355 770h115l-133 -187h-74zM235 595l-48 -20q-57 51 -57 107q0 39 28 64.5t77 34.5l14 -36q3 -8 7 -18t6.5 -15l3.5 -7q-55 -9 -55 -51q0 -24 24 -59zM224 -150v87h85v-78q0 -31 9 -44t33 -13q20 0 40 7l-9 -68q-30 -9 -60 -9
q-98 0 -98 118z" />
    <glyph glyph-name="uni1F86" unicode="&#x1f86;" horiz-adv-x="551" 
d="M237 532q92 0 133 -77l6 66h111q-5 -65 -5 -122v-268q0 -27 6.5 -40.5t13 -15.5t17.5 -2q7 0 22 5l-12 -78q-24 -12 -65 -12q-84 0 -89 78h-3q-36 -80 -143 -80q-95 0 -144 71t-49 198q0 129 52 203t149 74zM368 262q0 183 -108 183q-54 0 -79 -45.5t-25 -138.5
q0 -95 24 -141.5t78 -46.5q110 0 110 189zM276 568l-49 18q26 26 27 50q2 14 -8.5 26t-41.5 16l31 69q48 -7 73 -30t23 -56q-1 -44 -55 -93zM380 875l44 -42q-9 -29 -30.5 -49t-50.5 -20q-23 0 -70 15q-44 16 -65 16q-36 0 -50 -38l-49 38q9 29 33.5 51.5t54.5 22.5
q29 0 71 -16q43 -14 63 -16q37 0 49 38zM223 -150v87h85v-78q0 -31 9 -44t33 -13q20 0 40 7l-9 -68q-30 -9 -60 -9q-98 0 -98 118z" />
    <glyph glyph-name="uni1F87" unicode="&#x1f87;" horiz-adv-x="551" 
d="M237 532q92 0 133 -77l6 66h111q-5 -65 -5 -122v-268q0 -27 6.5 -40.5t13 -15.5t17.5 -2q7 0 22 5l-12 -78q-24 -12 -65 -12q-84 0 -89 78h-3q-36 -80 -143 -80q-95 0 -144 71t-49 198q0 129 52 203t149 74zM368 262q0 183 -108 183q-54 0 -79 -45.5t-25 -138.5
q0 -95 24 -141.5t78 -46.5q110 0 110 189zM312 586l-49 -18q-50 45 -55 93q-2 34 23 56.5t73 28.5l31 -69q-50 -6 -50 -41q2 -23 27 -50zM387 877l44 -43q-9 -29 -30.5 -49t-50.5 -20q-25 0 -70 16q-44 16 -65 16q-36 0 -50 -38l-49 38q9 29 33.5 51t54.5 22q26 0 71 -15
q43 -14 63 -16q35 0 49 38zM224 -150v87h85v-78q0 -31 9 -44t33 -13q20 0 40 7l-9 -68q-30 -9 -60 -9q-98 0 -98 118z" />
    <glyph glyph-name="uni1F88" unicode="&#x1f88;" horiz-adv-x="910" 
d="M382 718l235 -718h-123q-11 30 -54 170h-257l-53 -170h-122l234 718h140zM670 142v377h115v-379q0 -94 105 -53l-10 -86q-33 -16 -77 -16q-71 0 -102 38t-31 119zM210 267h202l-66 219l-33 119h-3l-33 -118zM33 517l-50 19q24 30 24 59q0 44 -55 51l33 76
q50 -9 77.5 -34.5t27.5 -63.5q0 -24 -15 -54t-42 -53z" />
    <glyph glyph-name="uni1F89" unicode="&#x1f89;" horiz-adv-x="910" 
d="M382 718l235 -718h-123q-11 30 -54 170h-257l-53 -170h-122l234 718h140zM670 142v377h115v-379q0 -94 105 -53l-10 -86q-33 -16 -77 -16q-71 0 -102 38t-31 119zM210 267h202l-66 219l-33 119h-3l-33 -118zM44 535l-48 -19q-28 23 -42.5 52.5t-14.5 53.5q0 80 105 99
l31 -76q-55 -9 -55 -51q0 -24 24 -59z" />
    <glyph glyph-name="uni1F8A" unicode="&#x1f8a;" horiz-adv-x="910" 
d="M382 718l235 -718h-123q-11 30 -54 170h-257l-53 -170h-122l234 718h140zM670 142v377h115v-379q0 -94 105 -53l-10 -86q-33 -16 -77 -16q-71 0 -102 38t-31 119zM210 267h202l-66 219l-33 119h-3l-33 -118zM126 534h-74l-131 186h115zM-131 525l-48 19q24 34 24 59
q0 42 -55 51l31 76q104 -20 104 -99q0 -24 -14.5 -53.5t-41.5 -52.5z" />
    <glyph glyph-name="uni1F8B" unicode="&#x1f8b;" horiz-adv-x="910" 
d="M382 718l235 -718h-123q-11 30 -54 170h-257l-53 -170h-122l234 718h140zM670 142v377h115v-379q0 -94 105 -53l-10 -86q-33 -16 -77 -16q-71 0 -102 38t-31 119zM210 267h202l-66 219l-33 119h-3l-33 -118zM126 536h-73q-4 5 -12.5 16.5t-25 34.5t-30.5 43l-64 90h115z
M-108 546l-48 -20q-56 51 -56 107q0 79 104 99l31 -76q-55 -9 -55 -51q0 -25 24 -59z" />
    <glyph glyph-name="uni1F8C" unicode="&#x1f8c;" horiz-adv-x="910" 
d="M382 718l235 -718h-123q-11 30 -54 170h-257l-53 -170h-122l234 718h140zM670 142v377h115v-379q0 -94 105 -53l-10 -86q-33 -16 -77 -16q-71 0 -102 38t-31 119zM210 267h202l-66 219l-33 119h-3l-33 -118zM28 719h116l-133 -186h-73zM-110 527l-47 19q23 32 23 59
q0 42 -54 51l31 76q49 -9 76.5 -35t27.5 -64q0 -24 -14.5 -53.5t-42.5 -52.5z" />
    <glyph glyph-name="uni1F8D" unicode="&#x1f8d;" horiz-adv-x="910" 
d="M382 718l235 -718h-123q-11 30 -54 170h-257l-53 -170h-122l234 718h140zM670 142v377h115v-379q0 -94 105 -53l-10 -86q-33 -16 -77 -16q-71 0 -102 38t-31 119zM210 267h202l-66 219l-33 119h-3l-33 -118zM23 719h115l-133 -187h-74zM-97 544l-48 -20q-57 51 -57 107
q0 39 28 64.5t77 34.5l14 -36q3 -8 7 -18t6.5 -15l3.5 -7q-55 -9 -55 -51q0 -25 24 -59z" />
    <glyph glyph-name="uni1F8E" unicode="&#x1f8e;" horiz-adv-x="910" 
d="M382 718l235 -718h-123q-11 30 -54 170h-257l-53 -170h-122l234 718h140zM670 142v377h115v-379q0 -94 105 -53l-10 -86q-33 -16 -77 -16q-71 0 -102 38t-31 119zM210 267h202l-66 219l-33 119h-3l-33 -118zM82 737l44 -42q-9 -29 -30.5 -49t-50.5 -20q-24 0 -69 15
q-45 16 -66 16q-36 0 -50 -38l-49 38q9 29 33.5 51.5t54.5 22.5q28 0 72 -16q41 -14 62 -16q37 0 49 38zM-22 430l-49 18q26 26 27 50q2 14 -8.5 26t-41.5 16l31 69q48 -7 73 -30t23 -56q-1 -44 -55 -93z" />
    <glyph glyph-name="uni1F8F" unicode="&#x1f8f;" horiz-adv-x="910" 
d="M382 718l235 -718h-123q-11 30 -54 170h-257l-53 -170h-122l234 718h140zM670 142v377h115v-379q0 -94 105 -53l-10 -86q-33 -16 -77 -16q-71 0 -102 38t-31 119zM210 267h202l-66 219l-33 119h-3l-33 -118zM86 740l44 -43q-9 -29 -30.5 -49t-50.5 -20q-25 0 -69 16
q-45 16 -66 16q-36 0 -50 -38l-49 38q9 29 33.5 51t54.5 22q26 0 71 -15q43 -14 63 -16q35 0 49 38zM11 449l-49 -18q-50 45 -55 93q-2 34 23 56.5t73 28.5l31 -69q-50 -6 -50 -41q2 -23 27 -50z" />
    <glyph glyph-name="uni1F90" unicode="&#x1f90;" horiz-adv-x="533" 
d="M476 363v-363h-116v339q0 104 -86 104q-47 0 -73.5 -34.5t-26.5 -88.5v-320h-116v386q0 72 -5 127l114 13q5 -43 4 -74h2q47 81 144 81q78 0 118.5 -46t40.5 -124zM227 -150v87h85v-78q0 -31 9 -44t33 -13q20 0 40 7l-9 -68q-30 -9 -60 -9q-98 0 -98 118zM283 576l-50 19
q24 30 24 59q0 44 -55 51l33 76q50 -9 77.5 -34.5t27.5 -63.5q0 -24 -15 -54t-42 -53z" />
    <glyph glyph-name="uni1F91" unicode="&#x1f91;" horiz-adv-x="533" 
d="M476 363v-363h-116v339q0 104 -86 104q-47 0 -73.5 -34.5t-26.5 -88.5v-320h-116v386q0 72 -5 127l114 13q5 -43 4 -74h2q47 81 144 81q78 0 118.5 -46t40.5 -124zM227 -150v87h85v-78q0 -31 9 -44t33 -13q20 0 40 7l-9 -68q-30 -9 -60 -9q-98 0 -98 118zM312 600
l-48 -19q-28 23 -42.5 52.5t-14.5 53.5q0 79 105 99l31 -76q-55 -9 -55 -51q0 -25 24 -59z" />
    <glyph glyph-name="uni1F92" unicode="&#x1f92;" horiz-adv-x="533" 
d="M476 363v-363h-116v339q0 104 -86 104q-47 0 -73.5 -34.5t-26.5 -88.5v-320h-116v386q0 72 -5 127l114 13q5 -43 4 -74h2q47 81 144 81q78 0 118.5 -46t40.5 -124zM166 576l-48 19q24 35 24 59q0 42 -55 51l31 76q104 -20 104 -99q0 -24 -14.5 -53.5t-41.5 -52.5z
M423 585h-74l-131 186h115zM227 -150v87h85v-78q0 -31 9 -44t33 -13q20 0 40 7l-9 -68q-30 -9 -60 -9q-98 0 -98 118z" />
    <glyph glyph-name="uni1F93" unicode="&#x1f93;" horiz-adv-x="533" 
d="M476 363v-363h-116v339q0 104 -86 104q-47 0 -73.5 -34.5t-26.5 -88.5v-320h-116v386q0 72 -5 127l114 13q5 -43 4 -74h2q47 81 144 81q78 0 118.5 -46t40.5 -124zM420 584h-73q-4 5 -12.5 16.5t-25 34.5t-30.5 43l-64 90h115zM186 594l-48 -20q-56 51 -56 107
q0 79 104 99l31 -76q-55 -9 -55 -51q0 -25 24 -59zM227 -150v87h85v-78q0 -31 9 -44t33 -13q20 0 40 7l-9 -68q-30 -9 -60 -9q-98 0 -98 118z" />
    <glyph glyph-name="uni1F94" unicode="&#x1f94;" horiz-adv-x="533" 
d="M476 363v-363h-116v339q0 104 -86 104q-47 0 -73.5 -34.5t-26.5 -88.5v-320h-116v386q0 72 -5 127l114 13q5 -43 4 -74h2q47 81 144 81q78 0 118.5 -46t40.5 -124zM205 576l-47 19q23 32 23 59q0 42 -54 51l31 76q49 -9 76.5 -35t27.5 -64q0 -24 -14.5 -53.5t-42.5 -52.5
zM343 768h116l-133 -186h-73zM227 -150v87h85v-78q0 -31 9 -44t33 -13q20 0 40 7l-9 -68q-30 -9 -60 -9q-98 0 -98 118z" />
    <glyph glyph-name="uni1F95" unicode="&#x1f95;" horiz-adv-x="533" 
d="M476 363v-363h-116v339q0 104 -86 104q-47 0 -73.5 -34.5t-26.5 -88.5v-320h-116v386q0 72 -5 127l114 13q5 -43 4 -74h2q47 81 144 81q78 0 118.5 -46t40.5 -124zM349 770h115l-133 -187h-74zM229 595l-48 -20q-57 51 -57 107q0 39 28 64.5t77 34.5l14 -36q3 -8 7 -18
t6.5 -15l3.5 -7q-55 -9 -55 -51q0 -24 24 -59zM227 -150v87h85v-78q0 -31 9 -44t33 -13q20 0 40 7l-9 -68q-30 -9 -60 -9q-98 0 -98 118z" />
    <glyph glyph-name="uni1F96" unicode="&#x1f96;" horiz-adv-x="533" 
d="M271 568l-49 18q26 26 27 50q2 14 -8.5 26t-41.5 16l31 69q48 -7 73 -30t23 -56q-1 -44 -55 -93zM375 875l44 -42q-9 -29 -30.5 -49t-50.5 -20q-24 0 -70 15q-44 16 -65 16q-36 0 -50 -38l-49 38q9 29 33.5 51.5t54.5 22.5q29 0 71 -16q43 -14 63 -16q37 0 49 38z
M476 363v-363h-116v339q0 104 -86 104q-47 0 -73.5 -34.5t-26.5 -88.5v-320h-116v386q0 72 -5 127l114 13q5 -43 4 -74h2q47 81 144 81q78 0 118.5 -46t40.5 -124zM227 -150v87h85v-78q0 -31 9 -44t33 -13q20 0 40 7l-9 -68q-30 -9 -60 -9q-98 0 -98 118z" />
    <glyph glyph-name="uni1F97" unicode="&#x1f97;" horiz-adv-x="533" 
d="M295 586l-49 -18q-50 45 -55 93q-2 34 23 56.5t73 28.5l31 -69q-50 -6 -50 -41q2 -23 27 -50zM370 877l44 -43q-9 -29 -30.5 -49t-50.5 -20q-25 0 -70 16q-44 16 -65 16q-36 0 -50 -38l-49 38q9 29 33.5 51t54.5 22q26 0 71 -15q43 -14 63 -16q35 0 49 38zM476 363v-363
h-116v339q0 104 -86 104q-47 0 -73.5 -34.5t-26.5 -88.5v-320h-116v386q0 72 -5 127l114 13q5 -43 4 -74h2q47 81 144 81q78 0 118.5 -46t40.5 -124zM227 -150v87h85v-78q0 -31 9 -44t33 -13q20 0 40 7l-9 -68q-30 -9 -60 -9q-98 0 -98 118z" />
    <glyph glyph-name="uni1F98" unicode="&#x1f98;" horiz-adv-x="933" 
d="M572 718v-718h-122v327h-264v-327h-122v718h122v-293h264v293h122zM-63 517l-50 19q24 30 24 59q0 44 -55 51l33 76q50 -9 77.5 -34.5t27.5 -63.5q0 -24 -15 -54t-42 -53zM693 142v377h115v-379q0 -93 105 -53l-10 -86q-33 -16 -77 -16q-71 0 -102 38t-31 119z" />
    </font>
</defs>
</svg>
